<?xml version="1.0" encoding="utf-8"?>
<!-- Generator: Adobe Illustrator 23.0.5, SVG Export Plug-In . SVG Version: 6.00 Build 0)  -->
<svg version="1.1" id="Layer_1" xmlns="http://www.w3.org/2000/svg" xmlns:xlink="http://www.w3.org/1999/xlink" x="0px" y="0px"
	 viewBox="0 0 32 32" style="enable-background:new 0 0 32 32;" xml:space="preserve">
<style type="text/css">
	.st0{clip-path:url(#SVGID_2_);}
	.st1{fill:#0E405D;}
</style>
<g>
	<defs>
		<rect id="SVGID_1_" x="0.5" y="0.5" width="31" height="31"/>
	</defs>
	<clipPath id="SVGID_2_">
		<use xlink:href="#SVGID_1_"  style="overflow:visible;"/>
	</clipPath>
	<g class="st0">
		<path class="st1" d="M31.3,7.5c-0.1-0.4-0.3-0.8-0.5-1.1c-0.3-0.3-0.7-0.5-1.1-0.6l-5.1-1.1c-0.5-0.1-1.1-0.1-1.6,0
			c-0.5,0.1-1.1,0.3-1.5,0.7L6.5,16.3l-4.2-0.2c-0.3,0-0.7,0.1-0.9,0.3c-0.3,0.2-0.5,0.5-0.6,0.8c-0.1,0.3-0.1,0.7,0,1
			c0.1,0.3,0.3,0.6,0.5,0.8l4.3,3.4c0.5,0.6,0.9,0.5,9.4-4.2l0.8,8.1c0,0.2,0.1,0.4,0.2,0.6c0.1,0.2,0.3,0.3,0.5,0.4
			c0.1,0.1,0.3,0.1,0.5,0.1c0.3,0,0.6-0.1,0.9-0.4l2.1-1.9c0.2-0.2,0.3-0.4,0.4-0.7l1.9-10.2c3.1-1.7,6-3.3,8.1-4.5
			c0.4-0.2,0.7-0.5,0.9-0.9C31.3,8.4,31.4,7.9,31.3,7.5z M29.4,8.2c-2.2,1.2-5.2,2.9-8.4,4.7l-0.4,0.2l-2,10.9l-1.3,1.2l-0.9-9.7
			L15.3,16c-6.2,3.4-8.2,4.4-8.9,4.8l-3.7-2.9L7,18L22.5,6.8c0.2-0.2,0.5-0.3,0.8-0.4c0.3-0.1,0.6-0.1,0.9,0l5,1.1
			c0.1,0,0.1,0.1,0.2,0.1c0.1,0.1,0.1,0.1,0.1,0.2c0,0.1,0,0.2,0,0.2C29.5,8.1,29.5,8.1,29.4,8.2z"/>
		<path class="st1" d="M6.5,11.3l3.1,0.9l1.4-1l-3.4-1l1.5-0.9l4.7-0.1l2-1.4L9.1,7.8c-0.2,0-0.4,0-0.6,0.1L6.2,9.3
			C6.1,9.4,5.9,9.6,5.8,9.8c-0.1,0.2-0.1,0.4-0.1,0.6c0,0.2,0.1,0.4,0.3,0.6C6.1,11.1,6.3,11.2,6.5,11.3z"/>
	</g>
</g>
</svg>
