<?xml version="1.0" encoding="utf-8"?>
<!-- Generator: Adobe Illustrator 23.0.5, SVG Export Plug-In . SVG Version: 6.00 Build 0)  -->
<svg version="1.1" id="Layer_1" xmlns="http://www.w3.org/2000/svg" xmlns:xlink="http://www.w3.org/1999/xlink" x="0px" y="0px"
	 viewBox="0 0 32 32" style="enable-background:new 0 0 32 32;" xml:space="preserve">
<style type="text/css">
	.st0{fill:#0E405D;}
</style>
<path class="st0" d="M25.8,19.3l1-3.6v-2.1C26.4,8.8,22.3,5,17.4,5h-1.6v8.5H9.9L9,9.6C8.9,9.2,8.7,8.9,8.4,8.6
	c-0.3-0.2-0.6-0.4-1-0.4H4v1.6h3.4L9.5,19c-0.7,0.2-1.4,0.6-1.9,1.1c-0.5,0.6-0.9,1.2-1,2c-0.1,0.7-0.1,1.5,0.2,2.2
	C7,25,7.4,25.7,8,26.1c0.6,0.5,1.3,0.7,2.1,0.8c0.8,0.1,1.5-0.1,2.2-0.4s1.3-0.9,1.7-1.5c0.4-0.6,0.6-1.4,0.6-2.1c0-0.1,0-0.3,0-0.4
	h5.3c0,0.1,0,0.3,0,0.4c0,0.7,0.2,1.4,0.6,2.1c0.4,0.6,0.9,1.1,1.5,1.5c0.6,0.4,1.3,0.5,2.1,0.5c0.7,0,1.4-0.2,2-0.6
	c0.6-0.4,1.1-0.9,1.5-1.5c0.3-0.6,0.5-1.3,0.5-2.1c0-0.7-0.2-1.4-0.6-2C27,20.1,26.4,19.6,25.8,19.3z M17.4,6.7c4,0,7.3,3,7.7,6.9
	h-7.7V6.7z M10.5,25.3c-0.5,0-1-0.1-1.4-0.4c-0.4-0.3-0.7-0.6-0.9-1.1c-0.2-0.4-0.2-0.9-0.1-1.4c0.1-0.5,0.3-0.9,0.7-1.2
	s0.8-0.6,1.2-0.7c0.5-0.1,1,0,1.4,0.1c0.4,0.2,0.8,0.5,1.1,0.9c0.3,0.4,0.4,0.9,0.4,1.4c0,0.6-0.3,1.3-0.7,1.7
	C11.8,25.1,11.2,25.3,10.5,25.3z M20.4,20.9H14c-0.3-0.5-0.7-1-1.2-1.3c-0.5-0.3-1.1-0.6-1.7-0.7l-0.8-3.7h14.9v0.3l-0.9,3.4
	c-0.1,0-0.2,0-0.3,0c-0.7,0-1.4,0.2-2,0.5C21.3,19.7,20.8,20.3,20.4,20.9z M23.9,25.3c-0.5,0-1-0.1-1.4-0.4
	c-0.4-0.3-0.7-0.6-0.9-1.1s-0.2-0.9-0.1-1.4c0.1-0.5,0.3-0.9,0.7-1.2c0.3-0.3,0.8-0.6,1.2-0.7c0.5-0.1,1,0,1.4,0.1
	c0.4,0.2,0.8,0.5,1.1,0.9c0.3,0.4,0.4,0.9,0.4,1.4c0,0.6-0.3,1.3-0.7,1.7C25.2,25.1,24.6,25.3,23.9,25.3z"/>
</svg>
