<?xml version="1.0" encoding="utf-8"?>
<!-- Generator: Adobe Illustrator 23.0.5, SVG Export Plug-In . SVG Version: 6.00 Build 0)  -->
<svg version="1.1" id="Layer_1" xmlns="http://www.w3.org/2000/svg" xmlns:xlink="http://www.w3.org/1999/xlink" x="0px" y="0px"
	 viewBox="0 0 21 21" style="enable-background:new 0 0 21 21;" xml:space="preserve">
<style type="text/css">
	.st0{fill:#292929;}
	.st1{fill:none;}
</style>
<path class="st0" d="M10.78,12.47c-0.26-0.36-0.52-0.72-0.78-1.08c-0.62-0.86-1.25-1.72-1.87-2.58c-0.75-1.04-1.5-2.08-2.26-3.12
	C5.22,4.8,4.57,3.9,3.92,3C3.7,2.7,3.49,2.41,3.27,2.11c-0.1-0.14-0.2-0.29-0.31-0.42c0-0.01-0.01-0.01-0.01-0.02
	C2.86,1.83,2.77,1.99,2.68,2.15h0.42h1.14h1.68h2.05h2.26h2.27h2.11h1.79h1.29c0.2,0,0.41,0.01,0.61,0h0.03
	c-0.09-0.16-0.18-0.32-0.28-0.48c-0.26,0.36-0.52,0.72-0.78,1.08c-0.62,0.86-1.25,1.72-1.87,2.58c-0.75,1.04-1.5,2.08-2.26,3.12
	c-0.65,0.9-1.3,1.79-1.95,2.69c-0.32,0.44-0.65,0.86-0.95,1.31c0,0.01-0.01,0.01-0.01,0.02c-0.1,0.14-0.02,0.35,0.11,0.43
	c0.16,0.09,0.33,0.03,0.43-0.11c0.26-0.36,0.52-0.72,0.78-1.08c0.62-0.86,1.25-1.72,1.87-2.58c0.75-1.04,1.5-2.08,2.26-3.12
	c0.65-0.9,1.3-1.79,1.95-2.69c0.32-0.44,0.65-0.86,0.95-1.31C18.59,2,18.6,2,18.6,1.99c0.15-0.2-0.05-0.48-0.28-0.48h-0.42h-1.14
	h-1.68h-2.05h-2.26H8.51H6.39H4.6H3.31c-0.2,0-0.41,0-0.61,0H2.67c-0.22,0-0.42,0.28-0.28,0.48c0.26,0.36,0.52,0.72,0.78,1.08
	c0.62,0.86,1.25,1.72,1.87,2.58c0.75,1.04,1.5,2.08,2.26,3.12c0.65,0.9,1.3,1.79,1.95,2.69c0.32,0.44,0.63,0.88,0.95,1.31
	c0,0.01,0.01,0.01,0.01,0.02c0.1,0.14,0.28,0.21,0.43,0.11C10.8,12.82,10.88,12.61,10.78,12.47L10.78,12.47z"/>
<path class="st0" d="M10.82,19.19v-2.23v-3.52v-0.81c0-0.17-0.15-0.33-0.32-0.32c-0.17,0.01-0.32,0.14-0.32,0.32v2.23v3.52v0.81
	c0,0.17,0.15,0.33,0.32,0.32C10.67,19.5,10.82,19.37,10.82,19.19z"/>
<path class="st0" d="M7.5,19.51h2.03h3.23h0.74c0.17,0,0.33-0.15,0.32-0.32c-0.01-0.17-0.14-0.32-0.32-0.32h-2.03H8.24H7.5
	c-0.17,0-0.33,0.15-0.32,0.32C7.19,19.36,7.33,19.51,7.5,19.51z"/>
<rect x="2.15" y="1.29" class="st1" width="16.7" height="18.42"/>
</svg>
