<?xml version="1.0" encoding="utf-8"?>
<!-- Generator: Adobe Illustrator 23.0.5, SVG Export Plug-In . SVG Version: 6.00 Build 0)  -->
<svg version="1.1" id="Layer_1" xmlns="http://www.w3.org/2000/svg" xmlns:xlink="http://www.w3.org/1999/xlink" x="0px" y="0px"
	 viewBox="0 0 21 21" style="enable-background:new 0 0 21 21;" xml:space="preserve">
<style type="text/css">
	.st0{fill:none;}
	.st1{fill:#292929;}
</style>
<rect x="2.2" y="1.3" class="st0" width="16.7" height="18.4"/>
<path class="st1" d="M18.8,9.5L18.8,9.5l0-5.8c0-1.2-1-2.2-2.2-2.2h-1.4c-1.2,0-2.2,1-2.2,2.2v1.2h-0.3c-0.1,0-0.1,0-0.2,0.1
	l-0.2,0.2c-0.4,0.5-0.6,1.1-0.7,1.7c-0.4,0-0.7,0.4-0.7,0.8v0.5c0,0.1,0.1,0.2,0.2,0.2l0,0h5.3c0.1,0,0.2-0.1,0.2-0.2l0,0V7.6
	c0-0.4-0.3-0.8-0.7-0.8c-0.1-0.6-0.3-1.2-0.7-1.7L15,4.9c0-0.1-0.1-0.1-0.2-0.1h-0.3V3.6c0-0.3,0.3-0.6,0.6-0.6h1.4
	c0.3,0,0.6,0.3,0.6,0.6v5.8H9.5v0c0-0.7-0.6-1.3-1.3-1.3c-0.4,0-0.7,0.1-0.9,0.4C7.1,8.5,6.9,8.4,6.6,8.4C6.3,7.5,5.3,7,4.4,7.3
	C3.9,7.5,3.5,7.9,3.3,8.4c-0.6,0-1.1,0.5-1.1,1.1c-0.4,0-0.8,0.4-0.8,0.8v0.4c0,0.5,0.4,0.8,0.8,0.8h0v2.8c0,1.4,0.8,2.7,2,3.3
	L4,18.3c-0.2,0.5,0,1.1,0.5,1.3c0.5,0.2,1.1,0,1.3-0.5l0,0l0.4-1h8.6l0.4,1c0.2,0.5,0.8,0.7,1.3,0.5c0.5-0.2,0.7-0.8,0.5-1.2
	l-0.3-0.6c1.2-0.6,2-1.9,2-3.3v-2.8h0c0.5,0,0.8-0.4,0.8-0.8v-0.4C19.6,9.8,19.2,9.5,18.8,9.5z M16.1,7.7v0.3h-4.8V7.7
	c0-0.2,0.1-0.3,0.3-0.3h4.2C16,7.3,16.1,7.5,16.1,7.7z M14.8,5.5c0.3,0.4,0.5,0.9,0.6,1.4H12c0.1-0.5,0.2-1,0.6-1.4l0.1-0.1h2
	L14.8,5.5z M16.5,2.5h-1.4C14.5,2.5,14,3,14,3.6v1.2h-0.6V3.6c0-1,0.8-1.7,1.7-1.7h1.4c1,0,1.7,0.8,1.7,1.7v5.8h-0.6V3.6
	C17.6,3,17.1,2.5,16.5,2.5z M3.4,8.9c0,0,0.1,0,0.1,0c0.1,0,0.3-0.1,0.3-0.2c0.1-0.7,0.8-1.1,1.5-1c0.5,0.1,0.9,0.5,1,1
	c0,0.1,0.2,0.2,0.3,0.2c0,0,0,0,0,0c0.2-0.1,0.5,0,0.7,0.2c0.1,0.1,0.3,0.1,0.3,0c0,0,0,0,0-0.1c0.2-0.4,0.7-0.5,1.1-0.3
	C8.9,8.9,9,9.2,9,9.5v0H2.7C2.7,9.1,3,8.9,3.4,8.9z M5.3,18.8c-0.1,0.2-0.2,0.3-0.4,0.3c-0.3,0-0.5-0.2-0.5-0.5c0-0.1,0-0.1,0-0.2
	l0.3-0.6c0,0,0,0,0,0c0,0,0.1,0,0.1,0c0,0,0,0,0.1,0c0.1,0,0.1,0,0.2,0c0,0,0,0,0.1,0c0.1,0,0.1,0,0.2,0c0,0,0.1,0,0.1,0
	c0.1,0,0.1,0,0.1,0c0,0,0,0,0,0L5.3,18.8z M16.3,17.8l0.3,0.6c0.1,0.2,0,0.5-0.2,0.6c-0.1,0-0.1,0-0.2,0c-0.2,0-0.4-0.1-0.4-0.3
	L15.3,18c0,0,0,0,0,0c0.1,0,0.1,0,0.1,0c0,0,0.1,0,0.1,0c0.1,0,0.1,0,0.2,0c0,0,0,0,0.1,0c0.1,0,0.1,0,0.2,0c0,0,0,0,0.1,0
	C16.1,17.9,16.2,17.9,16.3,17.8C16.2,17.8,16.2,17.8,16.3,17.8L16.3,17.8z M18.2,14.4c0,1.3-0.8,2.4-2,2.9c-0.1,0-0.2,0.1-0.3,0.1
	c0,0,0,0,0,0c-0.1,0-0.2,0.1-0.3,0.1c0,0,0,0,0,0c-0.1,0-0.2,0-0.3,0c0,0,0,0,0,0c-0.1,0-0.2,0-0.3,0H5.9c-0.1,0-0.2,0-0.3,0h0
	c-0.1,0-0.2,0-0.3,0c0,0,0,0,0,0c-0.1,0-0.2,0-0.3-0.1c0,0,0,0,0,0c-0.1,0-0.2-0.1-0.3-0.1c-1.2-0.5-2-1.6-2-2.9v-2.8h15.5
	L18.2,14.4z M19.1,10.7c0,0.2-0.1,0.3-0.3,0.3H2.2c-0.2,0-0.3-0.1-0.3-0.3v-0.4c0-0.2,0.1-0.3,0.3-0.3h16.5c0.2,0,0.3,0.1,0.3,0.3
	V10.7z"/>
</svg>
