<?xml version="1.0" encoding="utf-8"?>
<!-- Generator: Adobe Illustrator 17.0.0, SVG Export Plug-In . SVG Version: 6.00 Build 0)  -->
<!DOCTYPE svg PUBLIC "-//W3C//DTD SVG 1.1//EN" "http://www.w3.org/Graphics/SVG/1.1/DTD/svg11.dtd">
<svg version="1.1" id="Layer_1" xmlns="http://www.w3.org/2000/svg" xmlns:xlink="http://www.w3.org/1999/xlink" x="0px" y="0px"
	 width="24px" height="24px" viewBox="0 0 24 24" enable-background="new 0 0 24 24" xml:space="preserve">
<path fill="#292929" d="M21.881,10.711L21.881,10.711v-6.87c0-1.421-1.184-2.606-2.606-2.606h-1.658
	c-1.421,0-2.606,1.184-2.606,2.606v1.421h-0.355c-0.118,0-0.118,0-0.237,0.118l-0.237,0.237c-0.474,0.592-0.711,1.303-0.829,2.014
	c-0.474,0-0.829,0.474-0.829,0.948v0.592c0,0.118,0.118,0.237,0.237,0.237l0,0h6.278c0.118,0,0.237-0.118,0.237-0.237l0,0V8.461
	c0-0.474-0.355-0.948-0.829-0.948c-0.118-0.711-0.355-1.421-0.829-2.014L17.38,5.263c0-0.118-0.118-0.118-0.237-0.118h-0.355V3.723
	c0-0.355,0.355-0.711,0.711-0.711h1.658c0.355,0,0.711,0.355,0.711,0.711v6.87h-9.002l0,0c0-0.829-0.711-1.54-1.54-1.54
	c-0.474,0-0.829,0.118-1.066,0.474c-0.237,0-0.474-0.118-0.829-0.118C7.075,8.342,5.891,7.75,4.825,8.105
	C4.233,8.342,3.759,8.816,3.522,9.408c-0.711,0-1.303,0.592-1.303,1.303c-0.474,0-0.948,0.474-0.948,0.948v0.474
	c0,0.592,0.474,0.948,0.948,0.948l0,0v3.316c0,1.658,0.948,3.198,2.369,3.909l-0.237,0.829c-0.237,0.592,0,1.303,0.592,1.54
	s1.303,0,1.54-0.592l0,0l0.474-1.184h10.186l0.474,1.184c0.237,0.592,0.948,0.829,1.54,0.592c0.592-0.237,0.829-0.948,0.592-1.421
	l-0.355-0.711c1.421-0.711,2.369-2.25,2.369-3.909v-3.316l0,0c0.592,0,0.948-0.474,0.948-0.948v-0.474
	C22.828,11.066,22.355,10.711,21.881,10.711z M18.683,8.579v0.355h-5.685V8.579c0-0.237,0.118-0.355,0.355-0.355h4.975
	C18.564,8.105,18.683,8.342,18.683,8.579z M17.143,5.973c0.355,0.474,0.592,1.066,0.711,1.658h-4.027
	c0.118-0.592,0.237-1.184,0.711-1.658l0.118-0.118h2.369L17.143,5.973z M19.157,2.42h-1.658c-0.711,0-1.303,0.592-1.303,1.303v1.421
	h-0.711V3.723c0-1.184,0.948-2.014,2.014-2.014h1.658c1.184,0,2.014,0.948,2.014,2.014v6.87H20.46v-6.87
	C20.46,3.012,19.867,2.42,19.157,2.42z M3.641,10h0.118c0.118,0,0.355-0.118,0.355-0.237c0.118-0.829,0.948-1.303,1.777-1.184
	c0.592,0.118,1.066,0.592,1.184,1.184C7.075,9.882,7.312,10,7.431,10l0,0c0.237-0.118,0.592,0,0.829,0.237
	c0.118,0.118,0.355,0.118,0.355,0c0,0,0,0,0-0.118c0.237-0.474,0.829-0.592,1.303-0.355c0.237,0.237,0.355,0.592,0.355,0.948l0,0
	H2.811C2.811,10.237,3.167,10,3.641,10z M5.891,21.726c-0.118,0.237-0.237,0.355-0.474,0.355c-0.355,0-0.592-0.237-0.592-0.592
	c0-0.118,0-0.118,0-0.237l0.355-0.711l0,0h0.118c0,0,0,0,0.118,0c0.118,0,0.118,0,0.237,0c0,0,0,0,0.118,0s0.118,0,0.237,0h0.118
	c0.118,0,0.118,0,0.118,0l0,0L5.891,21.726z M18.92,20.542l0.355,0.711c0.118,0.237,0,0.592-0.237,0.711c-0.118,0-0.118,0-0.237,0
	c-0.237,0-0.474-0.118-0.474-0.355l-0.592-0.829l0,0c0.118,0,0.118,0,0.118,0h0.118c0.118,0,0.118,0,0.237,0c0,0,0,0,0.118,0
	c0.118,0,0.118,0,0.237,0c0,0,0,0,0.118,0C18.683,20.66,18.801,20.66,18.92,20.542C18.801,20.542,18.801,20.542,18.92,20.542
	L18.92,20.542z M21.17,16.515c0,1.54-0.948,2.843-2.369,3.435c-0.118,0-0.237,0.118-0.355,0.118l0,0
	c-0.118,0-0.237,0.118-0.355,0.118l0,0c-0.118,0-0.237,0-0.355,0l0,0c-0.118,0-0.237,0-0.355,0H6.602c-0.118,0-0.237,0-0.355,0l0,0
	c-0.118,0-0.237,0-0.355,0l0,0c-0.118,0-0.237,0-0.355-0.118l0,0c-0.118,0-0.237-0.118-0.355-0.118
	c-1.421-0.592-2.369-1.895-2.369-3.435v-3.316H21.17L21.17,16.515z M22.236,12.132c0,0.237-0.118,0.355-0.355,0.355H2.219
	c-0.237,0-0.355-0.118-0.355-0.355v-0.474c0-0.237,0.118-0.355,0.355-0.355h19.543c0.237,0,0.355,0.118,0.355,0.355v0.474H22.236z"
	/>
</svg>
