<?xml version="1.0" encoding="utf-8"?>
<!-- Generator: Adobe Illustrator 23.0.5, SVG Export Plug-In . SVG Version: 6.00 Build 0)  -->
<svg version="1.1" id="Layer_1" xmlns="http://www.w3.org/2000/svg" xmlns:xlink="http://www.w3.org/1999/xlink" x="0px" y="0px"
	 viewBox="0 0 32 32" style="enable-background:new 0 0 32 32;" xml:space="preserve">
<style type="text/css">
	.st0{fill:none;stroke:#0E405D;stroke-linecap:round;stroke-linejoin:round;}
	.st1{fill:none;stroke:#0E405D;stroke-linejoin:round;}
	.st2{fill:none;stroke:#0E405D;}
</style>
<g>
	<path class="st0" d="M11,19.1l-4.4,9.4 M10.4,8.5c0,0,1.3-1.3,1.3-2.5c0-1.7-1.3-2.5-1.3-2.5 M15.4,8.5c0,0,1.3-1.3,1.3-2.5
		c0-1.7-1.3-2.5-1.3-2.5 M20.4,8.5c0,0,1.3-1.3,1.3-2.5c0-1.7-1.3-2.5-1.3-2.5"/>
	<path class="st1" d="M21,22.9H9.8"/>
	<path class="st0" d="M19.8,19.1l2.6,5.6 M23.5,28.5c0.5,0,1-0.2,1.3-0.5c0.4-0.4,0.5-0.8,0.5-1.3s-0.2-1-0.5-1.3
		c-0.4-0.4-0.8-0.5-1.3-0.5s-1,0.2-1.3,0.5c-0.4,0.4-0.5,0.8-0.5,1.3s0.2,1,0.5,1.3C22.5,28.3,23,28.5,23.5,28.5z"/>
	<path class="st2" d="M15.4,19.8c2.2,0,4.3-0.8,5.9-2.3c1.6-1.5,2.6-3.5,2.8-5.7c0-0.1,0-0.2,0-0.3c0-0.1-0.1-0.2-0.2-0.2
		c-0.1-0.1-0.1-0.1-0.2-0.2c-0.1,0-0.2-0.1-0.3-0.1h-16c-0.1,0-0.2,0-0.3,0.1c-0.1,0-0.2,0.1-0.2,0.2c-0.1,0.1-0.1,0.2-0.2,0.2
		c0,0.1,0,0.2,0,0.3c0.2,2.2,1.2,4.2,2.8,5.7C11.1,18.9,13.2,19.8,15.4,19.8L15.4,19.8z"/>
</g>
</svg>
