<?xml version="1.0" encoding="utf-8"?>
<!-- Generator: Adobe Illustrator 17.0.0, SVG Export Plug-In . SVG Version: 6.00 Build 0)  -->
<!DOCTYPE svg PUBLIC "-//W3C//DTD SVG 1.1//EN" "http://www.w3.org/Graphics/SVG/1.1/DTD/svg11.dtd">
<svg version="1.1" id="Layer_1" xmlns="http://www.w3.org/2000/svg" xmlns:xlink="http://www.w3.org/1999/xlink" x="0px" y="0px"
	 width="32px" height="32px" viewBox="0 0 32 32" enable-background="new 0 0 32 32" xml:space="preserve">
<g>
	<path fill="none" stroke="#FFFFFF" stroke-linecap="round" stroke-linejoin="round" d="M10.671,19.337L5.935,29.456 M10.025,7.926
		c0,0,1.399-1.399,1.399-2.691c0-1.83-1.399-2.691-1.399-2.691 M15.408,7.926c0,0,1.399-1.399,1.399-2.691
		c0-1.83-1.399-2.691-1.399-2.691 M20.79,7.926c0,0,1.399-1.399,1.399-2.691c0-1.83-1.399-2.691-1.399-2.691"/>
	<path fill="none" stroke="#FFFFFF" stroke-linejoin="round" d="M21.436,23.428H9.38"/>
	<path fill="none" stroke="#FFFFFF" stroke-linecap="round" stroke-linejoin="round" d="M20.145,19.337l2.799,6.028 M24.128,29.456
		c0.538,0,1.076-0.215,1.399-0.538c0.431-0.431,0.538-0.861,0.538-1.399s-0.215-1.076-0.538-1.399
		c-0.431-0.431-0.861-0.538-1.399-0.538c-0.538,0-1.076,0.215-1.399,0.538c-0.431,0.431-0.538,0.861-0.538,1.399
		s0.215,1.076,0.538,1.399S23.589,29.456,24.128,29.456z"/>
	<path fill="none" stroke="#FFFFFF" d="M15.408,20.091c2.368,0,4.629-0.861,6.351-2.476c1.722-1.615,2.799-3.768,3.014-6.136
		c0-0.108,0-0.215,0-0.323c0-0.108-0.108-0.215-0.215-0.215c-0.108-0.108-0.108-0.108-0.215-0.215c-0.108,0-0.215-0.108-0.323-0.108
		H6.796c-0.108,0-0.215,0-0.323,0.108c-0.108,0-0.215,0.108-0.215,0.215c-0.108,0.108-0.108,0.215-0.215,0.215
		c0,0.108,0,0.215,0,0.323C6.258,13.847,7.334,16,9.057,17.615C10.779,19.122,13.04,20.091,15.408,20.091L15.408,20.091z"/>
</g>
</svg>
