<?xml version="1.0" encoding="utf-8"?>
<!-- Generator: Adobe Illustrator 23.0.5, SVG Export Plug-In . SVG Version: 6.00 Build 0)  -->
<svg version="1.1" id="Layer_1" xmlns="http://www.w3.org/2000/svg" xmlns:xlink="http://www.w3.org/1999/xlink" x="0px" y="0px"
	 viewBox="0 0 32 32" style="enable-background:new 0 0 32 32;" xml:space="preserve">
<style type="text/css">
	.st0{fill:none;stroke:#0E405D;stroke-width:1.2;stroke-linecap:round;stroke-linejoin:round;}
</style>
<path class="st0" d="M3.5,25v-9c0-0.6,0.3-1.2,0.7-1.6C4.7,14,5.3,13.8,6,13.8h20c0.7,0,1.3,0.2,1.8,0.7c0.5,0.4,0.7,1,0.7,1.6v9
	 M6,13.8V9.3c0-0.6,0.3-1.2,0.7-1.6C7.2,7.2,7.8,7,8.5,7h15c0.7,0,1.3,0.2,1.8,0.7c0.5,0.4,0.7,1,0.7,1.6v4.5 M16,7v6.8 M3.5,22.8
	h25"/>
</svg>
