<?xml version="1.0" encoding="utf-8"?>
<!-- Generator: Adobe Illustrator 17.0.0, SVG Export Plug-In . SVG Version: 6.00 Build 0)  -->
<!DOCTYPE svg PUBLIC "-//W3C//DTD SVG 1.1//EN" "http://www.w3.org/Graphics/SVG/1.1/DTD/svg11.dtd">
<svg version="1.1" id="Layer_1" xmlns="http://www.w3.org/2000/svg" xmlns:xlink="http://www.w3.org/1999/xlink" x="0px" y="0px"
	 width="24px" height="24px" viewBox="0 0 24 24" enable-background="new 0 0 24 24" xml:space="preserve">
<g>
	<g>
		<g>
			<path fill="#292929" d="M20.358,8.902h-0.351V5.98c0-1.052-0.818-1.87-1.87-1.87H5.746c-1.052,0-1.87,0.818-1.87,1.87v2.922
				H3.525c-1.87,0-3.273,1.52-3.273,3.273v5.144h0.701v2.572h1.87v-2.572h18.353v2.572h1.87v-2.572h0.701v-5.144
				C23.631,10.422,22.229,8.902,20.358,8.902z M4.577,5.98c0-0.584,0.468-1.052,1.052-1.052h12.508c0.584,0,1.052,0.468,1.052,1.052
				v2.922h-1.052V7.499c0-0.584-0.468-1.052-1.052-1.052h-3.273c-0.584,0-1.052,0.468-1.052,1.052v1.52h-1.52v-1.52
				c0-0.584-0.468-1.052-1.052-1.052h-3.39c-0.584,0-1.052,0.468-1.052,1.052v1.52H4.577V5.98L4.577,5.98z M17.436,7.499v1.52
				h-4.091v-1.52c0-0.234,0.117-0.351,0.351-0.351h3.273C17.319,7.149,17.436,7.266,17.436,7.499z M10.422,7.499v1.52H6.447v-1.52
				c0-0.234,0.117-0.351,0.351-0.351h3.273C10.305,7.149,10.422,7.266,10.422,7.499z M2.005,19.189H1.654v-1.87h0.351V19.189z
				 M22.229,19.189h-0.351v-1.87h0.351V19.189z M22.93,16.618H0.953v-1.87H22.93V16.618z M22.93,14.046H0.953v-1.87
				c0-1.403,1.169-2.572,2.572-2.572h16.833c1.403,0,2.572,1.169,2.572,2.572C22.93,12.175,22.93,14.046,22.93,14.046z"/>
		</g>
	</g>
</g>
</svg>
