<?xml version="1.0" encoding="utf-8"?>
<!-- Generator: Adobe Illustrator 23.0.5, SVG Export Plug-In . SVG Version: 6.00 Build 0)  -->
<svg version="1.1" id="Layer_1" xmlns="http://www.w3.org/2000/svg" xmlns:xlink="http://www.w3.org/1999/xlink" x="0px" y="0px"
	 viewBox="0 0 21 21" style="enable-background:new 0 0 21 21;" xml:space="preserve">
<style type="text/css">
	.st0{fill:#292929;}
	.st1{fill:none;}
</style>
<g>
	<g>
		<polygon class="st0" points="19.28,7.59 19.28,7.59 19.28,7.59 		"/>
		<polygon class="st0" points="18.45,17.66 18.45,17.66 18.45,17.66 		"/>
		<path class="st0" d="M17.68,18.01c0.19,0.2,0.45,0.31,0.73,0.31c0.03,0,0.06,0,0.09,0l0,0c0.52-0.04,0.94-0.51,0.94-1.07l0-8.72
			c0-0.16,0.09-0.3,0.22-0.4l0,0c0.57-0.41,0.91-1.07,0.91-1.76c0-0.54-0.21-1.47-0.6-2.26c-0.19-0.4-0.43-0.75-0.69-1.01
			c-0.27-0.25-0.56-0.4-0.87-0.4c-0.45,0-0.86,0.32-1.21,0.8c-0.34,0.49-0.6,1.12-0.77,1.71l-0.05,0.17l-0.12-0.13
			c-1.47-1.61-3.57-2.55-5.77-2.55c-2.55,0-4.87,1.21-6.33,3.23L4,6.16v-0.3V2.97c0-0.15-0.13-0.28-0.28-0.28
			c-0.15,0-0.28,0.13-0.28,0.28V5.6v0.1h-0.1H2.59h-0.1V5.6V2.97c0-0.15-0.13-0.28-0.28-0.28c-0.15,0-0.28,0.13-0.28,0.28V5.6v0.1
			h-0.1H1.08h-0.1V5.6V2.97c0-0.15-0.13-0.28-0.28-0.28c-0.15,0-0.28,0.13-0.28,0.28v4.44c0,0.35,0.1,0.7,0.3,0.99l0,0L1.1,8.96
			c0.05,0.08,0.08,0.17,0.08,0.26v8.06c0,0.57,0.46,1.03,1.03,1.03s1.03-0.46,1.03-1.03v-3.43l0.18-0.04
			c1.25,2.66,3.94,4.51,7.07,4.51c2.79,0,5.31-1.47,6.7-3.79l0.18-0.3v0.35v2.71C17.38,17.56,17.49,17.82,17.68,18.01L17.68,18.01
			 M16.83,6.06c0,0,0,0,0-0.02h0c0.07-0.54,0.29-1.23,0.57-1.79c0.14-0.28,0.3-0.53,0.47-0.71c0.16-0.18,0.35-0.31,0.55-0.31
			c0.22,0,0.42,0.16,0.6,0.37c0.18,0.21,0.35,0.51,0.5,0.82c0.3,0.64,0.51,1.4,0.51,1.92c0,0.5-0.24,0.97-0.64,1.27l0,0.01
			l-0.04,0.03c-0.29,0.21-0.45,0.52-0.45,0.85v8.72c0,0.25-0.18,0.49-0.43,0.51l0,0c0,0,0,0,0,0s0,0,0,0l0,0
			c-0.14,0.01-0.28-0.04-0.38-0.14l0,0c0,0,0,0,0,0s0,0,0,0l0,0c-0.09-0.09-0.14-0.2-0.14-0.33V8.52c0-0.33-0.16-0.64-0.45-0.85v0
			c-0.42-0.3-0.68-0.79-0.68-1.31C16.81,6.27,16.82,6.17,16.83,6.06L16.83,6.06 M3.7,8.4L3.7,8.4C3.9,8.1,4,7.76,4,7.41v-0.1V7.29
			l0.01-0.02c1.24-2.48,3.72-4.02,6.49-4.02c2.24,0,4.38,1.05,5.74,2.82l0.02,0.03l0,0.04c-0.01,0.08-0.01,0.15-0.01,0.22
			c0,0.7,0.34,1.36,0.91,1.76c0.13,0.1,0.22,0.24,0.22,0.4v4.27v0.02l-0.01,0.02c-0.99,2.95-3.75,4.94-6.87,4.94h-0.17l0-0.01
			c-3.92-0.09-7.09-3.3-7.09-7.25V9.22c0-0.09,0.03-0.18,0.08-0.26l0,0L3.7,8.4z M0.99,7.41V6.36v-0.1h0.1h2.26h0.1v0.1v1.05
			c0,0.24-0.07,0.48-0.21,0.68L2.86,8.65l0,0C2.75,8.82,2.69,9.02,2.69,9.22v7.95l0,0v0.11c0,0.26-0.21,0.47-0.47,0.47
			c-0.26,0-0.47-0.21-0.47-0.47V9.22c0-0.2-0.06-0.4-0.17-0.57l0,0L1.19,8.09C1.06,7.89,0.99,7.65,0.99,7.41z"/>
		<polygon class="st0" points="2.78,8.59 2.78,8.59 2.78,8.59 		"/>
	</g>
	<path class="st0" d="M10.5,4.95c-3.06,0-5.55,2.49-5.55,5.55s2.49,5.55,5.55,5.55s5.55-2.49,5.55-5.55S13.56,4.95,10.5,4.95z
		 M10.5,15.49c-2.75,0-4.99-2.24-4.99-4.99c0-2.75,2.24-4.99,4.99-4.99c2.75,0,4.99,2.24,4.99,4.99
		C15.49,13.25,13.25,15.49,10.5,15.49z"/>
	<rect x="0.23" y="2.49" class="st1" width="20.54" height="16.01"/>
</g>
</svg>
