<?xml version="1.0" encoding="utf-8"?>
<!-- Generator: Adobe Illustrator 17.0.0, SVG Export Plug-In . SVG Version: 6.00 Build 0)  -->
<!DOCTYPE svg PUBLIC "-//W3C//DTD SVG 1.1//EN" "http://www.w3.org/Graphics/SVG/1.1/DTD/svg11.dtd">
<svg version="1.1" id="Layer_1" xmlns="http://www.w3.org/2000/svg" xmlns:xlink="http://www.w3.org/1999/xlink" x="0px" y="0px"
	 width="32px" height="32px" viewBox="0 0 32 32" enable-background="new 0 0 32 32" xml:space="preserve">
<g id="Layer_1_1_" display="none">
	<g display="inline">
		<g>
			<g>
				<path fill="#0E405D" d="M28.961,28.961v-1.788h-0.894v-1.788h-1.011l-1.594-5.181c0.228-0.3,0.37-0.671,0.37-1.077
					c0-0.427-0.156-0.814-0.407-1.121l1.796-11.673L17.063,2.178l-0.082-0.033h-1.963L4.778,6.334l1.796,11.673
					c-0.25,0.307-0.407,0.695-0.407,1.121c0,0.406,0.141,0.776,0.37,1.077l-1.594,5.181H3.932v1.788H3.039v1.788H2.145v0.894h11.621
					v-0.894h-0.894v-1.788h-0.894v-1.788h-1.011l-1.594-5.181c0.228-0.3,0.37-0.671,0.37-1.077c0-0.436-0.163-0.831-0.424-1.142
					l0.834-9.585h2.534L16,11.716l3.314-3.314h2.534l0.834,9.585c-0.261,0.311-0.424,0.706-0.424,1.142
					c0,0.406,0.141,0.776,0.37,1.077l-1.594,5.181h-1.011v1.788h-0.894v1.788h-0.894v0.894h11.621v-0.894h-0.895V28.961z
					 M11.977,28.961H3.932v-0.894h8.045V28.961z M11.084,26.28v0.894H4.826V26.28H11.084z M10.031,25.386H5.878l1.415-4.6
					c0.205,0.082,0.427,0.13,0.661,0.13c0.234,0,0.456-0.048,0.661-0.13L10.031,25.386z M7.061,19.129
					c0-0.493,0.401-0.894,0.894-0.894s0.894,0.401,0.894,0.894s-0.401,0.894-0.894,0.894C7.462,20.023,7.061,19.622,7.061,19.129z
					 M19.244,7.208L16,10.452l-3.244-3.244c-0.214-0.214-0.332-0.498-0.332-0.801c0-0.624,0.509-1.133,1.133-1.133
					c0.303,0,0.587,0.118,0.801,0.332L16,7.246l1.641-1.641c0.214-0.214,0.498-0.332,0.801-0.332c0.624,0,1.133,0.509,1.133,1.133
					C19.576,6.709,19.458,6.994,19.244,7.208z M22.667,7.508h-2.525c0.211-0.325,0.327-0.704,0.327-1.102
					c0-1.118-0.909-2.027-2.027-2.027c-0.542,0-1.05,0.211-1.433,0.594L16,5.982l-1.009-1.009c-0.383-0.383-0.892-0.594-1.433-0.594
					c-1.118,0-2.027,0.909-2.027,2.027c0,0.397,0.116,0.776,0.327,1.102H9.333l-0.862,9.918c-0.164-0.05-0.335-0.085-0.516-0.085
					c-0.198,0-0.386,0.04-0.564,0.1L5.768,6.894l9.425-3.856h1.612l9.425,3.856L24.608,17.44c-0.178-0.059-0.366-0.1-0.564-0.1
					c-0.181,0-0.351,0.035-0.516,0.085L22.667,7.508z M24.939,19.129c0,0.493-0.401,0.894-0.894,0.894s-0.894-0.401-0.894-0.894
					s0.401-0.894,0.894-0.894S24.939,18.636,24.939,19.129z M23.384,20.786c0.205,0.082,0.427,0.13,0.661,0.13
					s0.456-0.048,0.661-0.13l1.415,4.6h-4.153L23.384,20.786z M20.916,26.28h6.257v0.894h-6.257V26.28z M28.068,28.961h-8.045
					v-0.894h8.045V28.961z"/>
				
					<rect x="11.531" y="9.296" transform="matrix(-0.6 -0.8 0.8 -0.6 10.8325 26.243)" fill="#0E405D" width="0.893" height="2.235"/>
				
					<rect x="18.905" y="9.967" transform="matrix(0.8 0.6 -0.6 0.8 10.2524 -9.9308)" fill="#0E405D" width="2.235" height="0.893"/>
			</g>
		</g>
	</g>
</g>
<g id="Layer_3" display="none">
</g>
<g id="Layer_2" display="none">
	<g display="inline">
		<g>
			<defs>
				<rect id="SVGID_1_" x="1.729" y="1.376" width="27.926" height="27.938"/>
			</defs>
			<clipPath id="SVGID_2_">
				<use xlink:href="#SVGID_1_"  overflow="visible"/>
			</clipPath>
			<g clip-path="url(#SVGID_2_)">
				<g>
					<path fill="#0E405D" d="M29.113,17.232l-5.615-3.526c0.021-0.088,0.033-0.18,0.033-0.275v-4.24
						c0.527,0.31,1.201,0.183,1.544-0.333c0.356-0.534,0.238-1.247-0.297-1.603l-8.492-5.701c-0.416-0.238-0.891-0.238-1.307,0
						L6.487,7.255C5.953,7.612,5.834,8.324,6.19,8.859C6.428,9.215,6.784,9.393,7.2,9.393c0.178,0,0.416-0.059,0.594-0.178
						l0.059-0.04v4.256c0,0.1,0.013,0.197,0.036,0.289l-5.618,3.511c-0.534,0.356-0.713,1.069-0.356,1.603
						c0.356,0.534,1.069,0.713,1.603,0.356l0.95-0.593V28.1c0,0.653,0.534,1.188,1.188,1.188h7.008h6.057h7.008
						c0.653,0,1.128-0.534,1.188-1.188v-9.501l0.95,0.593c0.178,0.119,0.356,0.178,0.594,0.178c0.416,0,0.772-0.178,1.01-0.534
						C29.826,18.301,29.648,17.588,29.113,17.232z M10.228,7.586l5.464-3.656l5.464,3.67v4.636l-4.81-3.02
						c-0.416-0.238-0.891-0.238-1.247,0l-4.87,3.044V7.586H10.228z M13.792,26.972V21.33h3.801v5.642H13.792L13.792,26.972z
						 M24.541,26.972h-4.573v-6.829c0-0.653-0.534-1.188-1.188-1.188h-6.117c-0.653,0-1.188,0.534-1.188,1.188v6.829H6.843v-9.856
						l8.849-5.525l8.849,5.525V26.972L24.541,26.972z"/>
					<path fill="#FFFFFF" d="M25.728,29.943H5.655c-1.016,0-1.842-0.826-1.842-1.842v-8.32c-0.263,0.162-0.581,0.252-0.907,0.252
						c-0.614,0-1.189-0.311-1.537-0.833c-0.272-0.407-0.36-0.897-0.249-1.379c0.107-0.463,0.386-0.865,0.787-1.132l5.291-3.308
						v-3.332c-0.647,0-1.198-0.294-1.553-0.826C5.378,8.82,5.276,8.342,5.36,7.874c0.086-0.48,0.358-0.893,0.764-1.164l8.49-5.7
						c0.686-0.396,1.391-0.37,1.996-0.025l8.533,5.726c0.82,0.547,1.034,1.673,0.477,2.51c-0.321,0.482-0.855,0.775-1.434,0.791
						v3.353l5.275,3.313c0.416,0.276,0.696,0.679,0.802,1.142c0.112,0.482,0.023,0.972-0.249,1.379
						c-0.354,0.533-0.906,0.826-1.554,0.826c-0.332,0-0.616-0.078-0.889-0.245v8.32C27.475,29.176,26.684,29.943,25.728,29.943z
						 M5.123,17.419V28.1c0,0.294,0.239,0.533,0.533,0.533h20.073c0.331,0,0.51-0.307,0.535-0.593l-0.003-10.622l1.952,1.217
						c0.249,0.167,0.543,0.09,0.712-0.163c0.09-0.135,0.084-0.269,0.063-0.358c-0.032-0.136-0.116-0.257-0.238-0.338l-5.999-3.767
						l0.11-0.458c0.01-0.041,0.015-0.082,0.015-0.121V8.046l0.987,0.581c0.23,0.135,0.528,0.078,0.667-0.132
						c0.16-0.24,0.109-0.545-0.115-0.695l-8.494-5.703C15.789,2.026,15.517,2,15.304,2.123L6.852,7.799
						C6.713,7.892,6.665,8.017,6.649,8.106c-0.024,0.133,0.006,0.271,0.086,0.39C6.845,8.662,6.993,8.739,7.2,8.739
						c0.061,0,0.171-0.028,0.231-0.069l1.018-0.677l0.059,1.182v4.256c0,0.044,0.005,0.087,0.016,0.128l0.117,0.463l-6.023,3.765
						c-0.105,0.071-0.19,0.191-0.221,0.327c-0.02,0.09-0.026,0.223,0.062,0.357c0.156,0.234,0.475,0.321,0.696,0.175L5.123,17.419z
						 M25.195,27.626h-5.882v-7.484c0-0.294-0.24-0.533-0.534-0.533h-6.116c-0.294,0-0.533,0.239-0.533,0.533v7.484H6.189V16.752
						l9.503-5.934l9.503,5.934V27.626z M20.623,26.317h3.263v-8.838l-8.194-5.116l-8.194,5.116v8.838h3.323v-6.174
						c0-1.016,0.827-1.842,1.842-1.842h6.116c1.016,0,1.843,0.826,1.843,1.842L20.623,26.317L20.623,26.317z M18.247,27.626h-5.11
						v-6.951h5.11V27.626z M14.446,26.317h2.491v-4.332h-2.491V26.317z M9.573,13.44V7.236l6.119-4.095L21.81,7.25v6.169
						l-5.814-3.65c-0.152-0.084-0.388-0.107-0.535-0.01L9.573,13.44z M10.883,7.935v3.142l3.868-2.418
						c0.522-0.348,1.3-0.366,1.918-0.013l3.832,2.405V7.949l-4.81-3.231L10.883,7.935z"/>
				</g>
			</g>
		</g>
	</g>
</g>
<path fill="#FFFFFF" stroke="#0E3F5C" stroke-width="0.5" d="M28.232,4.472c-0.703,0-1.335,0.467-1.866,1.186
	c-0.528,0.715-0.932,1.651-1.184,2.519l-0.074,0.255L24.926,8.24C22.659,5.865,19.407,4.472,16,4.472
	c-3.952,0-7.536,1.79-9.78,4.768L5.946,9.603V9.148V4.877c0-0.216-0.186-0.404-0.43-0.404c-0.245,0-0.43,0.188-0.43,0.404V8.77
	v0.152H4.934H3.768H3.616V8.77V4.877c0-0.216-0.186-0.404-0.43-0.404s-0.43,0.188-0.43,0.404V8.77v0.152H2.603H1.438H1.286V8.77
	V4.877c0-0.216-0.186-0.404-0.43-0.404s-0.43,0.188-0.43,0.404v6.557c0,0.518,0.159,1.022,0.462,1.455 M28.232,4.472L28.232,4.472
	c0.485,0,0.935,0.221,1.345,0.597c0.41,0.376,0.77,0.9,1.068,1.482c0.598,1.168,0.928,2.535,0.928,3.331
	c0,1.022-0.523,1.993-1.404,2.595l0,0c-0.208,0.143-0.343,0.357-0.343,0.597v12.875c0,0.816-0.639,1.508-1.455,1.574
	c-0.047,0.004-0.092,0.005-0.138,0.005c-0.431,0-0.837-0.162-1.133-0.453l0,0l-0.003-0.003c-0.293-0.272-0.461-0.652-0.461-1.061
	v-3.997v-0.53l-0.281,0.448c-2.144,3.42-6.033,5.595-10.355,5.595c-4.836,0-9.002-2.731-10.93-6.653l-0.289,0.067v5.069
	c0,0.83-0.709,1.516-1.595,1.516c-0.887,0-1.595-0.687-1.595-1.516V14.113c0-0.142-0.044-0.279-0.125-0.396l0,0l-0.579-0.828
	 M3.921,25.841v0.171c0,0.398-0.336,0.708-0.735,0.708s-0.735-0.311-0.735-0.708V14.113c0-0.299-0.091-0.588-0.266-0.838l0,0
	l-0.578-0.828l0,0c-0.21-0.3-0.322-0.651-0.322-1.014V9.882V9.73h0.152h3.494h0.152v0.152v1.551c0,0.362-0.112,0.712-0.321,1.013
	l0,0l-0.578,0.828L3.921,25.841z M3.921,25.841L3.921,25.841 M3.921,25.841L3.921,25.841 M29.733,11.777v-0.002 M29.733,11.777
	v-0.002 M25.785,9.427l-0.001,0.009l-0.001,0.007l-0.001,0.005l0,0l-0.001,0.009c-0.017,0.145-0.03,0.29-0.03,0.424
	c0,0.769,0.395,1.495,1.049,1.942c0.448,0.306,0.698,0.763,0.698,1.25v12.938c0,0.19,0.076,0.366,0.215,0.496
	c0.16,0.155,0.368,0.231,0.588,0.21c0.379-0.031,0.667-0.384,0.667-0.768V13.074c0-0.487,0.25-0.944,0.698-1.25l0.068-0.049
	c0.615-0.45,0.982-1.152,0.982-1.894c0-0.767-0.331-1.903-0.787-2.843c-0.229-0.472-0.495-0.903-0.775-1.22
	c-0.274-0.309-0.589-0.54-0.92-0.54c-0.302,0-0.591,0.192-0.843,0.456c-0.258,0.269-0.504,0.638-0.722,1.05
	C26.229,7.609,25.887,8.63,25.785,9.427 M4.781,16.001c0,5.832,4.895,10.58,10.951,10.717l-0.002,0.003H16
	c4.83,0,9.09-2.924,10.628-7.292l0.008-0.024v-0.026v-6.305c0-0.239-0.136-0.455-0.344-0.597l0,0
	c-0.881-0.602-1.403-1.573-1.403-2.595c0-0.099,0.005-0.208,0.015-0.325l0.005-0.061l-0.039-0.048
	c-2.107-2.614-5.405-4.168-8.872-4.168c-4.289,0-8.123,2.271-10.037,5.937l-0.016,0.033v0.038v0.146
	c0,0.518-0.159,1.022-0.462,1.455l-0.578,0.828l0,0c-0.081,0.117-0.125,0.254-0.125,0.396V16.001z"/>
<path fill="#FFFFFF" stroke="#0E3F5C" stroke-width="0.5" d="M7.415,16c0-4.51,3.844-8.191,8.585-8.191S24.585,11.49,24.585,16
	S20.74,24.191,16,24.191S7.415,20.51,7.415,16z M8.276,16c0,4.078,3.472,7.382,7.724,7.382s7.724-3.306,7.724-7.382
	c0-4.078-3.471-7.383-7.724-7.383S8.276,11.922,8.276,16z"/>
</svg>
