<?xml version="1.0" encoding="utf-8"?>
<!-- Generator: Adobe Illustrator 17.0.0, SVG Export Plug-In . SVG Version: 6.00 Build 0)  -->
<!DOCTYPE svg PUBLIC "-//W3C//DTD SVG 1.1//EN" "http://www.w3.org/Graphics/SVG/1.1/DTD/svg11.dtd">
<svg version="1.1" id="Layer_1" xmlns="http://www.w3.org/2000/svg" xmlns:xlink="http://www.w3.org/1999/xlink" x="0px" y="0px"
	 width="21px" height="21px" viewBox="0 0 21 21" enable-background="new 0 0 21 21" xml:space="preserve">
<g>
	<g>
		<g>
			<path fill="#292929" d="M5.165,15.111c0.189,0.066,0.34,0.218,0.404,0.408c0.046,0.136,0.173,0.222,0.309,0.222
				c0.035,0,0.07-0.006,0.105-0.018c0.171-0.058,0.263-0.243,0.205-0.414c-0.128-0.379-0.43-0.684-0.809-0.816
				c-0.171-0.059-0.356,0.031-0.416,0.202C4.904,14.865,4.995,15.051,5.165,15.111z"/>
			<path fill="#292929" d="M10.173,10.5c0-1.441-1.173-2.614-2.614-2.614S4.945,9.059,4.945,10.5s1.173,2.614,2.614,2.614
				S10.173,11.941,10.173,10.5z M5.599,10.5c0-1.081,0.88-1.96,1.96-1.96c1.081,0,1.96,0.88,1.96,1.96c0,1.081-0.879,1.96-1.96,1.96
				C6.479,12.46,5.599,11.581,5.599,10.5z"/>
			<path fill="#292929" d="M2.005,15.728c0,1.441,1.173,2.614,2.614,2.614s2.614-1.173,2.614-2.614c0-1.441-1.173-2.614-2.614-2.614
				C3.178,13.114,2.005,14.287,2.005,15.728z M6.579,15.728c0,1.081-0.879,1.96-1.96,1.96c-1.081,0-1.96-0.879-1.96-1.96
				c0-1.081,0.88-1.96,1.96-1.96C5.7,13.767,6.579,14.647,6.579,15.728z"/>
			<path fill="#292929" d="M19.868,13.933c-0.076-0.147-1.671-2.981-2.996-5.332l-1.989-3.528c-0.521-0.925-0.769-1.364-0.915-1.572
				l0.021-0.01c-0.675-1.319-2.012-2.138-3.49-2.138c-1.476,0-2.814,0.819-3.486,2.127C6.781,3.891,1.299,13.608,1.13,13.938
				c-0.286,0.557-0.432,1.16-0.432,1.79c0,2.162,1.759,3.921,3.921,3.921h10.456c0.181,0,0.327-0.146,0.327-0.327
				s-0.146-0.327-0.327-0.327H4.619c-1.801,0-3.267-1.466-3.267-3.267c0-0.526,0.121-1.028,0.359-1.492
				C1.842,13.981,5.61,7.298,7.59,3.788c0.565-1.1,1.68-1.783,2.91-1.783c1.231,0,2.345,0.683,2.908,1.783
				c0.003,0.006,0.007,0.012,0.01,0.018c0.09,0.156,5.738,10.173,5.869,10.426c0.24,0.465,0.361,0.968,0.361,1.495
				c0,1.802-1.466,3.267-3.267,3.267c-0.18,0-0.327,0.146-0.327,0.327s0.146,0.327,0.327,0.327c2.162,0,3.921-1.759,3.921-3.921
				C20.302,15.104,20.152,14.484,19.868,13.933z"/>
			<path fill="#292929" d="M7.775,9.883c0.189,0.066,0.34,0.218,0.404,0.408c0.046,0.136,0.173,0.222,0.309,0.222
				c0.035,0,0.07-0.006,0.105-0.018c0.171-0.058,0.263-0.243,0.205-0.414c-0.128-0.379-0.43-0.684-0.808-0.816
				C7.818,9.206,7.632,9.297,7.573,9.467C7.514,9.637,7.604,9.823,7.775,9.883z"/>
			<path fill="#292929" d="M13.656,9.883c0.189,0.066,0.34,0.218,0.404,0.408c0.046,0.136,0.173,0.222,0.309,0.222
				c0.035,0,0.07-0.006,0.105-0.018c0.171-0.058,0.263-0.243,0.205-0.414c-0.128-0.379-0.43-0.684-0.808-0.816
				c-0.171-0.059-0.356,0.031-0.416,0.202C13.395,9.637,13.485,9.823,13.656,9.883z"/>
			<path fill="#292929" d="M16.054,10.5c0-1.441-1.173-2.614-2.614-2.614s-2.614,1.173-2.614,2.614s1.173,2.614,2.614,2.614
				S16.054,11.941,16.054,10.5z M11.48,10.5c0-1.081,0.88-1.96,1.96-1.96c1.081,0,1.96,0.88,1.96,1.96c0,1.081-0.879,1.96-1.96,1.96
				C12.36,12.46,11.48,11.581,11.48,10.5z"/>
			<path fill="#292929" d="M16.928,15.111c0.189,0.066,0.34,0.218,0.404,0.408c0.046,0.136,0.173,0.222,0.309,0.222
				c0.035,0,0.07-0.006,0.105-0.018c0.171-0.058,0.263-0.243,0.205-0.414c-0.128-0.379-0.43-0.684-0.809-0.816
				c-0.171-0.059-0.356,0.031-0.416,0.202C16.667,14.865,16.757,15.051,16.928,15.111z"/>
			<path fill="#292929" d="M10.715,4.655c0.189,0.066,0.34,0.218,0.404,0.408c0.046,0.136,0.173,0.222,0.309,0.222
				c0.035,0,0.07-0.006,0.105-0.018c0.171-0.058,0.263-0.243,0.205-0.414c-0.128-0.379-0.43-0.684-0.808-0.816
				c-0.171-0.059-0.357,0.031-0.416,0.202C10.455,4.409,10.545,4.596,10.715,4.655z"/>
			<path fill="#292929" d="M16.381,18.342c1.441,0,2.614-1.173,2.614-2.614c0-1.441-1.173-2.614-2.614-2.614
				s-2.614,1.173-2.614,2.614S14.94,18.342,16.381,18.342z M16.381,13.767c1.081,0,1.96,0.88,1.96,1.96
				c0,1.081-0.879,1.96-1.96,1.96c-1.081,0-1.96-0.879-1.96-1.96C14.421,14.647,15.3,13.767,16.381,13.767z"/>
			<path fill="#292929" d="M13.114,5.272c0-1.441-1.173-2.614-2.614-2.614S7.886,3.831,7.886,5.272c0,1.441,1.173,2.614,2.614,2.614
				C11.941,7.886,13.114,6.713,13.114,5.272z M8.54,5.272c0-1.081,0.88-1.96,1.96-1.96c1.081,0,1.96,0.88,1.96,1.96
				c0,1.081-0.879,1.96-1.96,1.96C9.419,7.233,8.54,6.353,8.54,5.272z"/>
			<path fill="#292929" d="M10.715,15.111c0.189,0.066,0.34,0.218,0.404,0.408c0.046,0.136,0.173,0.222,0.309,0.222
				c0.035,0,0.07-0.006,0.105-0.018c0.171-0.058,0.263-0.243,0.205-0.414c-0.128-0.379-0.43-0.684-0.808-0.816
				c-0.171-0.059-0.357,0.031-0.416,0.202C10.455,14.865,10.545,15.051,10.715,15.111z"/>
			<path fill="#292929" d="M10.5,18.342c1.441,0,2.614-1.173,2.614-2.614c0-1.441-1.173-2.614-2.614-2.614s-2.614,1.173-2.614,2.614
				S9.059,18.342,10.5,18.342z M10.5,13.767c1.081,0,1.96,0.88,1.96,1.96c0,1.081-0.879,1.96-1.96,1.96
				c-1.081,0-1.96-0.879-1.96-1.96C8.54,14.647,9.419,13.767,10.5,13.767z"/>
		</g>
	</g>
</g>
</svg>
