<?xml version="1.0" encoding="utf-8"?>
<!-- Generator: Adobe Illustrator 17.0.0, SVG Export Plug-In . SVG Version: 6.00 Build 0)  -->
<!DOCTYPE svg PUBLIC "-//W3C//DTD SVG 1.1//EN" "http://www.w3.org/Graphics/SVG/1.1/DTD/svg11.dtd">
<svg version="1.1" id="Layer_1" xmlns="http://www.w3.org/2000/svg" xmlns:xlink="http://www.w3.org/1999/xlink" x="0px" y="0px"
	 width="32px" height="32px" viewBox="0 0 32 32" enable-background="new 0 0 32 32" xml:space="preserve">
<path fill="#0E405D" stroke="#0E405D" stroke-width="0.5" d="M0.888,12.889c-0.303-0.433-0.462-0.937-0.462-1.455V4.877
	c0-0.216,0.186-0.404,0.43-0.404s0.43,0.188,0.43,0.404V8.77v0.152h0.152h1.165h0.153V8.77V4.877c0-0.216,0.186-0.404,0.43-0.404
	s0.43,0.188,0.43,0.404V8.77v0.152h0.152h1.166h0.152V8.77V4.877c0-0.216,0.185-0.404,0.43-0.404c0.244,0,0.43,0.188,0.43,0.404
	v4.271v0.455L6.22,9.24C8.464,6.262,12.048,4.472,16,4.472c3.407,0,6.659,1.393,8.926,3.768l0.182,0.192l0.074-0.255
	c0.252-0.868,0.656-1.804,1.184-2.519c0.531-0.719,1.056-1.186,1.759-1.186h0.107l0,0c0.485,0,0.935,0.221,1.345,0.597
	s0.77,0.9,1.068,1.482c0.598,1.168,0.928,2.535,0.928,3.331c0,1.022-0.523,1.993-1.404,2.595l0,0
	c-0.208,0.143-0.343,0.357-0.343,0.597v12.875c0,0.816-0.639,1.508-1.455,1.574c-0.047,0.004-0.092,0.005-0.138,0.005
	c-0.431,0-0.837-0.162-1.133-0.453l0,0l-0.003-0.003c-0.293-0.272-0.461-0.652-0.461-1.061v-3.997v-0.53l-0.281,0.448
	c-2.144,3.42-6.033,5.595-10.355,5.595c-4.836,0-9.002-2.731-10.93-6.653l-0.289,0.067v5.069c0,0.83-0.709,1.516-1.595,1.516
	c-0.887,0-1.595-0.687-1.595-1.516V14.113c0-0.142-0.044-0.279-0.125-0.396l0,0l-0.579-0.828"/>
<path fill="#FFFFFF" stroke="#0E405D" stroke-width="0.5" d="M3.921,25.841v0.171c0,0.398-0.336,0.708-0.735,0.708
	s-0.735-0.311-0.735-0.708V14.113c0-0.299-0.091-0.588-0.266-0.838l0,0l-0.578-0.828l0,0c-0.21-0.3-0.322-0.651-0.322-1.014V9.882
	V9.73h0.152h3.494h0.152v0.152v1.551c0,0.362-0.112,0.712-0.321,1.013l0,0l-0.578,0.828L3.921,25.841z"/>
<line fill="#FFFFFF" stroke="#0E405D" stroke-width="0.5" x1="3.921" y1="25.841" x2="3.921" y2="25.841"/>
<line fill="#FFFFFF" stroke="#0E405D" stroke-width="0.5" x1="3.921" y1="25.841" x2="3.921" y2="25.841"/>
<line fill="#FFFFFF" stroke="#0E405D" stroke-width="0.5" x1="29.733" y1="11.777" x2="29.733" y2="11.775"/>
<line fill="#FFFFFF" stroke="#0E405D" stroke-width="0.5" x1="29.733" y1="11.777" x2="29.733" y2="11.775"/>
<path fill="#FFFFFF" stroke="#0E405D" stroke-width="0.5" d="M25.785,9.427l-0.001,0.009l-0.001,0.007l-0.001,0.005l0,0
	l-0.001,0.009c-0.017,0.145-0.03,0.29-0.03,0.424c0,0.769,0.395,1.495,1.049,1.942c0.448,0.306,0.698,0.763,0.698,1.25v12.938
	c0,0.19,0.076,0.366,0.215,0.496c0.16,0.155,0.368,0.231,0.588,0.21c0.379-0.031,0.667-0.384,0.667-0.768V13.074
	c0-0.487,0.25-0.944,0.698-1.25l0.068-0.049c0.615-0.45,0.982-1.152,0.982-1.894c0-0.767-0.331-1.903-0.787-2.843
	c-0.229-0.472-0.495-0.903-0.775-1.22c-0.274-0.309-0.589-0.54-0.92-0.54c-0.302,0-0.591,0.192-0.843,0.456
	c-0.258,0.269-0.504,0.638-0.722,1.05C26.229,7.609,25.887,8.63,25.785,9.427"/>
<path fill="#FFFFFF" stroke="#0E405D" stroke-width="0.5" d="M4.781,16.001c0,5.832,4.895,10.58,10.951,10.717l-0.002,0.003H16
	c4.83,0,9.09-2.924,10.628-7.292l0.008-0.024v-0.026v-6.305c0-0.239-0.136-0.455-0.344-0.597l0,0
	c-0.881-0.602-1.403-1.573-1.403-2.595c0-0.099,0.005-0.208,0.015-0.325l0.005-0.061L24.87,9.448
	c-2.107-2.614-5.405-4.168-8.872-4.168c-4.289,0-8.123,2.271-10.037,5.937L5.945,11.25v0.038v0.146c0,0.518-0.159,1.022-0.462,1.455
	l-0.578,0.828l0,0c-0.081,0.117-0.125,0.254-0.125,0.396v1.888H4.781z"/>
<path fill="#0E405D" stroke="#0E405D" stroke-width="0.5" d="M7.415,16c0-4.51,3.844-8.191,8.585-8.191S24.585,11.49,24.585,16
	S20.74,24.191,16,24.191S7.415,20.51,7.415,16z M8.276,16c0,4.078,3.472,7.382,7.724,7.382s7.724-3.306,7.724-7.382
	c0-4.078-3.471-7.383-7.724-7.383S8.276,11.922,8.276,16z"/>
</svg>
