<?xml version="1.0" encoding="utf-8"?>
<!-- Generator: Adobe Illustrator 17.0.0, SVG Export Plug-In . SVG Version: 6.00 Build 0)  -->
<!DOCTYPE svg PUBLIC "-//W3C//DTD SVG 1.1//EN" "http://www.w3.org/Graphics/SVG/1.1/DTD/svg11.dtd">
<svg version="1.1" id="Layer_1" xmlns="http://www.w3.org/2000/svg" xmlns:xlink="http://www.w3.org/1999/xlink" x="0px" y="0px"
	 width="29px" height="29px" viewBox="0 0 29 29" enable-background="new 0 0 29 29" xml:space="preserve">
<g>
	<path fill="#FFFFFF" d="M1.319,27.422c0.043,0,0.075,0.024,0.095,0.044c0.041,0.042,0.065,0.103,0.065,0.171
		c0,0.116-0.074,0.214-0.168,0.214c-0.087,0-0.161-0.098-0.161-0.214s0.074-0.214,0.161-0.214H1.319"/>
	<g>
		<g>
			<path fill="#FFFFFF" d="M27.688,27.422h-2.252V14.069c0-0.116-0.074-0.214-0.161-0.214c-0.087,0-0.161,0.098-0.161,0.214v5.986
				H19.37c-0.087,0-0.161,0.098-0.161,0.214v1.421c0,0.116,0.074,0.214,0.161,0.214h0.95v5.517h-3.711l-0.082-0.291
				c-0.196-0.696-0.788-1.181-1.438-1.181h-0.4l-0.029-0.4v-6.017h2.309c0.087,0,0.161-0.098,0.161-0.214v-1.29h4.721
				c0.087,0,0.161-0.098,0.161-0.214V15.85c0-0.116-0.074-0.214-0.161-0.214h-1.824c-0.087,0-0.161,0.098-0.161,0.214
				c0,0.116,0.074,0.214,0.161,0.214h1.663V17.6H7.308v-1.536h9.136c0.087,0,0.161-0.098,0.161-0.214
				c0-0.116-0.074-0.214-0.161-0.214h-1.783V7.225H24.5c0.07,0,0.135-0.066,0.156-0.157c0.023-0.102-0.018-0.211-0.095-0.255
				l-10-5.646C14.542,1.156,14.521,1.15,14.5,1.15c-0.021,0-0.042,0.006-0.062,0.017l-10,5.647C4.362,6.857,4.322,6.967,4.345,7.07
				C4.365,7.159,4.43,7.225,4.5,7.225h9.839v8.412H7.147c-0.087,0-0.161,0.098-0.161,0.214v1.964c0,0.116,0.074,0.214,0.161,0.214
				h4.721v1.29c0,0.116,0.074,0.214,0.161,0.214h2.309v6.417h-0.4c-0.676,0-1.254,0.475-1.453,1.181l-0.082,0.292H8.679v-5.519h0.95
				c0.087,0,0.161-0.098,0.161-0.214V20.27c0-0.116-0.074-0.214-0.161-0.214H3.885v-5.986c0-0.116-0.074-0.214-0.161-0.214
				c-0.087,0-0.161,0.098-0.161,0.214v13.352h-0.4c-0.116,0-0.19,0.098-0.19,0.214c0,0.116,0.074,0.214,0.161,0.214h24.554
				c0.087,0,0.161-0.098,0.161-0.214C27.85,27.52,27.776,27.422,27.688,27.422z M16.632,2.8l5.755,3.25l1.325,0.748h-5.242
				L18.35,6.625l-2.244-3.25l-0.988-1.43L16.632,2.8z M14.661,1.912l0.729,1.056l2.212,3.203l0.433,0.627h-3.374V1.912z
				 M10.531,6.798H5.289l1.325-0.748l5.755-3.25l1.514-0.855l-0.988,1.43l-2.244,3.25L10.531,6.798z M10.965,6.798l0.433-0.627
				l2.212-3.203l0.729-1.056v4.886H10.965z M3.885,20.484h5.583v0.993H3.885V20.484z M7.956,27.022h-3.67v-4.717h3.67V27.022z
				 M13.375,27.022c0.142-0.151,0.335-0.245,0.548-0.245h1.165c0.213,0,0.407,0.094,0.548,0.245H13.375z M24.714,27.022h-3.67
				v-4.717h3.67V27.022z M25.114,21.477h-5.583v-0.993h5.583V21.477z M4.286,21.077h4.783v-0.193H4.286V21.077z M24.714,20.884
				h-4.783v0.193h4.783V20.884z"/>
		</g>
	</g>
	<polyline fill="#FFFFFF" points="12.19,19.105 12.59,19.105 16.408,19.105 16.808,19.105 16.808,18.705 16.808,18.434 
		16.808,18.034 16.408,18.034 12.59,18.034 12.19,18.034 12.19,18.434 12.19,18.705 12.19,19.105 	"/>
	<polygon fill="#FFFFFF" points="12.59,18.705 12.59,18.434 16.408,18.434 16.408,18.705 12.59,18.705 	"/>
	<path fill="#FFFFFF" d="M18.268,15.637c0.087,0,0.161,0.098,0.161,0.214s-0.074,0.214-0.168,0.214
		c-0.087,0-0.161-0.098-0.161-0.214s0.074-0.214,0.161-0.214H18.268"/>
</g>
</svg>
