<?xml version="1.0" encoding="utf-8"?>
<!-- Generator: Adobe Illustrator 23.0.5, SVG Export Plug-In . SVG Version: 6.00 Build 0)  -->
<svg version="1.1" id="Layer_1" xmlns="http://www.w3.org/2000/svg" xmlns:xlink="http://www.w3.org/1999/xlink" x="0px" y="0px"
	 viewBox="0 0 32 32" style="enable-background:new 0 0 32 32;" xml:space="preserve">
<style type="text/css">
	.st0{fill:none;stroke:#FFFFFF;stroke-linecap:round;stroke-linejoin:round;}
</style>
<path class="st0" d="M13.3,7l-1.8,1.7H4.6c-0.2,0-0.3,0-0.4,0.1C4.1,8.9,3.9,8.9,3.8,9C3.7,9.1,3.6,9.3,3.6,9.4
	C3.5,9.5,3.5,9.7,3.5,9.8v14.1c0,0.3,0.1,0.6,0.3,0.8C4.1,24.9,4.3,25,4.6,25h22.7c0.3,0,0.6-0.1,0.8-0.3c0.2-0.2,0.3-0.5,0.3-0.8
	V9.8c0-0.1,0-0.3-0.1-0.4c-0.1-0.1-0.1-0.3-0.2-0.4c-0.1-0.1-0.2-0.2-0.4-0.2c-0.1-0.1-0.3-0.1-0.4-0.1h-6.9L18.7,7H13.3z
	 M25.5,10.5c0.3,0,0.6,0.1,0.8,0.3c0.2,0.2,0.3,0.5,0.3,0.8c0,0.3-0.1,0.6-0.3,0.8c-0.2,0.2-0.5,0.3-0.8,0.3c-0.3,0-0.6-0.1-0.8-0.3
	c-0.2-0.2-0.3-0.5-0.3-0.8c0-0.3,0.1-0.6,0.3-0.8C24.8,10.6,25.1,10.5,25.5,10.5z M16,12.4c1.1,0,2.1,0.3,3,0.9
	c0.9,0.6,1.6,1.4,2,2.3c0.4,0.9,0.5,2,0.3,3c-0.2,1-0.7,1.9-1.5,2.6c-0.8,0.7-1.7,1.2-2.8,1.4c-1.1,0.2-2.2,0.1-3.2-0.3
	s-1.8-1.1-2.4-1.9c-0.6-0.8-0.9-1.8-0.9-2.9c0-1.4,0.6-2.7,1.6-3.7C13.2,13,14.6,12.4,16,12.4z"/>
</svg>
