<?xml version="1.0" encoding="utf-8"?>
<!-- Generator: Adobe Illustrator 23.0.5, SVG Export Plug-In . SVG Version: 6.00 Build 0)  -->
<svg version="1.1" id="Layer_1" xmlns="http://www.w3.org/2000/svg" xmlns:xlink="http://www.w3.org/1999/xlink" x="0px" y="0px"
	 viewBox="0 0 32 32" style="enable-background:new 0 0 32 32;" xml:space="preserve">
<style type="text/css">
	.st0{fill:#0E405D;}
</style>
<g>
	<path class="st0" d="M25.7,13.2l-0.2-0.1l-0.1-0.2L24,8.3c-0.2-0.6-0.6-1.1-1.1-1.5l0,0c0,0,0,0,0,0l0,0c-0.5-0.4-1.1-0.6-1.7-0.6
		c0,0,0,0,0,0H20h-4h-4h-1.2c0,0,0,0,0,0c-0.6,0-1.2,0.2-1.7,0.6l0,0c0,0,0,0,0,0l0,0C8.6,7.2,8.3,7.7,8.1,8.3l0,0l0,0l-1.6,4.8
		l-0.2,0.1c-0.3,0.1-0.6,0.4-0.8,0.7c-0.2,0.3-0.3,0.7-0.3,1v5.6c0,0.7,0.4,1.3,1,1.6l0.3,0.1l-0.1,0.3c0,0,0,0.1,0,0.1l0,0.1l0,2.3
		c0,0.2,0.1,0.4,0.2,0.5c0.1,0.1,0.3,0.2,0.5,0.2h1.1c0.2,0,0.4-0.1,0.5-0.2c0.1-0.1,0.2-0.3,0.2-0.5v-2.6h14.3V25
		c0,0.2,0.1,0.4,0.2,0.5c0.1,0.1,0.3,0.2,0.5,0.2H25c0.2,0,0.4-0.1,0.5-0.2c0.1-0.1,0.2-0.3,0.2-0.5v-2.3c0-0.1,0-0.1,0-0.1
		l-0.1-0.3l0.3-0.1c0.3-0.2,0.5-0.4,0.7-0.7c0.2-0.3,0.3-0.6,0.3-0.9v-5.6C26.9,14.1,26.4,13.5,25.7,13.2z M10.9,7.7h0.6h9h0.6
		c0.7,0,1.2,0.4,1.4,1L24,13H8l1.2-3.6h0l0.2-0.7C9.6,8.1,10.2,7.7,10.9,7.7z M6.6,20.9v-6.4h18.8l0,6.4H6.6z"/>
</g>
</svg>
