<?xml version="1.0" encoding="utf-8"?>
<!-- Generator: Adobe Illustrator 23.0.5, SVG Export Plug-In . SVG Version: 6.00 Build 0)  -->
<svg version="1.1" id="Layer_1" xmlns="http://www.w3.org/2000/svg" xmlns:xlink="http://www.w3.org/1999/xlink" x="0px" y="0px"
	 viewBox="0 0 32 32" style="enable-background:new 0 0 32 32;" xml:space="preserve">
<style type="text/css">
	.st0{fill:none;stroke:#0E405D;stroke-width:1.2;stroke-linecap:round;stroke-linejoin:round;}
</style>
<path class="st0" d="M8.3,22.7l15.8,0 M16.1,4c2.6,0,4.7,1.8,5.2,4.2C22,8,22.7,8,23.4,8.1c0.7,0.1,1.4,0.3,2,0.7
	c0.6,0.3,1.1,0.8,1.6,1.4c0.4,0.6,0.7,1.2,0.9,1.9c0.2,0.7,0.2,1.4,0.1,2.1c-0.1,0.7-0.3,1.4-0.7,2c-0.3,0.6-0.8,1.1-1.4,1.6
	c-0.6,0.4-1.2,0.7-1.9,0.9V28h-16v-9.5c-0.7-0.2-1.3-0.5-1.9-0.9c-0.6-0.4-1.1-1-1.4-1.6c-0.4-0.6-0.6-1.3-0.7-2
	c-0.1-0.7,0-1.4,0.1-2.1c0.2-0.7,0.5-1.3,0.9-1.9c0.4-0.6,1-1,1.6-1.4C7.4,8.3,8,8.1,8.7,8c0.7-0.1,1.4,0,2.1,0.2
	c0.3-1.2,0.9-2.3,1.9-3C13.7,4.4,14.8,4,16.1,4L16.1,4z"/>
</svg>
