<?xml version="1.0" encoding="utf-8"?>
<!-- Generator: Adobe Illustrator 23.0.5, SVG Export Plug-In . SVG Version: 6.00 Build 0)  -->
<svg version="1.1" id="Layer_1" xmlns="http://www.w3.org/2000/svg" xmlns:xlink="http://www.w3.org/1999/xlink" x="0px" y="0px"
	 viewBox="0 0 32 32" style="enable-background:new 0 0 32 32;" xml:space="preserve">
<style type="text/css">
	.st0{fill:none;stroke:#FFFFFF;stroke-width:1.2;stroke-linecap:round;stroke-linejoin:round;}
</style>
<path class="st0" d="M9.2,21.8l13.8,0 M16.1,5.5c2.2,0,4.1,1.6,4.6,3.7C21.2,9,21.8,9,22.4,9.1c0.6,0.1,1.2,0.3,1.7,0.6
	c0.5,0.3,1,0.7,1.4,1.2c0.4,0.5,0.6,1,0.8,1.6c0.2,0.6,0.2,1.2,0.1,1.8c-0.1,0.6-0.3,1.2-0.6,1.7c-0.3,0.5-0.7,1-1.2,1.4
	c-0.5,0.4-1,0.6-1.6,0.8v8.3h-14v-8.3c-0.6-0.1-1.2-0.4-1.7-0.8C6.9,17,6.5,16.6,6.1,16c-0.3-0.5-0.5-1.1-0.6-1.7
	c-0.1-0.6,0-1.2,0.1-1.8c0.2-0.6,0.4-1.2,0.8-1.7c0.4-0.5,0.9-0.9,1.4-1.2C8.4,9.3,9,9.1,9.7,9c0.6-0.1,1.2,0,1.8,0.2
	c0.2-1,0.8-2,1.6-2.6C14,5.9,15,5.5,16.1,5.5L16.1,5.5z"/>
</svg>
