<svg width="27" height="19" viewBox="0 0 27 19" fill="none" xmlns="http://www.w3.org/2000/svg">
<mask id="path-1-outside-1_869_355" maskUnits="userSpaceOnUse" x="0" y="6.17188" width="27" height="13" fill="black">
<rect fill="white" y="6.17188" width="27" height="13"/>
<path d="M22.8026 12.4773H24.1916C24.7141 12.4759 25.2139 12.2631 25.5773 11.8875C25.9417 11.5088 26.1447 11.0034 26.1436 10.4777C26.1489 9.95388 25.9465 9.44928 25.5805 9.07443C25.2147 8.69973 24.7152 8.48527 24.1916 8.47826H23.8119V7.17188H10.4881V9.00476C10.4879 9.63465 10.58 10.2611 10.7611 10.8644C10.5112 10.8644 10.2615 10.8377 10.0083 10.8377H10.0084C8.51731 10.836 7.03913 11.1152 5.65144 11.6608C5.43764 11.7428 5.25836 11.8958 5.14383 12.0941C5.02914 12.2925 4.98619 12.5243 5.02199 12.7505L5.05862 12.9938V12.9939C4.36544 13.3623 3.71718 13.8096 3.1266 14.3268C2.87673 14.5532 2.75782 14.8903 2.81019 15.2233L2.88347 15.6832C2.32702 16.0826 1.80454 16.5274 1.32119 17.0129C1.16762 17.1649 1.06304 17.3595 1.02078 17.5714C0.97867 17.7835 1.00085 18.0033 1.08465 18.2026C1.15653 18.385 1.28034 18.5423 1.44079 18.6549C1.60139 18.7676 1.79146 18.8304 1.98743 18.8357H17.9393C18.1385 18.8334 18.3325 18.7715 18.4964 18.6582C18.6602 18.5447 18.7864 18.3849 18.8587 18.1992C18.9426 18.0008 18.9652 17.7817 18.9237 17.5703C18.8821 17.3589 18.7782 17.1647 18.6255 17.0129C18.3216 16.7154 18.0025 16.4341 17.6695 16.1697H22.9723C23.3258 16.17 23.6649 16.0297 23.9149 15.7798L24.5245 15.17H25.304V14.5035H20.7673C21.5884 13.9886 22.2838 13.2963 22.8025 12.4774L22.8026 12.4773ZM23.8019 9.14479H24.1884H24.1882C24.5353 9.15182 24.8653 9.29591 25.1062 9.54574C25.3471 9.79559 25.4795 10.1307 25.4741 10.4777C25.4751 10.829 25.3402 11.167 25.0976 11.4209C24.8595 11.6682 24.5316 11.8088 24.1882 11.8108H23.1723C23.199 11.7542 23.2289 11.7008 23.2555 11.6442V11.6441C23.6069 10.8572 23.7939 10.0067 23.8051 9.14477L23.8019 9.14479ZM1.68725 17.9526C1.61958 17.7948 1.65384 17.6118 1.77386 17.4894C2.16004 17.1105 2.57191 16.7587 3.00638 16.4362L3.27956 18.1725H1.98709C1.85177 18.167 1.73315 18.0801 1.68725 17.9525V17.9526ZM3.47592 15.14C3.45795 15.0305 3.49543 14.9195 3.57587 14.8433C4.06788 14.407 4.60373 14.0229 5.17476 13.6969L5.88099 18.1759H3.95234L3.47592 15.14ZM13.4156 18.1759H6.55389L5.68455 12.6474C5.659 12.489 5.7501 12.3349 5.90101 12.2808C8.54293 11.2479 11.4766 11.2479 14.1186 12.2808C14.2695 12.3349 14.3607 12.489 14.3351 12.6474L13.4691 18.1726L13.4156 18.1759ZM16.0137 18.1759H14.1384L14.8413 13.7004C15.4126 14.0246 15.9486 14.4077 16.4402 14.8435C16.5208 14.9196 16.5581 15.0307 16.5401 15.1401L16.0638 18.176L16.0137 18.1759ZM18.239 17.9526C18.1925 18.0812 18.0724 18.1683 17.9358 18.1725H16.7367L16.9999 16.5063H16.9998C17.4053 16.8141 17.7904 17.148 18.1524 17.506C18.2662 17.6249 18.3002 17.7996 18.239 17.9526V17.9526ZM23.4552 15.3132C23.3308 15.4384 23.162 15.5092 22.9855 15.5099H17.1562L17.1995 15.2433V15.1766H23.5919L23.4552 15.3132ZM19.2481 14.5035H17.0264C16.985 14.4438 16.9368 14.389 16.8832 14.3401C16.2933 13.8221 15.6449 13.3747 14.9512 13.0072L14.9912 12.7606C15.027 12.5342 14.9839 12.3025 14.8693 12.1042C14.7546 11.9057 14.5755 11.7528 14.3616 11.6708C13.4377 11.3087 12.4719 11.0645 11.4869 10.9443C11.2675 10.3258 11.1549 9.67441 11.1538 9.01812V7.85177H23.1455V9.01812C23.149 9.83339 22.9787 10.6401 22.6459 11.3843C21.9887 12.846 20.7604 13.9737 19.2482 14.5035L19.2481 14.5035Z"/>
</mask>
<path d="M22.8026 12.4773H24.1916C24.7141 12.4759 25.2139 12.2631 25.5773 11.8875C25.9417 11.5088 26.1447 11.0034 26.1436 10.4777C26.1489 9.95388 25.9465 9.44928 25.5805 9.07443C25.2147 8.69973 24.7152 8.48527 24.1916 8.47826H23.8119V7.17188H10.4881V9.00476C10.4879 9.63465 10.58 10.2611 10.7611 10.8644C10.5112 10.8644 10.2615 10.8377 10.0083 10.8377H10.0084C8.51731 10.836 7.03913 11.1152 5.65144 11.6608C5.43764 11.7428 5.25836 11.8958 5.14383 12.0941C5.02914 12.2925 4.98619 12.5243 5.02199 12.7505L5.05862 12.9938V12.9939C4.36544 13.3623 3.71718 13.8096 3.1266 14.3268C2.87673 14.5532 2.75782 14.8903 2.81019 15.2233L2.88347 15.6832C2.32702 16.0826 1.80454 16.5274 1.32119 17.0129C1.16762 17.1649 1.06304 17.3595 1.02078 17.5714C0.97867 17.7835 1.00085 18.0033 1.08465 18.2026C1.15653 18.385 1.28034 18.5423 1.44079 18.6549C1.60139 18.7676 1.79146 18.8304 1.98743 18.8357H17.9393C18.1385 18.8334 18.3325 18.7715 18.4964 18.6582C18.6602 18.5447 18.7864 18.3849 18.8587 18.1992C18.9426 18.0008 18.9652 17.7817 18.9237 17.5703C18.8821 17.3589 18.7782 17.1647 18.6255 17.0129C18.3216 16.7154 18.0025 16.4341 17.6695 16.1697H22.9723C23.3258 16.17 23.6649 16.0297 23.9149 15.7798L24.5245 15.17H25.304V14.5035H20.7673C21.5884 13.9886 22.2838 13.2963 22.8025 12.4774L22.8026 12.4773ZM23.8019 9.14479H24.1884H24.1882C24.5353 9.15182 24.8653 9.29591 25.1062 9.54574C25.3471 9.79559 25.4795 10.1307 25.4741 10.4777C25.4751 10.829 25.3402 11.167 25.0976 11.4209C24.8595 11.6682 24.5316 11.8088 24.1882 11.8108H23.1723C23.199 11.7542 23.2289 11.7008 23.2555 11.6442V11.6441C23.6069 10.8572 23.7939 10.0067 23.8051 9.14477L23.8019 9.14479ZM1.68725 17.9526C1.61958 17.7948 1.65384 17.6118 1.77386 17.4894C2.16004 17.1105 2.57191 16.7587 3.00638 16.4362L3.27956 18.1725H1.98709C1.85177 18.167 1.73315 18.0801 1.68725 17.9525V17.9526ZM3.47592 15.14C3.45795 15.0305 3.49543 14.9195 3.57587 14.8433C4.06788 14.407 4.60373 14.0229 5.17476 13.6969L5.88099 18.1759H3.95234L3.47592 15.14ZM13.4156 18.1759H6.55389L5.68455 12.6474C5.659 12.489 5.7501 12.3349 5.90101 12.2808C8.54293 11.2479 11.4766 11.2479 14.1186 12.2808C14.2695 12.3349 14.3607 12.489 14.3351 12.6474L13.4691 18.1726L13.4156 18.1759ZM16.0137 18.1759H14.1384L14.8413 13.7004C15.4126 14.0246 15.9486 14.4077 16.4402 14.8435C16.5208 14.9196 16.5581 15.0307 16.5401 15.1401L16.0638 18.176L16.0137 18.1759ZM18.239 17.9526C18.1925 18.0812 18.0724 18.1683 17.9358 18.1725H16.7367L16.9999 16.5063H16.9998C17.4053 16.8141 17.7904 17.148 18.1524 17.506C18.2662 17.6249 18.3002 17.7996 18.239 17.9526V17.9526ZM23.4552 15.3132C23.3308 15.4384 23.162 15.5092 22.9855 15.5099H17.1562L17.1995 15.2433V15.1766H23.5919L23.4552 15.3132ZM19.2481 14.5035H17.0264C16.985 14.4438 16.9368 14.389 16.8832 14.3401C16.2933 13.8221 15.6449 13.3747 14.9512 13.0072L14.9912 12.7606C15.027 12.5342 14.9839 12.3025 14.8693 12.1042C14.7546 11.9057 14.5755 11.7528 14.3616 11.6708C13.4377 11.3087 12.4719 11.0645 11.4869 10.9443C11.2675 10.3258 11.1549 9.67441 11.1538 9.01812V7.85177H23.1455V9.01812C23.149 9.83339 22.9787 10.6401 22.6459 11.3843C21.9887 12.846 20.7604 13.9737 19.2482 14.5035L19.2481 14.5035Z" fill="#292929"/>
<path d="M22.8026 12.4773H24.1916C24.7141 12.4759 25.2139 12.2631 25.5773 11.8875C25.9417 11.5088 26.1447 11.0034 26.1436 10.4777C26.1489 9.95388 25.9465 9.44928 25.5805 9.07443C25.2147 8.69973 24.7152 8.48527 24.1916 8.47826H23.8119V7.17188H10.4881V9.00476C10.4879 9.63465 10.58 10.2611 10.7611 10.8644C10.5112 10.8644 10.2615 10.8377 10.0083 10.8377H10.0084C8.51731 10.836 7.03913 11.1152 5.65144 11.6608C5.43764 11.7428 5.25836 11.8958 5.14383 12.0941C5.02914 12.2925 4.98619 12.5243 5.02199 12.7505L5.05862 12.9938V12.9939C4.36544 13.3623 3.71718 13.8096 3.1266 14.3268C2.87673 14.5532 2.75782 14.8903 2.81019 15.2233L2.88347 15.6832C2.32702 16.0826 1.80454 16.5274 1.32119 17.0129C1.16762 17.1649 1.06304 17.3595 1.02078 17.5714C0.97867 17.7835 1.00085 18.0033 1.08465 18.2026C1.15653 18.385 1.28034 18.5423 1.44079 18.6549C1.60139 18.7676 1.79146 18.8304 1.98743 18.8357H17.9393C18.1385 18.8334 18.3325 18.7715 18.4964 18.6582C18.6602 18.5447 18.7864 18.3849 18.8587 18.1992C18.9426 18.0008 18.9652 17.7817 18.9237 17.5703C18.8821 17.3589 18.7782 17.1647 18.6255 17.0129C18.3216 16.7154 18.0025 16.4341 17.6695 16.1697H22.9723C23.3258 16.17 23.6649 16.0297 23.9149 15.7798L24.5245 15.17H25.304V14.5035H20.7673C21.5884 13.9886 22.2838 13.2963 22.8025 12.4774L22.8026 12.4773ZM23.8019 9.14479H24.1884H24.1882C24.5353 9.15182 24.8653 9.29591 25.1062 9.54574C25.3471 9.79559 25.4795 10.1307 25.4741 10.4777C25.4751 10.829 25.3402 11.167 25.0976 11.4209C24.8595 11.6682 24.5316 11.8088 24.1882 11.8108H23.1723C23.199 11.7542 23.2289 11.7008 23.2555 11.6442V11.6441C23.6069 10.8572 23.7939 10.0067 23.8051 9.14477L23.8019 9.14479ZM1.68725 17.9526C1.61958 17.7948 1.65384 17.6118 1.77386 17.4894C2.16004 17.1105 2.57191 16.7587 3.00638 16.4362L3.27956 18.1725H1.98709C1.85177 18.167 1.73315 18.0801 1.68725 17.9525V17.9526ZM3.47592 15.14C3.45795 15.0305 3.49543 14.9195 3.57587 14.8433C4.06788 14.407 4.60373 14.0229 5.17476 13.6969L5.88099 18.1759H3.95234L3.47592 15.14ZM13.4156 18.1759H6.55389L5.68455 12.6474C5.659 12.489 5.7501 12.3349 5.90101 12.2808C8.54293 11.2479 11.4766 11.2479 14.1186 12.2808C14.2695 12.3349 14.3607 12.489 14.3351 12.6474L13.4691 18.1726L13.4156 18.1759ZM16.0137 18.1759H14.1384L14.8413 13.7004C15.4126 14.0246 15.9486 14.4077 16.4402 14.8435C16.5208 14.9196 16.5581 15.0307 16.5401 15.1401L16.0638 18.176L16.0137 18.1759ZM18.239 17.9526C18.1925 18.0812 18.0724 18.1683 17.9358 18.1725H16.7367L16.9999 16.5063H16.9998C17.4053 16.8141 17.7904 17.148 18.1524 17.506C18.2662 17.6249 18.3002 17.7996 18.239 17.9526V17.9526ZM23.4552 15.3132C23.3308 15.4384 23.162 15.5092 22.9855 15.5099H17.1562L17.1995 15.2433V15.1766H23.5919L23.4552 15.3132ZM19.2481 14.5035H17.0264C16.985 14.4438 16.9368 14.389 16.8832 14.3401C16.2933 13.8221 15.6449 13.3747 14.9512 13.0072L14.9912 12.7606C15.027 12.5342 14.9839 12.3025 14.8693 12.1042C14.7546 11.9057 14.5755 11.7528 14.3616 11.6708C13.4377 11.3087 12.4719 11.0645 11.4869 10.9443C11.2675 10.3258 11.1549 9.67441 11.1538 9.01812V7.85177H23.1455V9.01812C23.149 9.83339 22.9787 10.6401 22.6459 11.3843C21.9887 12.846 20.7604 13.9737 19.2482 14.5035L19.2481 14.5035Z" stroke="#292929" stroke-width="0.2" mask="url(#path-1-outside-1_869_355)"/>
<path d="M16.4673 4.92912C16.4067 5.01888 16.3156 5.10359 16.1889 5.21704C15.8056 5.4867 15.5727 5.92226 15.561 6.39101L15.5598 6.44225H15.611H16.2773H16.3273V6.39225C16.3273 6.26172 16.3579 6.16823 16.417 6.08026C16.4776 5.99019 16.5686 5.90469 16.6949 5.79158C17.0753 5.52269 17.307 5.09009 17.3198 4.62406L17.3199 4.62406L17.3198 4.62129C17.3067 4.14663 17.0665 3.70741 16.6744 3.44006C16.5464 3.32695 16.4548 3.24238 16.394 3.15283C16.3346 3.06544 16.3039 2.97207 16.3039 2.83977C16.3039 2.70746 16.3346 2.61404 16.3936 2.5266C16.4542 2.43696 16.5451 2.35237 16.6715 2.23915C17.0552 1.96951 17.2883 1.53372 17.2999 1.06471L17.3012 1.01348H17.2499H16.5837H16.5337V1.06348C16.5337 1.19401 16.5031 1.28749 16.4439 1.37547C16.3833 1.46563 16.2922 1.55121 16.1656 1.6645C15.7811 1.93344 15.5468 2.36912 15.5345 2.83846L15.5344 2.83846L15.5345 2.84156C15.5515 3.31487 15.794 3.75144 16.1867 4.01573C16.3145 4.1288 16.4062 4.21336 16.467 4.3029C16.5263 4.39028 16.557 4.48365 16.557 4.61595C16.557 4.74826 16.5263 4.84169 16.4673 4.92912Z" fill="#292929" stroke="#292929" stroke-width="0.1"/>
<path d="M18.9442 4.77657C18.5583 5.04621 18.3236 5.48357 18.3123 5.9543L18.3111 6.00551H18.3623H19.0285H19.0785V5.95551C19.0785 5.8232 19.1092 5.72983 19.1686 5.64245C19.2294 5.55297 19.3209 5.46846 19.4487 5.35549C19.834 5.08676 20.0689 4.65059 20.0813 4.18067L20.0813 4.18067L20.0813 4.17825C20.0708 3.70803 19.8375 3.27078 19.4528 3.00045C19.3265 2.88737 19.2355 2.80188 19.175 2.71182C19.1158 2.62383 19.0851 2.53034 19.0851 2.39983C19.0851 2.26931 19.1158 2.17588 19.1752 2.08796C19.2361 1.99804 19.3277 1.91262 19.4554 1.79974C19.8382 1.52944 20.0705 1.09351 20.0813 0.62468L20.0824 0.573535H20.0313H19.365H19.315V0.623535C19.315 0.75406 19.2844 0.847488 19.225 0.935407C19.1641 1.02543 19.0723 1.11094 18.9444 1.22402C18.5593 1.49292 18.3248 1.92886 18.3123 2.3985L18.3123 2.3985L18.3123 2.40109C18.3242 2.87169 18.5587 3.30885 18.9442 3.57876C19.0704 3.69183 19.1614 3.77731 19.222 3.86737C19.2812 3.95535 19.3118 4.04883 19.3118 4.17933C19.3117 4.30983 19.2811 4.40245 19.2221 4.48955C19.1615 4.57883 19.0706 4.66345 18.9442 4.77657Z" fill="#292929" stroke="#292929" stroke-width="0.1"/>
</svg>
