<?xml version="1.0" encoding="utf-8"?>
<!-- Generator: Adobe Illustrator 23.0.5, SVG Export Plug-In . SVG Version: 6.00 Build 0)  -->
<svg version="1.1" id="Layer_1" xmlns="http://www.w3.org/2000/svg" xmlns:xlink="http://www.w3.org/1999/xlink" x="0px" y="0px"
	 viewBox="0 0 38 38" style="enable-background:new 0 0 38 38;" xml:space="preserve">
<style type="text/css">
	.st0{fill:#FFFFFF;}
	.st1{fill:none;}
</style>
<g>
	<path class="st0" d="M19,10.31c-4.79,0-8.7,3.9-8.7,8.7s3.9,8.7,8.7,8.7s8.7-3.9,8.7-8.7S23.79,10.31,19,10.31z M19,27.13
		c-4.48,0-8.12-3.64-8.12-8.12s3.64-8.12,8.12-8.12s8.12,3.64,8.12,8.12S23.48,27.13,19,27.13z"/>
	<path class="st0" d="M31.67,30.41v0.01V30.41z"/>
	<path class="st0" d="M31.78,31.62L31.78,31.62L31.78,31.62z"/>
	<path class="st0" d="M19,31.31c4.4,0,8.36-2.31,10.55-5.97l0.59-0.97v1.14v4.32c0,0.41,0.16,0.77,0.43,1.05l0.01,0.01l-0.01,0.01
		l0.01-0.01c0.27,0.28,0.65,0.44,1.06,0.44c0.04,0,0.08,0,0.13-0.01c0.75-0.06,1.36-0.73,1.36-1.55V15.87
		c0-0.31,0.17-0.59,0.42-0.76l0,0c0.87-0.62,1.38-1.62,1.38-2.68c0-0.84-0.33-2.29-0.94-3.54c-0.3-0.62-0.67-1.17-1.07-1.56
		c-0.41-0.39-0.83-0.6-1.28-0.6l0,0c-0.65,0-1.26,0.45-1.79,1.21c-0.53,0.75-0.94,1.75-1.2,2.68l-0.15,0.54l-0.39-0.42
		C25.78,8.18,22.46,6.7,19,6.7c-4.02,0-7.67,1.9-9.96,5.09l-0.57,0.78V11.6V6.99c0-0.16-0.13-0.28-0.28-0.28
		c-0.16,0-0.28,0.13-0.28,0.28v4.21v0.31H7.59H6.38H6.06V11.2V6.99c0-0.16-0.13-0.28-0.28-0.28S5.5,6.83,5.5,6.99v4.21v0.31H5.18
		h-1.2H3.67V11.2V6.99c0-0.16-0.13-0.28-0.28-0.28c-0.16,0-0.28,0.13-0.28,0.28v7.09c0,0.53,0.16,1.05,0.45,1.5l0.6,0.89
		c0.1,0.15,0.16,0.32,0.16,0.5v12.85c0,0.82,0.67,1.49,1.49,1.49s1.49-0.67,1.49-1.49v-5.47l0.6-0.14
		C9.83,28.39,14.08,31.31,19,31.31z M28.93,11.92L28.93,11.92V11.9c0,0,0,0,0-0.01v-0.01l0,0l0,0c0.1-0.88,0.47-2,0.92-2.9
		c0.24-0.44,0.5-0.86,0.77-1.16c0.27-0.29,0.61-0.54,0.98-0.54c0.42,0,0.78,0.3,1.07,0.64c0.3,0.36,0.59,0.84,0.82,1.35
		c0.47,1.03,0.83,2.27,0.83,3.13c0,0.82-0.39,1.58-1.02,2.09v0.03l-0.14,0.09c-0.42,0.3-0.66,0.75-0.66,1.24v13.91
		c0,0.47-0.33,0.93-0.83,0.97l0,0l0,0l0,0l0,0c-0.27,0.03-0.53-0.07-0.73-0.27l0,0l0,0l0,0l0,0c-0.17-0.17-0.26-0.4-0.26-0.64V15.84
		c0-0.48-0.23-0.93-0.66-1.24c-0.71-0.51-1.14-1.34-1.14-2.22C28.9,12.24,28.91,12.08,28.93,11.92z M6.94,16.14
		c-0.17,0.24-0.25,0.53-0.25,0.83v12.5l0,0v0.36c0,0.5-0.41,0.91-0.91,0.91s-0.91-0.4-0.91-0.91V16.96c0-0.29-0.08-0.58-0.25-0.83
		l0,0l-0.6-0.89l0,0c-0.23-0.35-0.36-0.75-0.36-1.17V12.4v-0.31h0.31h3.6H7.9v0.31v1.67c0,0.42-0.13,0.83-0.36,1.17l0,0L6.94,16.14z
		 M7.27,19.01v-2.04c0-0.18,0.05-0.36,0.16-0.5l0,0l0.6-0.89c0.29-0.44,0.45-0.96,0.45-1.5v-0.16v-0.07l0.03-0.07
		c2-4.01,6.01-6.5,10.5-6.5c3.63,0,7.08,1.71,9.27,4.56l0.07,0.09l-0.01,0.13c-0.01,0.13-0.01,0.24-0.01,0.33
		c0,1.06,0.51,2.06,1.38,2.68l0,0c0.25,0.18,0.42,0.45,0.42,0.76v6.81v0.05l-0.02,0.05c-1.6,4.77-6.06,7.99-11.12,7.99h-0.54
		l0.01-0.03C12.25,30.43,7.27,25.3,7.27,19.01z"/>
	<rect x="2.78" y="6.38" class="st1" width="32.45" height="25.23"/>
</g>
</svg>
