<?xml version="1.0" encoding="utf-8"?>
<!-- Generator: Adobe Illustrator 23.0.5, SVG Export Plug-In . SVG Version: 6.00 Build 0)  -->
<svg version="1.1" id="Layer_1" xmlns="http://www.w3.org/2000/svg" xmlns:xlink="http://www.w3.org/1999/xlink" x="0px" y="0px"
	 viewBox="0 0 32 32" style="enable-background:new 0 0 32 32;" xml:space="preserve">
<style type="text/css">
	.st0{fill:none;stroke:#FFFFFF;stroke-linecap:round;stroke-miterlimit:10;}
</style>
<path class="st0" d="M13.8,10.8c-0.3-1.3-0.6-3-0.6-3.9c0-0.4,0.1-0.7,0.2-1c0.1-0.3,0.3-0.6,0.6-0.9c0.3-0.3,0.6-0.5,0.9-0.6
	c0.3-0.1,0.7-0.2,1-0.2l0,0c1.5,0,2.7,1.2,2.7,2.7c0,0.9-0.3,2.6-0.6,3.9 M13.8,21.2c-0.3,1.3-0.6,3-0.6,3.9c0,0.4,0.1,0.7,0.2,1
	c0.1,0.3,0.3,0.6,0.6,0.9c0.3,0.3,0.6,0.5,0.9,0.6c0.3,0.1,0.7,0.2,1,0.2l0,0c1.5,0,2.7-1.2,2.7-2.7c0-0.9-0.3-2.6-0.6-3.9
	 M21.2,13.8c1.3-0.3,3-0.6,3.9-0.6c0.4,0,0.7,0.1,1,0.2c0.3,0.1,0.6,0.3,0.9,0.6c0.3,0.3,0.5,0.6,0.6,0.9c0.1,0.3,0.2,0.7,0.2,1l0,0
	c0,1.5-1.2,2.7-2.7,2.7c-0.9,0-2.6-0.3-3.9-0.6 M10.8,13.8c-1.3-0.3-3-0.6-3.9-0.6c-0.4,0-0.7,0.1-1,0.2c-0.3,0.1-0.6,0.3-0.9,0.6
	c-0.3,0.3-0.5,0.6-0.6,0.9c-0.1,0.3-0.2,0.7-0.2,1l0,0c0,1.5,1.2,2.7,2.7,2.7c0.9,0,2.6-0.3,3.9-0.6"/>
<path class="st0" d="M18.2,10.8c0.7-1.1,1.7-2.5,2.3-3.1c0.3-0.3,0.6-0.5,0.9-0.6c0.3-0.1,0.7-0.2,1-0.2c0.4,0,0.7,0.1,1,0.2
	s0.6,0.3,0.9,0.6l0,0c1.1,1.1,1,2.8,0,3.9c-0.6,0.6-2,1.6-3.1,2.3 M10.8,18.2c-1.1,0.7-2.5,1.7-3.1,2.3c-0.3,0.3-0.5,0.6-0.6,0.9
	c-0.1,0.3-0.2,0.7-0.2,1c0,0.4,0.1,0.7,0.2,1c0.1,0.3,0.3,0.6,0.6,0.9l0,0c1.1,1.1,2.8,1,3.9,0c0.6-0.6,1.6-2,2.3-3.1 M21.2,18.2
	c1.1,0.7,2.5,1.7,3.1,2.3c0.3,0.3,0.5,0.6,0.6,0.9c0.1,0.3,0.2,0.7,0.2,1c0,0.4-0.1,0.7-0.2,1c-0.1,0.3-0.3,0.6-0.6,0.9l0,0
	c-1.1,1.1-2.8,1-3.9,0c-0.6-0.6-1.6-2-2.3-3.1 M13.8,10.8c-0.7-1.1-1.7-2.5-2.3-3.1c-0.3-0.3-0.6-0.5-0.9-0.6
	c-0.3-0.1-0.7-0.2-1-0.2s-0.7,0.1-1,0.2C8.2,7.2,7.9,7.4,7.6,7.7l0,0c-1.1,1.1-1,2.8,0,3.9c0.6,0.6,2,1.6,3.1,2.3"/>
<path class="st0" d="M16,19.4c1.9,0,3.4-1.5,3.4-3.4s-1.5-3.4-3.4-3.4s-3.4,1.5-3.4,3.4S14.1,19.4,16,19.4z"/>
</svg>
