<?xml version="1.0" encoding="utf-8"?>
<!-- Generator: Adobe Illustrator 23.0.5, SVG Export Plug-In . SVG Version: 6.00 Build 0)  -->
<svg version="1.1" id="Layer_1" xmlns="http://www.w3.org/2000/svg" xmlns:xlink="http://www.w3.org/1999/xlink" x="0px" y="0px"
	 viewBox="0 0 32 32" style="enable-background:new 0 0 32 32;" xml:space="preserve">
<style type="text/css">
	.st0{fill:#FFFFFF;}
</style>
<path class="st0" d="M26.1,6.8c0.1-0.1,0.1-0.1,0.1-0.2c0-0.1,0.1-0.2,0.1-0.3c0-0.1,0-0.2,0-0.3c0-0.1-0.1-0.2-0.1-0.2
	C26,5.8,26,5.8,25.9,5.8c-0.1,0-0.2,0-0.3,0c-0.1,0-0.2,0-0.3,0.1c-0.1,0-0.1,0.1-0.2,0.1L18.1,13c-1.1-0.9-2.5-1.3-3.9-1.3
	c-1.4,0.1-2.8,0.7-3.8,1.7L9.8,14L6,16.3c-0.1,0.1-0.2,0.1-0.2,0.2c-0.1,0.1-0.1,0.2-0.1,0.3c0,0.1,0,0.2,0,0.3
	c0,0.1,0.1,0.2,0.2,0.2l8.8,8.8c0.1,0.1,0.2,0.1,0.2,0.2c0.1,0,0.2,0,0.3,0c0.1,0,0.2,0,0.3-0.1c0.1-0.1,0.2-0.1,0.2-0.2l2.3-3.8
	l0.6-0.6c1-1,1.6-2.3,1.7-3.8c0.1-1.4-0.4-2.8-1.3-3.9L26.1,6.8z M7.4,17l2.7-1.7l6.6,6.6L15,24.6L7.4,17z M17.7,20.7l-0.2,0.2
	l-6.4-6.4l0.2-0.2l0,0c0.4-0.4,0.9-0.8,1.5-1c0.5-0.2,1.1-0.3,1.7-0.4c0.6,0,1.2,0.1,1.7,0.3c0.5,0.2,1,0.6,1.5,1
	c0.4,0.4,0.8,0.9,1,1.5c0.2,0.5,0.3,1.1,0.3,1.7c0,0.6-0.1,1.2-0.3,1.7C18.4,19.8,18.1,20.3,17.7,20.7L17.7,20.7z"/>
</svg>
