<?xml version="1.0" encoding="utf-8"?>
<!-- Generator: Adobe Illustrator 23.0.5, SVG Export Plug-In . SVG Version: 6.00 Build 0)  -->
<svg version="1.1" id="Layer_1" xmlns="http://www.w3.org/2000/svg" xmlns:xlink="http://www.w3.org/1999/xlink" x="0px" y="0px"
	 viewBox="0 0 32 32" style="enable-background:new 0 0 32 32;" xml:space="preserve">
<style type="text/css">
	.st0{fill:none;stroke:#FFFFFF;stroke-width:0.8;stroke-linecap:round;stroke-linejoin:round;stroke-miterlimit:10;}
	.st1{fill:none;stroke:#FFFFFF;stroke-width:0.8;stroke-linejoin:round;stroke-miterlimit:10;}
</style>
<g>
	<path class="st0" d="M4.3,27.4h23.3"/>
	<path class="st1" d="M5.4,27.4l0.1-14c0-0.7,0.3-1.4,0.9-1.8l8.2-6.4C15,4.8,15.5,4.6,16,4.6c0.5,0,1,0.2,1.4,0.5l8.2,6.3
		c0.6,0.4,0.9,1.1,0.9,1.8v14"/>
	<path class="st1" d="M17.2,21.5h-2.3c-1,0-1.8,0.8-1.8,1.8v4.1h5.8v-4.1C18.9,22.3,18.1,21.5,17.2,21.5z M13.1,17.7h-2.3
		c-0.6,0-1.2-0.5-1.2-1.2v-1.8c0-0.6,0.5-1.2,1.2-1.2h2.3c0.6,0,1.2,0.5,1.2,1.2v1.8C14.2,17.2,13.7,17.7,13.1,17.7z M21.2,17.7
		h-2.3c-0.6,0-1.2-0.5-1.2-1.2v-1.8c0-0.6,0.5-1.2,1.2-1.2h2.3c0.6,0,1.2,0.5,1.2,1.2v1.8C22.4,17.2,21.9,17.7,21.2,17.7z"/>
	<path class="st0" d="M24.2,9.9l0-3.5H19"/>
</g>
</svg>
