<?xml version="1.0" encoding="utf-8"?>
<!-- Generator: Adobe Illustrator 23.0.5, SVG Export Plug-In . SVG Version: 6.00 Build 0)  -->
<svg version="1.1" id="Layer_1" xmlns="http://www.w3.org/2000/svg" xmlns:xlink="http://www.w3.org/1999/xlink" x="0px" y="0px"
	 viewBox="0 0 29 29" style="enable-background:new 0 0 29 29;" xml:space="preserve">
<style type="text/css">
	.st0{fill:#FFFFFF;}
</style>
<path class="st0" d="M21.2,3.1C21.2,3.1,21.2,3.1,21.2,3.1L21.2,3.1c-2.6-0.9-5.3-0.8-7.7,0.1c-2.4,1-4.2,2.7-4.9,4.9
	c-0.1,0.2,0,0.4,0.2,0.4c0,0,0,0,0,0c0,0,0,0,0,0c0.2,0.1,0.4,0,0.4-0.2c0.2-0.5,1.6-0.7,3.2-0.2c0.8,0.3,1.5,0.6,1.9,1.1
	c0.3,0.3,0.4,0.5,0.5,0.7c0,0.1,0,0.2,0,0.4c0,0,0,0,0,0c0,0,0,0,0,0c0,0,0,0,0,0.1c0,0,0,0,0,0.1c0,0,0,0,0,0.1c0,0,0,0,0,0.1
	c0,0,0,0,0.1,0c0,0,0,0,0.1,0c0,0,0,0,0,0c0,0,0.1,0,0.1,0c0,0,0,0,0,0c0,0,0,0,0,0c0,0,0,0,0.1,0c0,0,0,0,0,0c0,0,0,0,0,0
	c0,0,0,0,0.1,0c0,0,0,0,0,0c0,0,0,0,0,0c0,0,0,0,0-0.1c0,0,0,0,0,0c0,0,0,0,0,0c0.2-0.5,1.4-0.7,2.9-0.3l-4.1,12H5.5l-4.4-7
	C1,15,0.8,15,0.7,15.1c-0.2,0.1-0.2,0.3-0.1,0.5l4.4,7L2.8,26c-0.1,0.2,0,0.4,0.1,0.4c0.1,0,0.1,0,0.2,0c0.1,0,0.2-0.1,0.3-0.2
	l2.1-3.5h16l2.1,3.5c0.1,0.1,0.2,0.2,0.3,0.2c0.1,0,0.1,0,0.2,0c0.2-0.1,0.2-0.3,0.1-0.4L22,22.3c0,0,0,0,0,0c0,0,0,0,0,0
	c0,0,0,0-0.1,0c0,0,0,0-0.1,0c0,0,0,0-0.1,0c0,0,0,0,0,0H15L19,10.4c1.4,0.5,2.3,1.4,2.1,1.9c-0.1,0.2,0,0.4,0.2,0.4
	c0,0,0.1,0,0.1,0c0,0,0,0,0,0c0,0,0,0,0,0c0,0,0.1,0,0.1,0c0,0,0,0,0,0c0,0,0,0,0.1,0c0,0,0,0,0,0c0.1,0,0.1-0.1,0.1-0.1
	c0-0.1,0.1-0.2,0.1-0.2c0.2-0.1,0.4-0.2,0.8-0.3c0.6-0.1,1.4,0,2.2,0.3c1.6,0.5,2.6,1.5,2.4,2.1c-0.1,0.2,0,0.4,0.2,0.4c0,0,0,0,0,0
	c0,0,0,0,0,0c0,0,0.1,0,0.1,0c0.1,0,0.3-0.1,0.3-0.2C29.7,10.1,26.6,4.9,21.2,3.1z M14.9,8.8c-0.5-0.5-1.3-0.9-2.2-1.2
	c-1.2-0.4-2.3-0.4-3-0.2c0.8-1.6,2.3-2.8,4.1-3.5C15.7,3.1,17.9,3,20,3.4c-1.9,0.8-4.3,2.7-5,5.5C15,8.9,14.9,8.9,14.9,8.8z
	 M18.9,9.7L18.9,9.7c-1.3-0.4-2.6-0.5-3.3-0.1c0.5-3.2,3.5-5.2,5.4-5.8c1,1.7,2,4.9,0.7,7.7C21.2,10.8,20.3,10.1,18.9,9.7z
	 M25.2,11.7c-0.9-0.3-1.8-0.4-2.5-0.3c-0.1,0-0.2,0-0.3,0c1.1-2.7,0.4-5.6-0.5-7.4c4.1,1.7,6.5,5.6,5.9,9.3
	C27.3,12.7,26.3,12.1,25.2,11.7z"/>
</svg>
