<?xml version="1.0" encoding="utf-8"?>
<!-- Generator: Adobe Illustrator 23.0.5, SVG Export Plug-In . SVG Version: 6.00 Build 0)  -->
<svg version="1.1" id="Layer_1" xmlns="http://www.w3.org/2000/svg" xmlns:xlink="http://www.w3.org/1999/xlink" x="0px" y="0px"
	 viewBox="0 0 32 32" style="enable-background:new 0 0 32 32;" xml:space="preserve">
<style type="text/css">
	.st0{fill:none;}
	.st1{fill:#FFFFFF;}
</style>
<g>
	<path class="st0" d="M24.5,16c0,4.4-3.8,8.1-8.5,8.1c-4.7,0-8.5-3.6-8.5-8.1c0-2.3,1-4.4,2.7-5.9l-4.1,1.3v0.1c0,0.5-0.2,1-0.5,1.4
		l-0.6,0.8l0,0C5,13.9,4.9,14,4.9,14.1V16c0,5.7,4.8,10.4,10.8,10.6l0,0H16c4.8,0,9-2.9,10.5-7.2l0,0v0v-6.2c0-0.2-0.1-0.4-0.3-0.6
		v0c-0.9-0.6-1.4-1.6-1.4-2.6c0-0.1,0-0.2,0-0.3l0-0.1l0,0c-0.9-1.2-2.1-2.1-3.5-2.8L17.1,8C21.3,8.5,24.5,11.9,24.5,16z"/>
	<path class="st0" d="M5.2,11.5V10V9.8H5.1H1.6H1.5V10v1.5c0,0.4,0.1,0.7,0.3,1v0l0.1,0.2l3.3-1C5.2,11.6,5.2,11.6,5.2,11.5z"/>
	<polygon class="st0" points="21.3,6.7 22.3,6.4 22.3,6.4 21.3,6.7 	"/>
	<polygon class="st0" points="28.1,4.6 27.2,4.9 27.2,4.9 	"/>
	<polygon class="st0" points="5.2,11.7 5.2,11.7 6.1,11.4 6.1,11.4 	"/>
	<path class="st0" d="M8.4,16c0,4,3.4,7.3,7.6,7.3s7.6-3.3,7.6-7.3c0-4-3.4-7.3-7.6-7.3S8.4,12,8.4,16z"/>
	<path class="st0" d="M29,6c-0.3-0.3-0.6-0.5-0.9-0.5c-0.3,0-0.6,0.2-0.8,0.4c-0.3,0.3-0.5,0.6-0.7,1c-0.4,0.8-0.8,1.8-0.9,2.6
		l3.9,2.3c0.6-0.4,1-1.1,1-1.9c0-0.8-0.3-1.9-0.8-2.8C29.5,6.7,29.2,6.3,29,6z"/>
	<path class="st1" d="M27.2,4.9l0.9-0.3C27.7,4.6,27.4,4.7,27.2,4.9z"/>
	<path class="st1" d="M4.1,14.1v11.6l0.3-12.4C4.2,13.6,4.1,13.8,4.1,14.1z"/>
	<path class="st0" d="M4.1,14.1v11.6l0.3-12.4C4.2,13.6,4.1,13.8,4.1,14.1z"/>
	<path class="st1" d="M16,4.6c-3.9,0-7.4,1.8-9.6,4.7L6.1,9.7V9.2V5c0-0.2-0.2-0.4-0.4-0.4S5.2,4.8,5.2,5v3.8V9H5.1H3.9H3.8V8.9V5
		c0-0.2-0.2-0.4-0.4-0.4S2.9,4.8,2.9,5v3.8V9H2.8H1.6H1.5V8.9V5c0-0.2-0.2-0.4-0.4-0.4S0.6,4.8,0.6,5v6.5c0,0.5,0.2,1,0.5,1.4
		l0.8-0.3l-0.1-0.2v0c-0.2-0.3-0.3-0.6-0.3-1V10V9.8h0.2h3.4h0.2V10v1.5c0,0.1,0,0.1,0,0.2l0.9-0.3v0v0l0,0C8,7.7,11.8,5.4,16,5.4
		c1.9,0,3.7,0.5,5.3,1.3l1.1-0.3C20.5,5.3,18.3,4.6,16,4.6z"/>
	<path class="st0" d="M29,6c-0.3-0.3-0.6-0.5-0.9-0.5c-0.3,0-0.6,0.2-0.8,0.4c-0.3,0.3-0.5,0.6-0.7,1c-0.4,0.8-0.8,1.8-0.9,2.6
		l3.9,2.3c0.6-0.4,1-1.1,1-1.9c0-0.8-0.3-1.9-0.8-2.8C29.5,6.7,29.2,6.3,29,6z"/>
	<path class="st1" d="M7.5,16c0,4.4,3.8,8.1,8.5,8.1c4.7,0,8.5-3.6,8.5-8.1c0-4.1-3.2-7.5-7.3-8l-6.9,2.1C8.6,11.6,7.5,13.7,7.5,16z
		 M23.6,16c0,4-3.4,7.3-7.6,7.3S8.4,20,8.4,16c0-4,3.4-7.3,7.6-7.3S23.6,12,23.6,16z"/>
	<polygon class="st1" points="10.2,10.1 17.1,8 17.1,8 10.2,10.1 	"/>
	<path class="st1" d="M10.2,10.1L17.1,8c-0.4,0-0.7-0.1-1.1-0.1C13.8,7.9,11.7,8.8,10.2,10.1z"/>
	<path class="st0" d="M29,6c-0.3-0.3-0.6-0.5-0.9-0.5c-0.3,0-0.6,0.2-0.8,0.4c-0.3,0.3-0.5,0.6-0.7,1c-0.4,0.8-0.7,1.7-0.8,2.5h0.3
		v0.3l3.6,2.1c0.6-0.4,1-1.1,1-1.9c0-0.8-0.3-1.9-0.8-2.8C29.5,6.7,29.2,6.3,29,6z"/>
	<path class="st0" d="M25.9,9.9h-0.3V9.5l0,0l0,0l0,0l0,0h0l0,0c0,0.1,0,0.3,0,0.4c0,0.8,0.4,1.5,1,1.9c0.4,0.3,0.7,0.8,0.7,1.2
		v12.8c0,0.2,0.1,0.4,0.2,0.5c0.2,0.2,0.4,0.2,0.6,0.2c0.4,0,0.7-0.4,0.7-0.8V13.1c0-0.5,0.2-0.9,0.7-1.2l0.1,0l-3.6-2.1V9.9z"/>
	<path class="st1" d="M30.4,6.7c-0.3-0.6-0.6-1.1-1.1-1.5c-0.4-0.4-0.8-0.6-1.3-0.6h0l-0.9,0.3c-0.3,0.2-0.7,0.5-0.9,0.9
		c-0.5,0.7-0.9,1.6-1.2,2.5L25,8.5l-0.2-0.2c-0.7-0.8-1.6-1.4-2.5-2l-1.1,0.3c1.3,0.7,2.5,1.6,3.5,2.8l0,0l0,0.1c0,0.1,0,0.2,0,0.3
		c0,1,0.5,2,1.4,2.6v0c0.2,0.1,0.3,0.4,0.3,0.6v6.2v0l0,0c-1.5,4.3-5.7,7.2-10.5,7.2h-0.3l0,0C9.8,26.4,4.9,21.7,4.9,16v-1.9
		c0-0.1,0-0.3,0.1-0.4l0,0l0.6-0.8c0.3-0.4,0.5-0.9,0.5-1.4v-0.1l-0.9,0.3c0,0.3-0.1,0.6-0.3,0.8v0l-0.6,0.8L4.1,25.7v0.2
		c0,0.4-0.3,0.7-0.7,0.7s-0.7-0.3-0.7-0.7V14.1c0-0.3-0.1-0.6-0.3-0.8v0l-0.4-0.6l-0.8,0.3l0.6,0.8c0.1,0.1,0.1,0.2,0.1,0.4v11.7
		c0,0.8,0.7,1.5,1.6,1.5c0.9,0,1.6-0.7,1.6-1.5v-5l0.3-0.1c1.9,3.9,6,6.6,10.8,6.6c4.3,0,8.1-2.1,10.2-5.5l0.3-0.4v0.5v3.9
		c0,0.4,0.2,0.8,0.5,1l0,0v0c0.3,0.3,0.7,0.4,1.1,0.4c0,0,0.1,0,0.1,0c0.8-0.1,1.4-0.7,1.4-1.6l0-12.7c0-0.2,0.1-0.4,0.3-0.6l0,0
		c0.9-0.6,1.4-1.6,1.4-2.6C31.4,9.2,31,7.8,30.4,6.7z M29.5,11.8L29.5,11.8L29.5,11.8c-0.5,0.4-0.8,0.8-0.8,1.3v12.7
		c0,0.4-0.3,0.7-0.7,0.8c-0.2,0-0.4-0.1-0.6-0.2c-0.1-0.1-0.2-0.3-0.2-0.5V13.1c0-0.5-0.2-0.9-0.7-1.2c-0.6-0.4-1-1.2-1-1.9
		c0-0.1,0-0.3,0-0.4l0,0h0l0,0l0,0l0,0l0,0v0V9.4h0c0.1-0.8,0.4-1.7,0.8-2.5c0.2-0.4,0.5-0.8,0.7-1c0.2-0.3,0.5-0.4,0.8-0.4
		c0.3,0,0.6,0.2,0.9,0.5c0.3,0.3,0.5,0.7,0.8,1.2c0.5,0.9,0.8,2,0.8,2.8C30.5,10.7,30.1,11.4,29.5,11.8z"/>
	<path class="st1" d="M25.6,9.4v0.1C25.6,9.5,25.7,9.5,25.6,9.4L25.6,9.4z"/>
</g>
</svg>
