<?xml version="1.0" encoding="utf-8"?>
<!-- Generator: Adobe Illustrator 23.0.5, SVG Export Plug-In . SVG Version: 6.00 Build 0)  -->
<svg version="1.1" id="Layer_1" xmlns="http://www.w3.org/2000/svg" xmlns:xlink="http://www.w3.org/1999/xlink" x="0px" y="0px"
	 viewBox="0 0 29 29" style="enable-background:new 0 0 29 29;" xml:space="preserve">
<style type="text/css">
	.st0{fill:#FFFFFF;}
</style>
<path class="st0" d="M28.8,21.4c-4.2-1.5-8.4-2.3-12.6-2.5c0-0.4-0.1-0.8-0.1-1.2c0.2,0.1,0.4,0.1,0.7,0.1c0.7,0,1.1-0.3,1.4-0.6
	c0.3-0.2,0.5-0.4,0.9-0.4c0.4,0,0.6,0.2,0.9,0.4c0.3,0.3,0.7,0.6,1.4,0.6c0.7,0,1.1-0.3,1.4-0.6c0.3-0.2,0.5-0.4,0.9-0.4
	c0.4,0,0.6,0.2,0.9,0.4c0.3,0.3,0.7,0.6,1.4,0.6c0.7,0,1.1-0.3,1.4-0.6c0.3-0.2,0.5-0.4,0.9-0.4c0.2,0,0.4-0.1,0.4-0.3
	c0-0.2-0.2-0.3-0.4-0.3c-0.7,0-1.1,0.3-1.4,0.6c-0.3,0.2-0.5,0.4-0.9,0.4c-0.4,0-0.6-0.2-0.9-0.4c-0.3-0.3-0.7-0.6-1.4-0.6
	c-0.7,0-1.1,0.3-1.4,0.6c-0.3,0.2-0.5,0.4-0.9,0.4c-0.4,0-0.6-0.2-0.9-0.4c-0.3-0.3-0.7-0.6-1.4-0.6c-0.7,0-1.1,0.3-1.4,0.6
	c-0.3,0.2-0.5,0.4-0.9,0.4c-0.3,0-0.5-0.1-0.7-0.2c0,0,0,0-0.1,0c-0.2-3-0.3-5.3-0.3-5.8c1.6,0.1,3,0.7,4,1.9
	c0.9,1.1,1.3,2.3,1.3,2.3c0,0.1,0.1,0.2,0.3,0.2c0,0,0,0,0.1,0c0.1,0,0.2,0,0.3-0.1c0.7-0.9,1-1.9,0.8-3c-0.2-1.1-0.8-2-1.8-2.7
	c-0.6-0.4-1.2-0.6-1.9-0.7c1-0.1,2,0,3.1,0.2c2,0.5,3.4,1.6,3.4,1.6c0.1,0.1,0.3,0.1,0.4,0c0.1-0.1,0.2-0.2,0.2-0.3
	c0-2.9-2.6-5.2-5.8-5.2c-1.2,0-2.2,0.3-3.1,0.8c0.9-0.9,2-1.4,3.4-1.7c1.8-0.3,3.4,0,3.4,0c0.1,0,0.3,0,0.4-0.1
	c0.1-0.1,0.1-0.2,0-0.3c-1.4-2.3-4.6-3.2-7.1-2c-1.1,0.5-2,1.4-2.4,2.5c-0.5-1.1-1.3-1.9-2.4-2.5C9.5,0.8,6.3,1.7,5,4
	C4.9,4.1,4.9,4.3,5,4.4c0.1,0.1,0.2,0.1,0.4,0.1c0,0,1.6-0.3,3.4,0c1.4,0.3,2.6,0.8,3.4,1.7c-0.9-0.5-2-0.8-3.1-0.8
	c-3.2,0-5.8,2.3-5.8,5.2c0,0.1,0.1,0.2,0.2,0.3c0.1,0.1,0.3,0,0.4,0c0,0,1.4-1.1,3.4-1.6C8.4,9,9.4,8.9,10.4,9.1
	C9.7,9.2,9.1,9.4,8.5,9.8c-1,0.6-1.6,1.6-1.8,2.7c-0.2,1.1,0.1,2.1,0.8,3c0.1,0.1,0.2,0.1,0.3,0.1c0,0,0,0,0.1,0
	c0.1,0,0.2-0.1,0.3-0.2c0,0,0.3-1.2,1.2-2.3c1-1.2,2.3-1.8,3.9-1.9c0,0.5-0.1,2.7-0.3,5.6c-0.3,0.2-0.5,0.4-0.9,0.4
	c-0.4,0-0.6-0.2-0.9-0.4c-0.3-0.3-0.7-0.6-1.4-0.6c-0.7,0-1.1,0.3-1.4,0.6C8,17,7.8,17.1,7.4,17.1c-0.4,0-0.6-0.2-0.9-0.4
	c-0.3-0.3-0.7-0.6-1.4-0.6c-0.7,0-1.1,0.3-1.4,0.6c-0.3,0.2-0.5,0.4-0.9,0.4S2.1,17,1.8,16.7c-0.3-0.3-0.7-0.6-1.4-0.6
	c-0.2,0-0.4,0.1-0.4,0.3c0,0.2,0.2,0.3,0.4,0.3c0.4,0,0.6,0.2,0.9,0.4c0.3,0.3,0.7,0.6,1.4,0.6c0.7,0,1.1-0.3,1.4-0.6
	c0.3-0.2,0.5-0.4,0.9-0.4c0.4,0,0.6,0.2,0.9,0.4c0.3,0.3,0.7,0.6,1.4,0.6s1.1-0.3,1.4-0.6c0.3-0.2,0.5-0.4,0.9-0.4
	c0.4,0,0.6,0.2,0.9,0.4c0.3,0.3,0.7,0.6,1.4,0.6c0.4,0,0.6-0.1,0.9-0.2c0,0.4-0.1,0.8-0.1,1.2C5.2,19,0.5,21.3,0.3,21.4
	c-0.2,0.1-0.2,0.3-0.1,0.4C0.2,21.9,0.3,22,0.5,22c0.1,0,0.1,0,0.2,0c0,0,4.8-2.3,12.2-2.5c-0.2,2.5-0.4,5.2-0.7,7.7
	c0,0.1,0,0.2,0.1,0.2c0.1,0.1,0.2,0.1,0.3,0.1h4c0.1,0,0.2,0,0.3-0.1c0.1-0.1,0.1-0.2,0.1-0.2c-0.3-2.5-0.5-5.2-0.7-7.7
	c4.1,0.2,8.2,1,12.3,2.5c0,0,0.1,0,0.1,0c0.1,0,0.3-0.1,0.3-0.2C29,21.6,29,21.4,28.8,21.4z M14.5,11.1
	C14.5,11.1,14.6,11.1,14.5,11.1c0.1,0,0.2,0,0.2,0c0.1,0,0.2,0,0.3,0c0,0.3,0.1,1.2,0.2,2.7h-1.2c0.1-1.5,0.1-2.4,0.2-2.7
	C14.2,11.1,14.4,11.1,14.5,11.1z M13.7,17.6h1.7c0.1,0.8,0.1,1.7,0.2,2.5h-2C13.6,19.3,13.6,18.5,13.7,17.6z M13.9,14.4h1.3
	c0,0.8,0.1,1.6,0.2,2.5h-1.6C13.8,16.1,13.8,15.2,13.9,14.4z M13.4,20.8h2.1c0.1,0.8,0.1,1.7,0.2,2.5h-2.6
	C13.3,22.5,13.4,21.7,13.4,20.8z M21.7,12.5c0.1,0.7,0,1.3-0.3,1.9c-0.6-1.3-2.2-4-5.9-4c0.5-0.4,1.2-0.7,1.9-0.8
	c1-0.1,2,0.1,2.8,0.6C21,10.8,21.6,11.6,21.7,12.5z M25,9.9c-1-0.6-3-1.6-5.4-1.6c-1.5,0-3.1,0.4-4.7,1.5C15.4,7.7,17.4,6,20,6
	C22.5,6,24.6,7.7,25,9.9z M17.3,2.6c0.7-0.3,1.4-0.5,2.1-0.5c1.4,0,2.7,0.6,3.6,1.6c-1.8-0.1-6-0.1-7.9,3.7
	c-0.1-0.4-0.2-0.8-0.2-1.2c0,0,0,0,0-0.1c0-0.4,0.1-0.8,0.2-1.2C15.4,4,16.2,3.1,17.3,2.6z M6.9,3.7c-0.4,0-0.7,0-0.9,0
	c1.3-1.6,3.8-2.1,5.7-1.1C12.8,3.1,13.6,4,14,5c0.1,0.4,0.2,0.8,0.2,1.2c0,0,0,0,0,0.1c0,0.4-0.1,0.8-0.2,1.2
	C12.3,4.2,9,3.7,6.9,3.7z M4.1,9.9C4.5,7.7,6.6,6,9.1,6c2.5,0,4.6,1.6,5,3.8C10,7,5.7,9,4.1,9.9z M7.8,14.5
	c-0.3-0.6-0.4-1.3-0.3-1.9c0.1-0.9,0.7-1.7,1.5-2.2c0.7-0.4,1.4-0.7,2.2-0.7c0.2,0,0.4,0,0.6,0c0.7,0.1,1.4,0.4,1.9,0.8
	C10,10.5,8.4,13.2,7.8,14.5z M12.9,26.8c0.1-0.9,0.2-1.9,0.3-2.8h2.7c0.1,1,0.2,1.9,0.3,2.8H12.9z"/>
</svg>
