<?xml version="1.0" encoding="utf-8"?>
<!-- Generator: Adobe Illustrator 23.0.5, SVG Export Plug-In . SVG Version: 6.00 Build 0)  -->
<svg version="1.1" id="Layer_1" xmlns="http://www.w3.org/2000/svg" xmlns:xlink="http://www.w3.org/1999/xlink" x="0px" y="0px"
	 viewBox="0 0 29 29" style="enable-background:new 0 0 29 29;" xml:space="preserve">
<style type="text/css">
	.st0{fill:#FFFFFF;}
</style>
<path class="st0" d="M0.5,6c0-0.1,0-0.2,0.1-0.3L2.3,4c0.6-0.6,1.6-0.9,2.5-0.6C10.4,5,15.1,6.3,17.6,6.9l2.9-3.3
	c1.5-1.8,3.7-2.8,6-3.1C27,0.5,27.6,0.6,28,1c0.4,0.4,0.6,0.9,0.5,1.5l0,0.1c-0.2,2.3-1.3,4.4-3,5.9l-3.1,2.8
	c0.6,2.4,1.9,7.2,3.5,12.9c0.3,0.9,0,1.8-0.6,2.5l-1.7,1.7c-0.1,0.1-0.2,0.1-0.2,0.1c0,0,0,0,0,0c-0.1,0-0.2-0.1-0.3-0.1l-7.6-10.7
	l-4,3.6l1.1,3.6c0.2,0.6,0.1,1.4-0.4,1.9l-1.7,1.7c-0.1,0.1-0.2,0.1-0.2,0.1c0,0,0,0,0,0c-0.1,0-0.2-0.1-0.3-0.1l-3.9-5.5L0.7,19
	c-0.1-0.1-0.1-0.2-0.1-0.3c0-0.1,0-0.2,0.1-0.3l1.7-1.7c0.5-0.5,1.2-0.6,1.9-0.4L8,17.7l3.4-3.8L0.6,6.3C0.6,6.2,0.5,6.1,0.5,6
	L0.5,6z M23.4,27.6l1.4-1.4c0.5-0.5,0.6-1.1,0.4-1.8c-1.5-5.4-2.8-10-3.4-12.5L16,17.2L23.4,27.6z M8.4,18.4c0,0-0.1,0.1-0.1,0.1
	c0,0,0,0-0.1,0c0,0-0.1,0-0.1,0c0,0-0.1,0-0.1,0l-4.1-1.4c-0.4-0.1-0.8-0.1-1.1,0.2l-1.4,1.4l5.2,3.7c0,0,0.1,0,0.1,0.1l3.7,5.2
	l1.4-1.4c0.3-0.3,0.4-0.7,0.2-1.1l-1.1-3.9c0,0,0,0,0-0.1c0,0,0,0,0-0.1c0,0,0,0,0-0.1c0,0,0,0,0-0.1c0,0,0,0,0-0.1c0,0,0,0,0,0
	L25.1,8c1.6-1.4,2.5-3.4,2.7-5.5l0-0.1c0-0.3-0.1-0.7-0.3-0.9c-0.2-0.2-0.6-0.4-0.9-0.3C24.4,1.4,22.4,2.4,21,4L8.4,18.4z
	 M11.9,13.4L17,7.5C14.5,6.8,10,5.6,4.6,4.1c-0.6-0.2-1.3,0-1.8,0.4L1.4,5.9L11.9,13.4z"/>
</svg>
