<?xml version="1.0" encoding="utf-8"?>
<!-- Generator: Adobe Illustrator 23.0.5, SVG Export Plug-In . SVG Version: 6.00 Build 0)  -->
<svg version="1.1" id="Layer_1" xmlns="http://www.w3.org/2000/svg" xmlns:xlink="http://www.w3.org/1999/xlink" x="0px" y="0px"
	 viewBox="0 0 124 20" style="enable-background:new 0 0 124 20;" xml:space="preserve">
<style type="text/css">
	.st0{fill:#7F5026;}
</style>
<path class="st0" d="M61.4,0.9c0.2-0.5,0.9-0.5,1.1,0l2,6c0.1,0.2,0.3,0.4,0.6,0.4h6.3c0.6,0,0.8,0.7,0.3,1.1l-5.1,3.7
	c-0.2,0.2-0.3,0.4-0.2,0.7l2,6c0.2,0.5-0.4,1-0.9,0.7l-5.1-3.7c-0.2-0.2-0.5-0.2-0.7,0l-5.1,3.7c-0.5,0.3-1.1-0.1-0.9-0.7l2-6
	c0.1-0.2,0-0.5-0.2-0.7l-5.1-3.7C51.8,8,52,7.3,52.6,7.3h6.3c0.3,0,0.5-0.2,0.6-0.4L61.4,0.9z"/>
<g>
	<path class="st0" d="M113.4,0.9c0.2-0.5,0.9-0.5,1.1,0l2,6c0.1,0.2,0.3,0.4,0.6,0.4h6.3c0.6,0,0.8,0.7,0.3,1.1l-5.1,3.7
		c-0.2,0.2-0.3,0.4-0.2,0.7l2,6c0.2,0.5-0.4,1-0.9,0.7l-5.1-3.7c-0.2-0.2-0.5-0.2-0.7,0l-5.1,3.7c-0.5,0.3-1.1-0.1-0.9-0.7l2-6
		c0.1-0.2,0-0.5-0.2-0.7l-5.1-3.7c-0.5-0.3-0.2-1.1,0.3-1.1h6.3c0.3,0,0.5-0.2,0.6-0.4L113.4,0.9z"/>
	<path class="st0" d="M9.4,0.9c0.2-0.5,0.9-0.5,1.1,0l2,6c0.1,0.2,0.3,0.4,0.6,0.4h6.3c0.6,0,0.8,0.7,0.3,1.1l-5.1,3.7
		c-0.2,0.2-0.3,0.4-0.2,0.7l2,6c0.2,0.5-0.4,1-0.9,0.7l-5.1-3.7c-0.2-0.2-0.5-0.2-0.7,0l-5.1,3.7c-0.5,0.3-1.1-0.1-0.9-0.7l2-6
		c0.1-0.2,0-0.5-0.2-0.7L0.2,8.4C-0.2,8,0,7.3,0.6,7.3h6.3c0.3,0,0.5-0.2,0.6-0.4L9.4,0.9z"/>
</g>
<g>
	<path class="st0" d="M35.4,0.9c0.2-0.5,0.9-0.5,1.1,0l2,6c0.1,0.2,0.3,0.4,0.6,0.4h6.3c0.6,0,0.8,0.7,0.3,1.1l-5.1,3.7
		c-0.2,0.2-0.3,0.4-0.2,0.7l2,6c0.2,0.5-0.4,1-0.9,0.7l-5.1-3.7c-0.2-0.2-0.5-0.2-0.7,0l-5.1,3.7c-0.5,0.3-1.1-0.1-0.9-0.7l2-6
		c0.1-0.2,0-0.5-0.2-0.7l-5.1-3.7C25.8,8,26,7.3,26.6,7.3h6.3c0.3,0,0.5-0.2,0.6-0.4L35.4,0.9z"/>
	<path class="st0" d="M87.4,0.9c0.2-0.5,0.9-0.5,1.1,0l2,6c0.1,0.2,0.3,0.4,0.6,0.4h6.3c0.6,0,0.8,0.7,0.3,1.1l-5.1,3.7
		c-0.2,0.2-0.3,0.4-0.2,0.7l2,6c0.2,0.5-0.4,1-0.9,0.7l-5.1-3.7c-0.2-0.2-0.5-0.2-0.7,0l-5.1,3.7c-0.5,0.3-1.1-0.1-0.9-0.7l2-6
		c0.1-0.2,0-0.5-0.2-0.7l-5.1-3.7C77.8,8,78,7.3,78.6,7.3h6.3c0.3,0,0.5-0.2,0.6-0.4L87.4,0.9z"/>
</g>
</svg>
