<?xml version="1.0" encoding="utf-8"?>
<!-- Generator: Adobe Illustrator 23.0.5, SVG Export Plug-In . SVG Version: 6.00 Build 0)  -->
<svg version="1.1" id="Layer_1" xmlns="http://www.w3.org/2000/svg" xmlns:xlink="http://www.w3.org/1999/xlink" x="0px" y="0px"
	 viewBox="0 0 21 21" style="enable-background:new 0 0 21 21;" xml:space="preserve">
<g>
	<g>
		<g>
			<path d="M19.6,15.2h-0.3v-10c0-0.7-0.6-1.3-1.3-1.3H3.1c-0.7,0-1.3,0.6-1.3,1.3v10H1.4c-0.2,0-0.3,0.1-0.3,0.3v0.6
				c0,0.5,0.4,0.9,0.9,0.9h16.8c0.5,0,0.9-0.4,0.9-0.9v-0.6C19.9,15.3,19.7,15.2,19.6,15.2z M2.4,5.2c0-0.4,0.3-0.7,0.7-0.7h14.9
				c0.4,0,0.7,0.3,0.7,0.7v10H2.4V5.2z M19.2,16.2c0,0.2-0.2,0.3-0.3,0.3H2.1c-0.2,0-0.3-0.2-0.3-0.3v-0.3h6.8c0,0,0,0,0,0
				c0,0.2,0.1,0.3,0.3,0.3h3.2c0.2,0,0.3-0.1,0.3-0.3c0,0,0,0,0,0h6.8V16.2z"/>
			<path d="M17.6,5.2H3.4c-0.2,0-0.3,0.1-0.3,0.3v8.7c0,0.2,0.1,0.3,0.3,0.3h14.2c0.2,0,0.3-0.1,0.3-0.3V5.5
				C17.9,5.3,17.8,5.2,17.6,5.2z M17.3,13.9H3.7V5.8h13.6V13.9z"/>
		</g>
	</g>
</g>
</svg>
