<?xml version="1.0" encoding="utf-8"?>
<!-- Generator: Adobe Illustrator 23.0.5, SVG Export Plug-In . SVG Version: 6.00 Build 0)  -->
<svg version="1.1" id="Layer_1" xmlns="http://www.w3.org/2000/svg" xmlns:xlink="http://www.w3.org/1999/xlink" x="0px" y="0px"
	 viewBox="0 0 21 21" style="enable-background:new 0 0 21 21;" xml:space="preserve">
<style type="text/css">
	.st0{fill:none;}
	.st1{fill:#292929;}
</style>
<rect x="2.2" y="1.3" class="st0" width="16.7" height="18.4"/>
<g>
	<path class="st1" d="M19.4,5h-5.5c-0.2,0-0.3,0.1-0.3,0.3v7.1H6.8v-0.9c0-0.2-0.1-0.3-0.3-0.3H5.6v0.6h0.6v0.6H5v-1.2H4.4v1.2H3.1
		v-0.6h0.6v-0.6H2.8c-0.2,0-0.3,0.1-0.3,0.3v0.9H1.6c-0.2,0-0.3,0.1-0.3,0.3v6.7c0,0.2,0.1,0.3,0.3,0.3h17.8c0.2,0,0.3-0.1,0.3-0.3
		V5.3C19.7,5.1,19.6,5,19.4,5z M14.2,5.6h4.9v3.7h-4.9V5.6z M13.6,14.2H8.1V13h5.5V14.2z M1.9,13h5.5v1.2H1.9V13z M1.9,14.8h5.5v4.3
		H1.9V14.8z M8.1,14.8h2.5v4.3H8.1V14.8z M11.1,14.8h2.5v4.3h-2.5V14.8z M14.2,19.1V9.9h4.9v9.2L14.2,19.1L14.2,19.1z"/>
	<path class="st1" d="M14.8,6.8h0.6V8h-0.6V6.8z"/>
	<path class="st1" d="M14.8,11.1h0.6v1.2h-0.6V11.1z"/>
	<path class="st1" d="M3.1,13.6c0,0.2-0.1,0.3-0.3,0.3s-0.3-0.1-0.3-0.3c0-0.2,0.1-0.3,0.3-0.3C3,13.3,3.1,13.4,3.1,13.6z"/>
	<path class="st1" d="M4.4,13.6c0,0.2-0.1,0.3-0.3,0.3c-0.2,0-0.3-0.1-0.3-0.3c0-0.2,0.1-0.3,0.3-0.3C4.2,13.3,4.4,13.4,4.4,13.6z"
		/>
	<path class="st1" d="M5.6,13.6c0,0.2-0.1,0.3-0.3,0.3c-0.2,0-0.3-0.1-0.3-0.3c0-0.2,0.1-0.3,0.3-0.3C5.5,13.3,5.6,13.4,5.6,13.6z"
		/>
	<path class="st1" d="M6.8,13.6c0,0.2-0.1,0.3-0.3,0.3s-0.3-0.1-0.3-0.3c0-0.2,0.1-0.3,0.3-0.3C6.7,13.3,6.8,13.4,6.8,13.6z"/>
	<path class="st1" d="M1.6,7.1h6.1c0.2,0,0.3-0.1,0.3-0.3V5.9c0-0.1,0-0.2-0.1-0.2L6.7,4.4C6.7,4.4,6.6,4.4,6.5,4.4H6.2V1.6
		c0-0.2-0.1-0.3-0.3-0.3H3.4c-0.2,0-0.3,0.1-0.3,0.3v2.8H2.8c-0.1,0-0.2,0-0.2,0.1L1.4,5.7C1.3,5.7,1.3,5.8,1.3,5.9v0.9
		C1.3,7,1.4,7.1,1.6,7.1z M3.8,1.9h1.8v2.5H3.8V1.9z M1.9,6l1-1h3.4l1,1v0.5H1.9V6z"/>
	<path class="st1" d="M6.5,15.4H2.8c-0.2,0-0.3,0.1-0.3,0.3v2.5c0,0.2,0.1,0.3,0.3,0.3h3.7c0.2,0,0.3-0.1,0.3-0.3v-2.5
		C6.8,15.5,6.7,15.4,6.5,15.4z M6.2,17.9H3.1V16h3.1V17.9z"/>
	<path class="st1" d="M10.2,13.3h1.2v0.6h-1.2V13.3z"/>
	<path class="st1" d="M9.3,16.3h0.6v1.2H9.3V16.3z"/>
	<path class="st1" d="M11.7,16.3h0.6v1.2h-0.6V16.3z"/>
	<path class="st1" d="M8.7,9h1.8c0.2,0,0.3-0.1,0.3-0.3V8.3c0-0.6-0.4-1-0.9-1.2V1.3H9.3v5.9C8.7,7.3,8.4,7.8,8.4,8.3v0.3
		C8.4,8.8,8.5,9,8.7,9z M9.6,7.7c0.3,0,0.6,0.3,0.6,0.6H9C9,8,9.2,7.7,9.6,7.7z"/>
	<path class="st1" d="M10.8,6.5h1.8c0.2,0,0.3-0.1,0.3-0.3V5.9c0-0.6-0.4-1-0.9-1.2V1.3h-0.6v3.4c-0.5,0.1-0.9,0.6-0.9,1.2v0.3
		C10.5,6.4,10.6,6.5,10.8,6.5z M11.7,5.3c0.3,0,0.6,0.3,0.6,0.6h-1.2C11.1,5.6,11.4,5.3,11.7,5.3z"/>
</g>
</svg>
