<?xml version="1.0" encoding="utf-8"?>
<!-- Generator: Adobe Illustrator 23.0.5, SVG Export Plug-In . SVG Version: 6.00 Build 0)  -->
<svg version="1.1" id="Layer_1" xmlns="http://www.w3.org/2000/svg" xmlns:xlink="http://www.w3.org/1999/xlink" x="0px" y="0px"
	 viewBox="0 0 38 38" style="enable-background:new 0 0 38 38;" xml:space="preserve">
<style type="text/css">
	.st0{fill:#FFFFFF;}
	.st1{fill:none;}
</style>
<g>
	<polygon class="st0" points="19.82,17.65 19.82,17.65 19.82,17.65 	"/>
	<polygon class="st0" points="18.89,18.4 18.89,18.4 18.89,18.4 	"/>
	<polygon class="st0" points="17.97,21.36 17.97,21.36 17.97,21.36 	"/>
	<polygon class="st0" points="18.89,19.51 18.89,19.51 18.89,19.51 	"/>
	<path class="st0" d="M18.9,13.92c-6.66,0.22-6.66,9.85,0,10.07C25.56,23.77,25.56,14.14,18.9,13.92z M18.9,23.46
		c-1.6-0.01-3.08-0.88-3.88-2.27c-0.8-1.39-0.8-3.1,0-4.49c0.75-1.31,2.1-2.14,3.59-2.25v-0.02l0.29,0l0.29,0v0.02
		c1.49,0.11,2.84,0.94,3.59,2.25l0,0c0.8,1.39,0.8,3.1,0,4.49C21.98,22.59,20.51,23.45,18.9,23.46L18.9,23.46"/>
	<polygon class="st0" points="18.9,13.63 18.9,13.63 18.9,13.63 	"/>
	<polygon class="st0" points="22.53,16.85 22.59,16.82 22.53,16.85 	"/>
	<polygon class="st0" points="17.97,21.07 17.97,21.07 17.97,21.07 	"/>
	<path class="st0" d="M19.82,16.84h-0.37h-0.29v-0.29v-0.34c0-0.14-0.12-0.26-0.26-0.26c-0.14,0-0.26,0.12-0.26,0.26v0.44v0.19
		l-0.18,0.07c-0.34,0.14-0.59,0.44-0.69,0.79l0,0c-0.1,0.36-0.02,0.74,0.2,1.03c0.22,0.29,0.57,0.47,0.94,0.48v0
		c0.17,0,0.34,0.07,0.47,0.19c0.12,0.12,0.2,0.29,0.2,0.47c0,0.18-0.07,0.35-0.2,0.47c-0.13,0.12-0.29,0.19-0.47,0.19v0h-0.92
		c-0.14,0-0.26,0.12-0.26,0.26c0,0.14,0.11,0.26,0.26,0.26l0.01,0h0.36h0.32l-0.03,0.32c-0.02,0.18,0,0.34,0.05,0.44
		c0.02,0.05,0.05,0.08,0.07,0.09c0.03,0.02,0.07,0.03,0.14,0.04c0.09,0,0.13-0.03,0.16-0.04c0.03-0.02,0.05-0.05,0.07-0.11
		c0.05-0.13,0.05-0.32,0.04-0.54l-0.01-0.2l0.19-0.08c0.34-0.14,0.59-0.44,0.69-0.79c0.1-0.36,0.02-0.74-0.2-1.03
		c-0.22-0.29-0.57-0.47-0.94-0.48v0c-0.36,0-0.66-0.3-0.66-0.66c0-0.37,0.3-0.66,0.66-0.66h0h0.92c0.14,0,0.26-0.12,0.26-0.26
		C20.07,16.96,19.96,16.84,19.82,16.84z"/>
	<polygon class="st0" points="19.82,16.55 19.82,16.55 19.82,16.55 	"/>
	<path class="st0" d="M5.23,28.2"/>
	<path class="st0" d="M5.23,9.71"/>
	<polygon class="st0" points="17.97,20.26 17.97,20.26 17.97,20.26 	"/>
	<polygon class="st0" points="18.9,24.28 18.9,24.28 18.9,24.28 	"/>
	<path class="st0" d="M27.08,19.85"/>
	<path class="st0" d="M27.08,18.06"/>
	<polygon class="st0" points="6.99,24.31 6.99,24.31 6.99,24.31 	"/>
	<path class="st0" d="M30.59,24.11L30.59,24.11L30.59,24.11L30.59,24.11L30.59,24.11c0.46-0.46,1.08-0.71,1.72-0.72h0
		c0.34,0,0.61-0.27,0.61-0.61v-7.66c0-0.33-0.27-0.61-0.61-0.61h0c-0.65,0-1.27-0.26-1.73-0.72l0,0l0,0
		c-0.45-0.46-0.71-1.08-0.71-1.72h0c0-0.33-0.27-0.61-0.61-0.61H8.52c-0.33,0-0.61,0.27-0.61,0.61v0c0,0.65-0.26,1.27-0.72,1.72l0,0
		h0v0l0,0c-0.46,0.46-1.08,0.71-1.72,0.72h0c-0.33,0-0.61,0.27-0.61,0.61v7.66c0,0.33,0.27,0.61,0.61,0.61h0
		c0.65,0,1.27,0.26,1.72,0.72l0,0l0,0l0,0l0,0c0.46,0.46,0.72,1.08,0.72,1.72v0c0,0.33,0.27,0.61,0.61,0.61h20.75
		c0.34,0,0.61-0.27,0.61-0.61v0C29.88,25.18,30.13,24.56,30.59,24.11z M29.35,25.64l-0.02,0.27h-0.27H8.72l-0.28,0l-0.01-0.27
		c-0.05-0.72-0.36-1.39-0.87-1.9c-0.51-0.51-1.19-0.82-1.91-0.87l-0.27-0.02v-0.27v-7.25v-0.27l0.27-0.02
		c0.72-0.05,1.4-0.36,1.91-0.87l0,0c0.51-0.51,0.82-1.19,0.87-1.9L8.46,12h0.27h20.34h0.27l0.02,0.27c0.05,0.72,0.36,1.4,0.87,1.9h0
		c0.51,0.51,1.19,0.82,1.91,0.87l0.27,0.02v0.27v7.25v0.27l-0.27,0.02c-0.72,0.05-1.4,0.36-1.91,0.87
		C29.71,24.25,29.4,24.92,29.35,25.64z"/>
	<path class="st0" d="M30.15,19.85L30.15,19.85c0.32-0.55,0.32-1.23,0-1.78c-0.32-0.55-0.9-0.9-1.54-0.9
		c-0.64,0.01-1.22,0.35-1.54,0.9v0c-0.32,0.55-0.32,1.23,0,1.78v0c0.32,0.55,0.9,0.9,1.54,0.9C29.25,20.74,29.84,20.4,30.15,19.85z
		 M28.62,17.69c0.45,0.01,0.86,0.25,1.08,0.64l0,0l0,0v0l0,0c0.22,0.39,0.22,0.87,0,1.26l0,0c-0.22,0.39-0.64,0.63-1.09,0.64
		l-0.01,0l0,0.03l0.04,0.02l-0.04-0.05c-0.45-0.01-0.86-0.25-1.09-0.64l0,0c-0.22-0.39-0.22-0.87,0-1.26v0
		C27.75,17.94,28.16,17.69,28.62,17.69L28.62,17.69"/>
	<path class="st0" d="M34.45,9.96c-0.5-0.5-1.17-0.78-1.88-0.78H5.23c-0.7,0-1.38,0.28-1.88,0.78h0c-0.5,0.5-0.78,1.17-0.78,1.88
		v14.23c0,0.7,0.28,1.38,0.78,1.88h0c0.5,0.5,1.17,0.78,1.88,0.78h27.34c0.7,0,1.38-0.28,1.88-0.78l0,0c0.5-0.5,0.78-1.17,0.78-1.88
		V11.84C35.23,11.14,34.95,10.46,34.45,9.96L34.45,9.96z M34.7,11.84v14.23v0c0,0.56-0.23,1.1-0.62,1.5c-0.4,0.4-0.94,0.62-1.5,0.62
		h0H5.23h0c-0.56,0-1.1-0.23-1.5-0.62c-0.4-0.4-0.62-0.94-0.62-1.5v0V11.84v0c0-0.56,0.23-1.1,0.62-1.5c0.4-0.4,0.94-0.62,1.5-0.62
		h0h27.34h0c0.56,0,1.11,0.23,1.5,0.62C34.48,10.74,34.7,11.28,34.7,11.84L34.7,11.84z"/>
	<polygon class="st0" points="9.23,20.34 9.2,20.22 9.3,20.35 	"/>
	<path class="st0" d="M9.19,17.16c-0.64,0.01-1.22,0.35-1.54,0.9c-0.32,0.55-0.32,1.23,0,1.78l0,0c0.32,0.55,0.9,0.9,1.54,0.9
		c0.64-0.01,1.22-0.35,1.54-0.9l0,0c0.32-0.55,0.32-1.23,0-1.78l0,0C10.42,17.51,9.83,17.17,9.19,17.16z M9.21,20.35l0.04-0.01
		l-0.06-0.11c-0.45-0.01-0.86-0.25-1.09-0.64l0,0l0,0v0l0,0c-0.22-0.39-0.22-0.87,0-1.26l0,0v0l0,0l0,0
		c0.22-0.39,0.64-0.63,1.09-0.64l0.01,0l0.05-0.08L9.2,17.69c0.45,0.01,0.86,0.25,1.09,0.64l0,0c0.22,0.39,0.22,0.87,0,1.26l0,0
		c-0.22,0.39-0.64,0.63-1.09,0.64l-0.01,0"/>
	<polygon class="st0" points="8.36,19.44 8.36,19.44 8.36,19.44 	"/>
	<polygon class="st0" points="8.36,18.47 8.36,18.47 8.36,18.47 	"/>
	<path class="st0" d="M37.04,8.37L0.49,28.79l0.47,0.84L37.51,9.21L37.04,8.37z M0.49,28.79c-0.23,0.13-0.31,0.42-0.19,0.65
		c0.13,0.23,0.42,0.31,0.65,0.19L0.49,28.79z M37.51,9.21c0.23-0.13,0.31-0.42,0.19-0.65c-0.13-0.23-0.42-0.31-0.65-0.19L37.51,9.21
		z"/>
	<rect x="0.24" y="0.72" class="st1" width="37.52" height="36.55"/>
</g>
</svg>
