<svg width="24" height="17" viewBox="0 0 24 17" fill="none" xmlns="http://www.w3.org/2000/svg">
<path d="M23.5887 0C23.3405 0 23.1748 0.165393 23.1748 0.413916C23.1748 0.993218 22.1403 2.06896 20.6919 2.06896C19.2434 2.06896 18.2089 0.993159 18.2089 0.413916C18.2089 0.165681 18.0435 0 17.795 0C17.5468 0 17.3811 0.165393 17.3811 0.413916C17.3811 0.993218 16.3466 2.06896 14.8982 2.06896C13.4497 2.06896 12.4152 0.993159 12.4152 0.413916C12.4152 0.165681 12.2498 0 12.0013 0C11.7531 0 11.5874 0.165393 11.5874 0.413916C11.5874 0.993218 10.5529 2.06896 9.10447 2.06896C7.65603 2.06896 6.62153 0.993159 6.62153 0.413916C6.62153 0.165681 6.45614 0 6.20762 0C5.95938 0 5.7937 0.165393 5.7937 0.413916C5.7937 0.993218 4.75921 2.06896 3.31077 2.06896C1.86233 2.06896 0.827832 0.993159 0.827832 0.413916C0.827832 0.165681 0.662439 0 0.413917 0C0.165682 0 0 0.165393 0 0.413916C0 1.53124 1.53098 2.89685 3.31046 2.89685C4.55193 2.89685 5.62765 2.23471 6.20697 1.49001C6.78627 2.2347 7.86201 2.89685 9.10348 2.89685C10.3449 2.89685 11.4207 2.23471 12 1.49001C12.5793 2.2347 13.655 2.89685 14.8965 2.89685C16.138 2.89685 17.2137 2.23471 17.793 1.49001C18.3723 2.2347 19.4481 2.89685 20.6895 2.89685C22.4687 2.89685 24 1.53132 24 0.413916C24.002 0.165393 23.8366 0 23.5884 0H23.5887Z" fill="#292929"/>
<path d="M23.5887 7C23.3405 7 23.1748 7.16539 23.1748 7.41392C23.1748 7.99322 22.1403 9.06896 20.6919 9.06896C19.2434 9.06896 18.2089 7.99316 18.2089 7.41392C18.2089 7.16568 18.0435 7 17.795 7C17.5468 7 17.3811 7.16539 17.3811 7.41392C17.3811 7.99322 16.3466 9.06896 14.8982 9.06896C13.4497 9.06896 12.4152 7.99316 12.4152 7.41392C12.4152 7.16568 12.2498 7 12.0013 7C11.7531 7 11.5874 7.16539 11.5874 7.41392C11.5874 7.99322 10.5529 9.06896 9.10447 9.06896C7.65603 9.06896 6.62153 7.99316 6.62153 7.41392C6.62153 7.16568 6.45614 7 6.20762 7C5.95938 7 5.7937 7.16539 5.7937 7.41392C5.7937 7.99322 4.75921 9.06896 3.31077 9.06896C1.86233 9.06896 0.827832 7.99316 0.827832 7.41392C0.827832 7.16568 0.662439 7 0.413917 7C0.165682 7 0 7.16539 0 7.41392C0 8.53124 1.53098 9.89685 3.31046 9.89685C4.55193 9.89685 5.62765 9.23471 6.20697 8.49001C6.78627 9.2347 7.86201 9.89685 9.10348 9.89685C10.3449 9.89685 11.4207 9.23471 12 8.49001C12.5793 9.2347 13.655 9.89685 14.8965 9.89685C16.138 9.89685 17.2137 9.23471 17.793 8.49001C18.3723 9.2347 19.4481 9.89685 20.6895 9.89685C22.4687 9.89685 24 8.53132 24 7.41392C24.002 7.16568 23.8366 7 23.5884 7H23.5887Z" fill="#292929"/>
<path d="M23.5887 13.3042C23.3405 13.3042 23.1748 13.4696 23.1748 13.7181C23.1748 14.2974 22.1403 15.3732 20.6919 15.3732C19.2434 15.3732 18.2089 14.2974 18.2089 13.7181C18.2089 13.4699 18.0435 13.3042 17.795 13.3042C17.5468 13.3042 17.3811 13.4696 17.3811 13.7181C17.3811 14.2974 16.3466 15.3732 14.8982 15.3732C13.4497 15.3732 12.4152 14.2974 12.4152 13.7181C12.4152 13.4699 12.2498 13.3042 12.0013 13.3042C11.7531 13.3042 11.5874 13.4696 11.5874 13.7181C11.5874 14.2974 10.5529 15.3732 9.10447 15.3732C7.65603 15.3732 6.62153 14.2974 6.62153 13.7181C6.62153 13.4699 6.45614 13.3042 6.20762 13.3042C5.95938 13.3042 5.7937 13.4696 5.7937 13.7181C5.7937 14.2974 4.75921 15.3732 3.31077 15.3732C1.86233 15.3732 0.827832 14.2974 0.827832 13.7181C0.827832 13.4699 0.662439 13.3042 0.413917 13.3042C0.165682 13.3042 0 13.4696 0 13.7181C0 14.8354 1.53098 16.2011 3.31046 16.2011C4.55193 16.2011 5.62765 15.5389 6.20697 14.7942C6.78627 15.5389 7.86201 16.2011 9.10348 16.2011C10.3449 16.2011 11.4207 15.5389 12 14.7942C12.5793 15.5389 13.655 16.2011 14.8965 16.2011C16.138 16.2011 17.2137 15.5389 17.793 14.7942C18.3723 15.5389 19.4481 16.2011 20.6895 16.2011C22.4687 16.2011 24 14.8355 24 13.7181C24.002 13.4696 23.8366 13.3042 23.5884 13.3042H23.5887Z" fill="#292929"/>
</svg>
