<?xml version="1.0" encoding="utf-8"?>
<!-- Generator: Adobe Illustrator 23.0.5, SVG Export Plug-In . SVG Version: 6.00 Build 0)  -->
<svg version="1.1" id="Layer_1" xmlns="http://www.w3.org/2000/svg" xmlns:xlink="http://www.w3.org/1999/xlink" x="0px" y="0px"
	 viewBox="0 0 38 38" style="enable-background:new 0 0 38 38;" xml:space="preserve">
<style type="text/css">
	.st0{fill:#FFFFFF;}
	.st1{fill:none;}
</style>
<g>
	<path class="st0" d="M9.16,23.35H8.46v0.69h0.69V23.35z M8.06,22.56h1.88v2.28H7.67v-2.28H8.06z"/>
	<path class="st0" d="M18.72,23.35h-0.69v0.69h0.69V23.35z M17.63,22.56h1.88v2.28h-2.28v-2.28H17.63z"/>
	<path class="st0" d="M13.77,23.35h-0.69v0.69h0.69V23.35z M12.67,22.56h1.88v2.28h-2.28v-2.28H12.67z"/>
	<rect x="7.56" y="27.98" class="st0" width="9.98" height="0.76"/>
	<path class="st0" d="M31.49,25.69c-0.58,0-1.04,0.46-1.04,1.04c0,0.58,0.46,1.04,1.04,1.04c0.58,0,1.04-0.47,1.04-1.04
		C32.53,26.16,32.06,25.69,31.49,25.69z M29.92,27.69c-0.17-0.28-0.27-0.61-0.27-0.96c0-0.35,0.1-0.67,0.27-0.95
		c-0.7-0.29-1.46,0.2-1.46,0.95c0,0.73,0.74,1.24,1.42,0.97L29.92,27.69z M31.49,24.9c1.01,0,1.83,0.82,1.83,1.83
		c0,1.01-0.82,1.84-1.83,1.84c-0.37,0-0.71-0.11-0.99-0.29c-0.72,0.47-1.68,0.37-2.29-0.24c-0.34-0.33-0.54-0.79-0.54-1.3
		c0-0.5,0.21-0.96,0.54-1.29c0.61-0.61,1.56-0.71,2.29-0.24C30.78,25.01,31.12,24.9,31.49,24.9L31.49,24.9z"/>
	<rect x="0.89" y="6.89" class="st1" width="36.21" height="24.23"/>
	<g>
		<polygon class="st0" points="4.31,25.89 4.12,25.93 4.31,25.89 		"/>
		<path class="st0" d="M36.72,14.14c0-0.78-0.64-1.42-1.42-1.42h-1.38h-0.16l-0.03-0.16L32.9,8.41C32.75,7.65,32,7.15,31.23,7.3h0
			c-9.59,1.92-19.28,3.73-28.83,5.77c-0.74,0.16-1.24,0.9-1.09,1.64l0,0c0.96,4.92,2.15,9.92,3.21,14.84l0,0.01
			c0.12,0.67,0.71,1.16,1.39,1.16H35.3c0.78,0,1.42-0.64,1.42-1.41V14.14z M31.3,7.67c0.56-0.11,1.12,0.25,1.23,0.82h0l0.8,4.01
			l0.05,0.23h-0.24H8.01l-0.04-0.38L31.3,7.67z M4.73,13.38C4.59,13.6,4.5,13.86,4.5,14.14v11.75l-0.38,0.04L1.67,14.65l0,0h0
			c-0.11-0.55,0.27-1.09,0.81-1.21l0,0l2.01-0.4l0.29-0.05L4.8,13.2l0,0l0.01,0.16L4.73,13.38z M5.92,13.1H35.3
			c0.57,0,1.05,0.47,1.05,1.05v1.37v0.19h-0.19H5.07H4.88l0-0.19l0-1.37C4.88,13.57,5.34,13.1,5.92,13.1z M36.35,16.08v0.19v1.32
			v0.19h-0.19H5.07H4.88v-0.19v-1.32v-0.19h0.19h31.08H36.35z M35.3,30.35H5.92c-0.57,0-1.04-0.47-1.04-1.04V18.35v-0.19h0.19h31.08
			h0.19l0,0.19l0,10.96C36.35,29.89,35.87,30.35,35.3,30.35z"/>
	</g>
</g>
</svg>
