<?xml version="1.0" encoding="utf-8"?>
<!-- Generator: Adobe Illustrator 17.0.0, SVG Export Plug-In . SVG Version: 6.00 Build 0)  -->
<!DOCTYPE svg PUBLIC "-//W3C//DTD SVG 1.1//EN" "http://www.w3.org/Graphics/SVG/1.1/DTD/svg11.dtd">
<svg version="1.1" xmlns="http://www.w3.org/2000/svg" xmlns:xlink="http://www.w3.org/1999/xlink" x="0px" y="0px" width="31px"
	 height="31px" viewBox="0 0 31 31" enable-background="new 0 0 31 31" xml:space="preserve">
<g id="Layer_2">
</g>
<g id="Layer_1">
	<rect fill="none" width="31" height="31"/>
	<g>
		<path fill="#FFFFFF" d="M30.802,7.027c-0.066-0.419-0.258-0.808-0.55-1.116c-0.292-0.308-0.671-0.519-1.086-0.606l-5.055-1.111
			c-0.542-0.118-1.103-0.119-1.645-0.001c-0.542,0.117-1.053,0.35-1.498,0.682L6.028,15.758l-4.185-0.172
			c-0.336-0.012-0.668,0.082-0.948,0.269c-0.28,0.187-0.494,0.458-0.611,0.773c-0.117,0.316-0.132,0.66-0.042,0.985
			c0.09,0.324,0.279,0.612,0.542,0.823l4.306,3.384c0.517,0.629,0.861,0.508,9.412-4.151l0.801,8.112
			c0.013,0.221,0.089,0.434,0.219,0.614c0.13,0.18,0.307,0.319,0.513,0.402c0.148,0.059,0.306,0.088,0.465,0.086
			c0.32-0.01,0.626-0.135,0.861-0.353l2.058-1.877c0.205-0.19,0.344-0.44,0.396-0.715L21.7,13.692
			c3.074-1.722,5.985-3.341,8.06-4.521c0.371-0.209,0.67-0.526,0.856-0.909C30.802,7.878,30.867,7.448,30.802,7.027z M28.907,7.673
			c-2.153,1.223-5.167,2.936-8.404,4.71l-0.353,0.198l-2.006,10.91l-1.266,1.154l-0.947-9.731L14.785,15.5
			c-6.174,3.444-8.232,4.443-8.938,4.753l-3.703-2.936l4.374,0.189l15.5-11.246c0.244-0.182,0.523-0.311,0.82-0.378
			c0.297-0.067,0.604-0.07,0.903-0.01l5.038,1.085c0.078,0.014,0.149,0.053,0.203,0.11c0.054,0.057,0.089,0.13,0.098,0.209
			c0.018,0.076,0.011,0.155-0.02,0.227C29.028,7.574,28.975,7.634,28.907,7.673z"/>
		<path fill="#FFFFFF" d="M6.028,10.798l3.066,0.861l1.412-1.025L7.061,9.636l1.55-0.947l4.71-0.138l1.981-1.438L8.611,7.319
			C8.4,7.308,8.191,7.359,8.008,7.466L5.744,8.783C5.556,8.894,5.406,9.058,5.312,9.254C5.218,9.45,5.184,9.67,5.214,9.886
			c0.03,0.216,0.124,0.417,0.269,0.58C5.627,10.628,5.817,10.743,6.028,10.798z"/>
	</g>
</g>
</svg>
