<svg width="24" height="22" viewBox="0 0 24 22" fill="none" xmlns="http://www.w3.org/2000/svg">
<path d="M5.38494 14.1486C6.64666 13.2775 8.15444 13.2775 9.41709 14.1486C9.55927 14.2467 9.70653 14.3252 9.85307 14.4061C9.87846 14.4217 9.90113 14.44 9.92906 14.4511C10.5939 14.8026 11.2961 14.9858 12.0005 14.9856C12.8877 14.9856 13.7754 14.7065 14.584 14.1486C15.8471 13.277 17.3544 13.2781 18.6166 14.1486C20.2332 15.2638 22.1664 15.2649 23.784 14.1486C24.0116 13.9919 24.0688 13.6804 23.9119 13.4531C23.7547 13.2255 23.4436 13.1682 23.2165 13.3255C21.9543 14.1956 20.447 14.1965 19.1839 13.3255C18.7577 13.0313 18.3092 12.8196 17.8509 12.6805V2.41679C17.8509 1.08436 16.7669 0 15.4345 0H13.8906C13.6142 0 13.3906 0.223795 13.3906 0.500025C13.3906 0.776256 13.6142 1.00005 13.8906 1.00005H15.4345C16.2158 1.00005 16.8509 1.63555 16.8509 2.41684V3.22839H10.6106V2.41684C10.6106 1.08441 9.52657 4.64021e-05 8.19415 4.64021e-05H6.65024C6.37385 4.64021e-05 6.15022 0.223841 6.15022 0.500072C6.15022 0.776302 6.37383 1.0001 6.65024 1.0001H8.19415C8.97543 1.0001 9.61056 1.6356 9.61056 2.41688V13.105C8.07427 12.2288 6.31294 12.2934 4.81737 13.3259C3.55422 14.197 2.04694 14.196 0.784715 13.3259C0.557656 13.1686 0.246062 13.226 0.0893684 13.4536C-0.0673248 13.6808 -0.0101956 13.9923 0.217225 14.149C1.83495 15.2649 3.7675 15.2642 5.38508 14.1489L5.38494 14.1486ZM16.8507 9.61703H10.6104V7.42259H16.8507V9.61703ZM14.0164 13.3254C12.9562 14.0569 11.7255 14.1659 10.6102 13.6691V10.6171H16.8505V12.5079C15.8799 12.4504 14.9009 12.7148 14.0163 13.3255L14.0164 13.3254ZM16.8507 4.22795V6.42221L10.6104 6.42239V4.22813L16.8507 4.22795Z" fill="#292929"/>
<path d="M23.2159 16.5196C21.9527 17.3909 20.4455 17.3905 19.1832 16.5196C17.5655 15.4033 15.633 15.4039 14.0154 16.5196C12.7537 17.3907 11.2464 17.3907 9.98379 16.5196C8.36607 15.4041 6.43407 15.4037 4.81639 16.5196C3.55412 17.3905 2.04689 17.3909 0.783738 16.5196C0.556679 16.3622 0.245085 16.42 0.0883919 16.6473C-0.0683013 16.8745 -0.0111722 17.1861 0.216249 17.3428C1.83397 18.459 3.76689 18.4585 5.38364 17.3428C6.64624 16.4717 8.15407 16.4722 9.41579 17.3428C10.2248 17.901 11.112 18.1799 11.9998 18.1799C12.8869 18.1799 13.7747 17.9008 14.5832 17.3428C15.8455 16.4724 17.3527 16.4719 18.6159 17.3428C20.2331 18.459 22.1662 18.4585 23.7833 17.3428C24.0109 17.1861 24.068 16.8745 23.9111 16.6473C23.7539 16.42 23.4429 16.3622 23.2158 16.5196H23.2159Z" fill="#292929"/>
<path d="M23.216 19.7141C21.9537 20.5845 20.4465 20.585 19.1833 19.7141C17.5656 18.5975 15.6327 18.5983 14.0159 19.7141C12.7533 20.5852 11.2464 20.5852 9.98379 19.7141C8.36607 18.5984 6.43407 18.5975 4.8164 19.7141C3.55324 20.585 2.04597 20.5845 0.783738 19.7141C0.55668 19.5569 0.245085 19.6142 0.0883918 19.8418C-0.0683015 20.0691 -0.011172 20.3806 0.216249 20.5373C1.83397 21.653 3.76652 21.6525 5.38411 20.5373C6.64582 19.6662 8.15361 19.6662 9.41625 20.5373C10.2251 21.0954 11.1123 21.3744 12 21.3743C12.8872 21.3743 13.775 21.0952 14.5835 20.5373C15.8467 19.666 17.3539 19.6664 18.6162 20.5373C20.2328 21.6528 22.1659 21.6532 23.7836 20.5373C24.0112 20.3806 24.0683 20.069 23.9114 19.8418C23.7542 19.6142 23.4431 19.5569 23.2161 19.7141H23.216Z" fill="#292929"/>
</svg>
