<?xml version="1.0" encoding="utf-8"?>
<!-- Generator: Adobe Illustrator 23.0.5, SVG Export Plug-In . SVG Version: 6.00 Build 0)  -->
<svg version="1.1" id="Layer_1" xmlns="http://www.w3.org/2000/svg" xmlns:xlink="http://www.w3.org/1999/xlink" x="0px" y="0px"
	 viewBox="0 0 38 38" style="enable-background:new 0 0 38 38;" xml:space="preserve">
<style type="text/css">
	.st0{fill:#FFFFFF;}
</style>
<g>
	<g>
		<path class="st0" d="M9.17,35.17c0.09,0.01,0.18-0.03,0.24-0.09l0,0l3.8-3.78l0,0c0.06-0.06,0.09-0.14,0.09-0.22
			c0-0.08-0.03-0.16-0.09-0.22l0,0l-6.06-6.06l0,0c-0.06-0.06-0.14-0.09-0.22-0.09c-0.08,0-0.16,0.03-0.22,0.09l0,0l-3.79,3.78l0,0
			c-0.06,0.06-0.09,0.14-0.09,0.22c0,0.08,0.03,0.16,0.09,0.22l0,0l6.02,6.06l0,0c0.06,0.06,0.14,0.09,0.22,0.09 M12.37,31.2
			l-3.05,3.05l-0.17,0.17l-0.17-0.17l-5.24-5.24l-0.17-0.17l0.17-0.17l3.05-3.05l0.17-0.17l0.17,0.17l5.24,5.24l0.17,0.17
			L12.37,31.2z"/>
	</g>
	<g>
		<polygon class="st0" points="13.08,19.99 13.32,19.99 13.08,19.99 		"/>
		<polygon class="st0" points="18.86,21.59 18.86,21.59 18.86,21.59 		"/>
		<polygon class="st0" points="27.24,15.26 27.24,15.26 27.24,15.26 		"/>
		<polygon class="st0" points="12.69,31.33 12.69,31.33 12.71,31.1 12.69,31.33 		"/>
		<polygon class="st0" points="20.31,25.87 20.31,25.87 20.31,25.87 		"/>
		<polygon class="st0" points="12.98,13.13 12.98,13.13 12.98,13.13 		"/>
		<polygon class="st0" points="10.81,13.09 10.95,13.28 10.81,13.09 		"/>
		<polygon class="st0" points="13.02,31.25 13.02,31.25 13.02,31.25 		"/>
		<polygon class="st0" points="7.15,25.8 7.15,25.8 7.15,25.8 		"/>
		<polygon class="st0" points="13.06,12.91 13.06,12.91 13.06,12.92 13.05,12.92 		"/>
		<polygon class="st0" points="20.48,26.03 20.48,26.03 20.48,26.03 		"/>
		<polygon class="st0" points="12.69,31.33 12.69,31.33 12.69,31.33 		"/>
		<polygon class="st0" points="16.54,21.85 16.54,21.85 16.54,21.85 		"/>
		<polygon class="st0" points="14.48,14.72 14.48,14.72 14.48,14.72 		"/>
		<polygon class="st0" points="20.73,19.01 20.73,19.01 20.73,19.01 		"/>
		<polygon class="st0" points="14.62,16.44 14.62,16.44 14.62,16.44 		"/>
		<polygon class="st0" points="22.28,16.58 22.28,16.58 22.28,16.58 		"/>
		<polygon class="st0" points="23.82,14.23 23.82,14.23 23.82,14.23 23.82,14.23 		"/>
		<path class="st0" d="M23.89,14.48c-0.69,0.54-1.17,1.29-1.38,2.14v0.11v0.03l-0.01,0.03c-0.25,0.97-0.83,1.82-1.64,2.41l0,0
			l-2.43,1.9l0,0l0,0c-0.55,0.42-1.17,0.75-1.83,0.98l0,0l-0.5,0.17l0,0c-0.33,0.11-0.69,0.1-1.02-0.03l0,0l0,0c0,0,0,0,0,0v0
			c-0.32-0.13-0.59-0.38-0.74-0.69l0,0c0,0,0,0,0,0c0,0,0,0,0,0l0,0c-0.24-0.46-0.36-0.98-0.36-1.5l0,0c0,0,0-0.01,0-0.01
			c0,0,0,0,0-0.01h0c-0.01-0.14-0.01-0.27,0-0.41l0-0.01l0,0l0.4-3.17l0,0c0-0.02,0-0.05,0-0.07l0-0.01h0l-0.14-1.58
			c-0.04-0.36-0.18-0.7-0.4-0.99c-0.22-0.29-0.52-0.5-0.87-0.63l-0.04-0.01l-0.23-0.08c-0.59-0.2-1.25-0.11-1.76,0.25
			c-0.51,0.36-0.82,0.95-0.83,1.57v0.16v0.77v0c-0.01,2.23-0.73,4.41-2.07,6.2l0,0c-0.44,0.59-0.68,1.31-0.66,2.04l0,0h0v1.77
			c0,0.08,0.03,0.16,0.09,0.22l0,0L12.47,31l0,0c0.06,0.06,0.14,0.09,0.22,0.09l0.02,0c0.07,0.01,0.13-0.01,0.19-0.04l5.03-3.21l0,0
			c0.87-0.55,1.67-1.22,2.38-1.97l0,0l3.28-3.53l0,0c0.77-0.82,1.31-1.83,1.56-2.93l0.19-0.86l0,0c0.28-1.27,0.87-2.45,1.72-3.44
			l0,0l0,0c0,0,0,0,0,0l0,0l0.93-1.09l0,0c0.08-0.09,0.1-0.22,0.05-0.34l0,0c-0.05-0.11-0.16-0.18-0.29-0.18h0h-0.98h0
			c-1.01,0-1.99,0.32-2.8,0.92L23.89,14.48L23.89,14.48 M14,21.74l-0.26,0.05c0.22,0.46,0.61,0.83,1.09,1.02
			c0.48,0.19,1.01,0.2,1.49,0.01l0.01,0v0l0.51-0.17l0,0c0.72-0.24,1.4-0.6,2.01-1.06l0.03-0.02l2.43-1.86l0,0
			c0.91-0.69,1.55-1.67,1.82-2.78v-0.11V16.8l0.01-0.02c0.15-0.72,0.54-1.36,1.11-1.83l0,0l0,0c0,0,0,0,0,0l0,0l0.06-0.05l0.01-0.01
			l0.01-0.01c0.65-0.46,1.42-0.73,2.22-0.75l0.54-0.02l-0.36,0.41l-0.15,0.17c-0.93,1.06-1.57,2.34-1.88,3.71l0,0.01l0,0l-0.23,0.86
			l0,0c-0.23,0.98-0.71,1.89-1.4,2.62l0,0l-3.28,3.53l0,0c0,0,0,0,0,0l0,0l0,0c-0.66,0.72-1.41,1.35-2.23,1.87l-0.36,0.23v0
			l-4.3,2.74l-0.16,0.1l-0.13-0.13l-4.52-4.52l-0.07-0.07l0-0.1l0.07-1.54h0c0-0.58,0.19-1.15,0.54-1.62l0,0
			c1.4-1.9,2.15-4.21,2.14-6.57v0v-0.81V14.9v0l0.01,0l-0.01,0c0.01-0.42,0.22-0.82,0.56-1.06c0.35-0.24,0.79-0.31,1.19-0.17l0.01,0
			l0.01,0l0.23,0.1l0,0c0.23,0.08,0.42,0.23,0.57,0.42h0c0.15,0.19,0.25,0.42,0.28,0.67l0,0l0.15,1.48l0,0.03l0,0.03l-0.45,3.09
			c-0.01,0.17-0.01,0.33,0,0.5l0,0.01v0.01c0,0.62,0.14,1.24,0.42,1.8l0,0"/>
		<polygon class="st0" points="22.89,21.74 22.89,21.74 22.89,21.74 		"/>
		<polygon class="st0" points="24.4,15.13 24.4,15.13 24.4,15.12 24.4,15.13 		"/>
	</g>
	<path class="st0" d="M34.86,10.5h-1.09c-0.17,0-0.31,0.14-0.31,0.31c0,0.17,0.14,0.31,0.31,0.31h1.09c0.17,0,0.31-0.14,0.31-0.31
		C35.18,10.64,35.04,10.5,34.86,10.5z"/>
	<path class="st0" d="M4.23,10.5H3.14c-0.17,0-0.31,0.14-0.31,0.31c0,0.17,0.14,0.31,0.31,0.31h1.09c0.17,0,0.31-0.14,0.31-0.31
		C4.54,10.64,4.4,10.5,4.23,10.5z"/>
	<g>
		<polygon class="st0" points="31.58,13.54 31.58,13.54 31.58,13.54 		"/>
		<polygon class="st0" points="6.42,13.54 6.42,13.54 6.42,13.54 		"/>
		<polygon class="st0" points="34.15,11.19 34.15,11.19 34.15,11.19 		"/>
		<path class="st0" d="M33.98,11.03c0.09-0.09,0.11-0.22,0.07-0.34c-0.05-0.12-0.16-0.19-0.28-0.19H4.23
			c-0.13,0-0.24,0.08-0.28,0.19c-0.05,0.12-0.02,0.25,0.07,0.34l2.19,2.18l0,0c0.06,0.06,0.14,0.09,0.22,0.09h25.16
			c0.08,0,0.16-0.03,0.22-0.09l0,0L33.98,11.03z M31.52,12.61l-0.07,0.07h-0.1H6.65h-0.1l-0.07-0.07l-1.09-1.09l-0.4-0.4h0.57h26.89
			h0.57l-0.4,0.4L31.52,12.61z"/>
	</g>
	<path class="st0" d="M24.26,3.77c-3.4-1.26-7.13-1.26-10.53,0c-3.4,1.26-6.22,3.71-7.96,6.89l0,0c-0.05,0.1-0.05,0.21,0.01,0.31
		l0,0c0.06,0.09,0.16,0.15,0.27,0.15h0h25.9h0v0.03l0-0.03c0.11,0,0.21-0.06,0.27-0.15c0.06-0.09,0.06-0.21,0.01-0.31l0,0
		C30.49,7.48,27.66,5.04,24.26,3.77z M31.46,10.5h-0.42H6.97h-0.4l0.2-0.36c1.74-2.77,4.37-4.86,7.46-5.94
		c3.09-1.08,6.45-1.08,9.54,0c3.09,1.08,5.72,3.17,7.46,5.94L31.46,10.5z"/>
</g>
</svg>
