<?xml version="1.0" encoding="utf-8"?>
<!-- Generator: Adobe Illustrator 23.0.5, SVG Export Plug-In . SVG Version: 6.00 Build 0)  -->
<svg version="1.1" id="Layer_1" xmlns="http://www.w3.org/2000/svg" xmlns:xlink="http://www.w3.org/1999/xlink" x="0px" y="0px"
	 viewBox="0 0 32 32" style="enable-background:new 0 0 32 32;" xml:space="preserve">
<style type="text/css">
	.st0{fill:#FFFFFF;}
</style>
<path class="st0" d="M12,6.4c-1.4,0.4-2.8,0.8-4.3,1.3c-0.1,0-0.2,0.1-0.3,0.2C7.3,8,7.3,8.1,7.3,8.3C6.4,14.5,8.3,19,10.6,22
	c1,1.3,2.1,2.4,3.4,3.3c0.5,0.4,1,0.6,1.3,0.8c0.2,0.1,0.3,0.1,0.4,0.2c0,0,0.1,0,0.2,0c0.1,0,0.1,0,0.2,0c0.1,0,0.3-0.1,0.4-0.2
	c0.4-0.2,0.8-0.4,1.3-0.8c1.3-0.9,2.5-2.1,3.4-3.3c2.3-3,4.2-7.5,3.4-13.8c0-0.1-0.1-0.3-0.2-0.4c-0.1-0.1-0.2-0.2-0.3-0.2
	c-1-0.3-2.6-0.8-4.3-1.3c-1.7-0.5-3.2-0.8-4-0.8C15.2,5.6,13.7,5.9,12,6.4L12,6.4z M11.6,4.8C13.2,4.4,15,4,16,4s2.8,0.4,4.4,0.8
	c1.7,0.4,3.3,1,4.3,1.3c0.4,0.1,0.8,0.4,1.1,0.7c0.3,0.3,0.5,0.7,0.5,1.2c0.9,6.7-1.2,11.7-3.7,15c-1.1,1.4-2.3,2.6-3.8,3.7
	c-0.5,0.4-1,0.7-1.6,0.9C16.8,27.8,16.4,28,16,28c-0.4,0-0.8-0.2-1.2-0.4c-0.5-0.3-1.1-0.6-1.6-0.9c-1.4-1-2.7-2.3-3.8-3.7
	c-2.5-3.3-4.6-8.3-3.7-15c0.1-0.4,0.2-0.8,0.5-1.2c0.3-0.3,0.6-0.6,1.1-0.7C8.7,5.7,10.2,5.2,11.6,4.8z"/>
<path class="st0" d="M16,12.3c0.2,0,0.4,0.1,0.5,0.2c0.1,0.1,0.2,0.3,0.2,0.5v2.3H19c0.2,0,0.4,0.1,0.5,0.2c0.1,0.1,0.2,0.3,0.2,0.5
	s-0.1,0.4-0.2,0.5c-0.1,0.1-0.3,0.2-0.5,0.2h-2.3V19c0,0.2-0.1,0.4-0.2,0.5c-0.1,0.1-0.3,0.2-0.5,0.2s-0.4-0.1-0.5-0.2
	c-0.1-0.1-0.2-0.3-0.2-0.5v-2.3H13c-0.2,0-0.4-0.1-0.5-0.2c-0.1-0.1-0.2-0.3-0.2-0.5s0.1-0.4,0.2-0.5c0.1-0.1,0.3-0.2,0.5-0.2h2.3
	V13c0-0.2,0.1-0.4,0.2-0.5C15.6,12.3,15.8,12.3,16,12.3z"/>
</svg>
