<svg width="18" height="18" viewBox="0 0 18 18" fill="none" xmlns="http://www.w3.org/2000/svg">
<path d="M10.6464 6.64645C10.4512 6.84171 10.4512 7.15829 10.6464 7.35355C10.8417 7.54882 11.1583 7.54882 11.3536 7.35355L10.6464 6.64645ZM17.5 0.999999C17.5 0.723857 17.2761 0.5 17 0.499999L12.5 0.5C12.2239 0.5 12 0.723857 12 1C12 1.27614 12.2239 1.5 12.5 1.5L16.5 1.5L16.5 5.5C16.5 5.77614 16.7239 6 17 6C17.2761 6 17.5 5.77614 17.5 5.5L17.5 0.999999ZM11.3536 7.35355L17.3536 1.35355L16.6464 0.646446L10.6464 6.64645L11.3536 7.35355Z" fill="#292929"/>
<path d="M0.5 17C0.5 17.2761 0.723858 17.5 1 17.5L5.5 17.5C5.77614 17.5 6 17.2761 6 17C6 16.7239 5.77614 16.5 5.5 16.5L1.5 16.5L1.5 12.5C1.5 12.2239 1.27614 12 1 12C0.723858 12 0.5 12.2239 0.5 12.5L0.5 17ZM7.35355 11.3536C7.54882 11.1583 7.54882 10.8417 7.35355 10.6464C7.15829 10.4512 6.84171 10.4512 6.64645 10.6464L7.35355 11.3536ZM1.35355 17.3536L7.35355 11.3536L6.64645 10.6464L0.646447 16.6464L1.35355 17.3536Z" fill="#292929"/>
</svg>
