<?xml version="1.0" encoding="utf-8"?>
<!-- Generator: Adobe Illustrator 17.0.0, SVG Export Plug-In . SVG Version: 6.00 Build 0)  -->
<!DOCTYPE svg PUBLIC "-//W3C//DTD SVG 1.1//EN" "http://www.w3.org/Graphics/SVG/1.1/DTD/svg11.dtd">
<svg version="1.1" id="Layer_1" xmlns="http://www.w3.org/2000/svg" xmlns:xlink="http://www.w3.org/1999/xlink" x="0px" y="0px"
	 width="24px" height="24px" viewBox="0 0 24 24" enable-background="new 0 0 24 24" xml:space="preserve">
<path fill="#292929" stroke="#FFFFFF" stroke-width="0.3" stroke-miterlimit="10" d="M23.537,14.039
	c-0.703-0.505-1.45-0.932-2.269-1.221c-0.203-0.072-0.407-0.139-0.614-0.21c0.006-0.046,0.006-0.08,0.015-0.112
	c0.525-1.88,0.462-3.759-0.006-5.637c-0.104-0.416-0.314-0.583-0.739-0.57c-1.261,0.038-2.479,0.28-3.643,0.771
	c-0.303,0.129-0.599,0.277-0.905,0.42c-0.022-0.042-0.04-0.079-0.057-0.115c-0.666-1.402-1.603-2.591-2.788-3.593
	c-0.361-0.305-0.726-0.329-1.103,0.001c-0.665,0.578-1.294,1.189-1.795,1.913C9.241,6.254,8.898,6.854,8.522,7.455
	C8.5,7.444,8.439,7.414,8.38,7.383C7,6.665,5.527,6.314,3.975,6.289C3.634,6.284,3.414,6.445,3.327,6.763
	c-0.4,1.493-0.524,3.007-0.29,4.541c0.067,0.44,0.171,0.876,0.26,1.323c-0.025,0.011-0.054,0.03-0.084,0.039
	c-0.966,0.285-1.848,0.742-2.672,1.319c-0.358,0.251-0.45,0.517-0.294,0.932c0.5,1.335,1.215,2.534,2.255,3.52
	c1.45,1.374,3.18,2.047,5.176,2.004c1.513-0.032,2.89-0.51,4.153-1.33c0.11-0.072,0.187-0.079,0.307-0.007
	c0.343,0.205,0.69,0.408,1.052,0.578c1.829,0.858,3.712,1.055,5.636,0.368c2.545-0.909,4.051-2.817,4.962-5.272
	C23.89,14.498,23.783,14.215,23.537,14.039z M9.897,18.703c-2.807,1.043-5.186,0.4-7.159-1.849c-0.029,0.058-0.834-1.361-1.226-2.05
	c0.483-0.242,0.912-0.469,1.351-0.672c0.226-0.105,0.475-0.162,0.706-0.257C3.725,13.811,3.795,13.858,3.864,14
	c0.507,1.029,1.191,1.923,2.064,2.672C7.067,17.648,9.683,18.612,9.897,18.703z M4.45,7.582c1.263,0.091,2.44,0.423,3.539,1.03
	c0.103,0.056,0.119,0.108,0.09,0.225c-0.776,3.123-0.07,5.903,1.945,8.38c0.029,0.035,0.052,0.075,0.086,0.122
	C5.795,16.478,3.311,12.116,4.45,7.582z M11.977,17.356c-3.695-3.124-4.099-8.779,0.007-12.354
	C15.972,8.516,15.813,14.087,11.977,17.356z M14.922,15.8c0.802-1.353,1.226-2.822,1.267-4.401c0.023-0.855-0.073-1.692-0.3-2.514
	c-0.042-0.151-0.017-0.224,0.124-0.301c1.051-0.578,2.178-0.894,3.368-1.011c0.114-0.011,0.159,0.025,0.18,0.131
	c0.338,1.655,0.314,3.296-0.253,4.899c-0.475,1.342-1.264,2.473-2.4,3.34c-0.909,0.694-1.927,1.166-3.039,1.407
	C14.224,16.83,14.606,16.334,14.922,15.8z M22.182,15.332c-0.581,1.152-1.347,2.146-2.433,2.872c-0.8,0.535-1.674,0.852-2.631,0.951
	c-1.001,0.104-3.061-0.492-3.085-0.523c2.792-0.661,4.883-2.205,6.157-4.811c0.797,0.202,1.52,0.545,2.227,0.999
	C22.338,14.994,22.266,15.165,22.182,15.332z"/>
</svg>
