<?xml version="1.0" encoding="utf-8"?>
<!-- Generator: Adobe Illustrator 23.0.5, SVG Export Plug-In . SVG Version: 6.00 Build 0)  -->
<svg version="1.1" id="Layer_1" xmlns="http://www.w3.org/2000/svg" xmlns:xlink="http://www.w3.org/1999/xlink" x="0px" y="0px"
	 viewBox="0 0 21 21" style="enable-background:new 0 0 21 21;" xml:space="preserve">
<style type="text/css">
	.st0{fill:#010101;}
</style>
<g>
	<path class="st0" d="M17.19,16.67h-3.59c0.91-0.36,1.61-0.88,2.14-1.51c2.18-0.33,3.15-2.12,3.15-3.78c0-1.17-0.65-2.15-1.5-2.32
		c0-0.01,0-0.02,0-0.03c0-0.15-0.06-0.29-0.18-0.41c-0.09-0.12-0.26-0.18-0.41-0.18h-6.76H3.28c-0.15,0-0.29,0.06-0.41,0.18
		C2.76,8.74,2.7,8.88,2.7,9.03c0.02,3.14,0.57,6.35,3.8,7.64H2.87c-0.41,0-0.76,0.35-0.76,0.76c0,0.35,0.24,0.62,0.68,0.71l3.7,0.29
		c0.15,0,0.18,0.06,0.21,0.12c0.15,0.29,0.44,0.47,0.76,0.47h4.88c0.32,0,0.62-0.18,0.71-0.47c0.03-0.06,0.09-0.12,0.21-0.12
		l4.03-0.29h0.03c0.41-0.09,0.65-0.35,0.65-0.71C17.95,17.02,17.63,16.67,17.19,16.67z M18.27,11.38c0,1.15-0.53,2.53-2,3.03
		c0.88-1.44,1.06-3.2,1.12-4.73C17.89,9.85,18.27,10.56,18.27,11.38z M13.57,10.62l0.88,0.88v1.94h-1.76V11.5L13.57,10.62z
		 M3.28,9.03h6.76h3.23v1.06l-1.09,1.09c-0.06,0.06-0.09,0.12-0.09,0.21v2.35c0,0.18,0.12,0.29,0.29,0.29h2.35
		c0.18,0,0.29-0.12,0.29-0.29v-2.35c0-0.09-0.03-0.15-0.09-0.21l-1.09-1.09V9.03h2.94c-0.03,3.97-0.88,7.64-6.76,7.64
		S3.31,13,3.28,9.03z M17.27,17.55l-4,0.29c-0.29,0.03-0.56,0.18-0.68,0.44c-0.06,0.09-0.15,0.15-0.24,0.15H7.46
		c-0.09,0-0.18-0.06-0.24-0.15c-0.12-0.26-0.38-0.41-0.68-0.44l-3.7-0.29C2.7,17.52,2.7,17.47,2.7,17.44c0-0.09,0.09-0.18,0.18-0.18
		h14.37c0.09,0,0.18,0.09,0.18,0.18C17.42,17.47,17.42,17.52,17.27,17.55z"/>
	<path class="st0" d="M9.54,4.42C9.1,4.86,8.87,5.3,8.87,5.77c0,0.47,0.24,0.94,0.68,1.41C9.6,7.24,9.66,7.27,9.75,7.27
		c0.06,0,0.15-0.03,0.21-0.09c0.12-0.12,0.12-0.29,0-0.41c-0.32-0.35-0.5-0.68-0.5-1c0-0.32,0.18-0.65,0.5-0.94
		c0.44-0.41,0.68-0.88,0.68-1.35c0-0.5-0.24-0.97-0.68-1.41c-0.12-0.12-0.29-0.12-0.41,0c-0.12,0.12-0.12,0.29,0,0.41
		c0.32,0.35,0.5,0.68,0.5,1S9.87,4.12,9.54,4.42z"/>
	<path class="st0" d="M13.07,4.42C12.63,4.86,12.4,5.3,12.4,5.77s0.24,0.94,0.68,1.41c0.06,0.06,0.12,0.09,0.21,0.09
		c0.06,0,0.15-0.03,0.21-0.09c0.12-0.12,0.12-0.29,0-0.41c-0.32-0.35-0.5-0.68-0.5-1c0-0.32,0.18-0.65,0.5-0.94
		c0.44-0.41,0.68-0.88,0.68-1.35c0-0.5-0.24-0.97-0.68-1.41c-0.12-0.12-0.29-0.12-0.41,0c-0.12,0.12-0.12,0.29,0,0.41
		c0.32,0.35,0.5,0.68,0.5,1S13.4,4.12,13.07,4.42z"/>
	<path class="st0" d="M6.61,4.42C6.16,4.86,5.93,5.3,5.93,5.77c0,0.47,0.24,0.94,0.68,1.41c0.06,0.06,0.12,0.09,0.21,0.09
		c0.06,0,0.15-0.03,0.21-0.09c0.12-0.12,0.12-0.29,0-0.41c-0.32-0.35-0.5-0.68-0.5-1c0-0.32,0.18-0.65,0.5-0.94
		c0.44-0.41,0.68-0.88,0.68-1.35c0-0.5-0.24-0.97-0.68-1.41c-0.12-0.12-0.29-0.12-0.41,0c-0.12,0.12-0.12,0.29,0,0.41
		c0.32,0.35,0.5,0.68,0.5,1S6.93,4.12,6.61,4.42z"/>
</g>
</svg>
