<?xml version="1.0" encoding="utf-8"?>
<!-- Generator: Adobe Illustrator 17.0.0, SVG Export Plug-In . SVG Version: 6.00 Build 0)  -->
<!DOCTYPE svg PUBLIC "-//W3C//DTD SVG 1.1//EN" "http://www.w3.org/Graphics/SVG/1.1/DTD/svg11.dtd">
<svg version="1.1" id="Layer_1" xmlns="http://www.w3.org/2000/svg" xmlns:xlink="http://www.w3.org/1999/xlink" x="0px" y="0px"
	 width="29px" height="29px" viewBox="0 0 29 29" enable-background="new 0 0 29 29" xml:space="preserve">
<path fill="#FFFFFF" d="M1.27,27.385c-0.051,0-0.128,0.094-0.128,0.236s0.077,0.236,0.128,0.236H27.73
	c0.051,0,0.128-0.094,0.128-0.236s-0.077-0.236-0.128-0.236h-0.485h-0.3v-0.3v-1.751c0-0.142-0.077-0.236-0.128-0.236h-4.134h-0.3
	v-0.3v-2.359v-0.3h0.3h1.397c0.036,0,0.098-0.056,0.12-0.161c0.027-0.129-0.02-0.253-0.082-0.297l-2.978-2.133l-0.125-0.09v-0.154
	v-1.754v-0.105l0.065-0.082l1.7-2.13c0.059-0.074,0.077-0.199,0.042-0.303c-0.018-0.054-0.049-0.097-0.083-0.116l-3.852-2.147
	l-0.154-0.086v-0.176v-1.717v-0.105l0.065-0.082l1.699-2.13c0.059-0.074,0.077-0.199,0.042-0.303
	c-0.025-0.075-0.067-0.112-0.096-0.122l-0.249-0.08l0.002-0.014c-0.857-0.344-3.73-1.7-5.325-4.929l-0.09-0.182l0.186-0.207
	c0.05-0.056,0.043-0.28-0.081-0.703c-0.12-0.411-0.312-0.657-0.391-0.687c-0.044,0.012-0.189,0.132-0.325,0.455
	c-0.19,0.448-0.121,0.923-0.06,1.004l0.141,0.097l-0.126,0.224C12.536,6.14,9.661,7.504,8.803,7.85l0.002,0.013l-0.25,0.082
	C8.526,7.954,8.484,7.992,8.459,8.067C8.425,8.171,8.442,8.295,8.501,8.37l1.7,2.13l0.065,0.082v0.105v1.717v0.176l-0.154,0.086
	l-3.852,2.146c-0.034,0.019-0.065,0.062-0.083,0.117c-0.034,0.104-0.017,0.229,0.042,0.303l1.699,2.13l0.065,0.082v0.105v1.754
	v0.154l-0.125,0.09l-2.978,2.133c-0.062,0.044-0.11,0.168-0.082,0.297c0.022,0.105,0.084,0.161,0.12,0.161h1.397h0.3v0.3v2.359v0.3
	h-0.3H2.183c-0.051,0-0.128,0.094-0.128,0.236v1.751v0.3h-0.3H1.27z M16.197,25.333v1.751v0.3h-0.3h-0.969h-0.3v-0.3V24.19
	c0-0.142-0.077-0.236-0.128-0.236s-0.128,0.094-0.128,0.236v2.895v0.3h-0.3h-0.969h-0.3v-0.3v-1.751
	c0-0.142-0.077-0.236-0.128-0.236h-1.853h-0.3v-0.3V24.19c0-0.142-0.077-0.236-0.128-0.236s-0.128,0.094-0.128,0.236v0.608v0.3h-0.3
	H7.172h-0.3v-0.3v-2.359v-0.3h0.3h14.655h0.3v0.3v2.359v0.3h-0.3h-2.794h-0.3v-0.3V24.19c0-0.142-0.077-0.236-0.128-0.236
	c-0.051,0-0.128,0.094-0.128,0.236v0.608v0.3h-0.3h-1.853C16.274,25.097,16.197,25.191,16.197,25.333z M26.39,25.569h0.3v0.3v1.215
	v0.3h-0.3h-9.637h-0.3v-0.3v-1.215v-0.3h0.3H26.39z M20.021,8.414l-0.389,0.487l-0.969,1.215l-0.09,0.113h-0.144h-2.132h-0.3v-0.3
	V8.714v-0.3h0.3h3.102H20.021z M18.478,10.701v0.3v1.215v0.3h-0.3h-1.882h-0.3v-0.3v-1.215v-0.3h0.3h1.882H18.478z M10.604,7.39
	c1.079-0.706,2.584-1.973,3.629-4.003L14.5,2.87l0.267,0.518c1.045,2.029,2.55,3.297,3.629,4.003l0.842,0.551h-1.006h-7.463H9.762
	L10.604,7.39z M15.741,8.414v0.3v4.074v0.3h-0.3h-1.882h-0.3v-0.3V8.714v-0.3h0.3h1.882H15.741z M9.367,8.901L8.979,8.414h0.623
	h3.102h0.3v0.3v1.215v0.3h-0.3h-2.132h-0.144l-0.09-0.113L9.367,8.901z M13.004,10.701v0.3v1.215v0.3h-0.3h-1.882h-0.3v-0.3v-1.215
	v-0.3h0.3h1.882H13.004z M8.158,14.242l2.181-1.215l0.068-0.038h0.078h2.219h0.3v0.3c0,0.178,0.077,0.272,0.128,0.272h2.737
	c0.051,0,0.128-0.094,0.128-0.236v-0.3l0.3-0.036h2.219h0.078l0.068,0.038l2.181,1.215l1.009,0.562h-1.155H8.304H7.149L8.158,14.242
	z M7.086,15.763l-0.389-0.487h0.623h14.358h0.623l-0.389,0.487l-0.969,1.215l-0.09,0.113H20.71H8.29H8.146l-0.09-0.113L7.086,15.763
	z M20.759,17.564v0.3v1.215v0.3h-0.3H8.541h-0.3v-0.3v-1.215v-0.3h0.3h11.918H20.759z M6.53,21.666H5.596l0.759-0.544l1.696-1.215
	l0.078-0.056h0.096h12.546h0.096l0.078,0.056l1.697,1.215l0.759,0.544H22.47H6.53z M2.31,27.085v-1.215v-0.3h0.3h9.637h0.3v0.3
	v1.215v0.3h-0.3H2.61h-0.3V27.085z"/>
</svg>
