<?xml version="1.0" encoding="utf-8"?>
<!-- Generator: Adobe Illustrator 23.0.5, SVG Export Plug-In . SVG Version: 6.00 Build 0)  -->
<svg version="1.1" id="Layer_1" xmlns="http://www.w3.org/2000/svg" xmlns:xlink="http://www.w3.org/1999/xlink" x="0px" y="0px"
	 viewBox="0 0 32 32" style="enable-background:new 0 0 32 32;" xml:space="preserve">
<style type="text/css">
	.st0{clip-path:url(#SVGID_2_);}
	.st1{fill:#FFFFFF;}
</style>
<g>
	<defs>
		<rect id="SVGID_1_" x="5.5" y="7.5" width="21" height="17"/>
	</defs>
	<clipPath id="SVGID_2_">
		<use xlink:href="#SVGID_1_"  style="overflow:visible;"/>
	</clipPath>
	<g class="st0">
		<path class="st1" d="M25.1,19.9V9.3c0-0.1,0-0.2-0.1-0.2c-0.1-0.1-0.2-0.1-0.2-0.1H7.3C7.2,8.9,7.1,9,7,9C6.9,9.1,6.9,9.2,6.9,9.3
			v10.6c0,0.1,0,0.2,0.1,0.2c0.1,0.1,0.2,0.1,0.2,0.1h17.5c0.1,0,0.2,0,0.2-0.1C25.1,20.1,25.1,20,25.1,19.9z M26.5,9.3v10.6
			c0,0.5-0.2,0.9-0.5,1.3c-0.3,0.3-0.8,0.5-1.2,0.5h-8v1.4h3.8c0.1,0,0.2,0,0.3,0.1c0.1,0.1,0.1,0.2,0.1,0.3v0.7
			c0,0.1,0,0.2-0.1,0.3c-0.1,0.1-0.1,0.1-0.3,0.1h-9.1c-0.1,0-0.2,0-0.3-0.1c-0.1-0.1-0.1-0.2-0.1-0.3v-0.7c0-0.1,0-0.2,0.1-0.3
			c0.1-0.1,0.1-0.1,0.3-0.1h3.9v-1.4H7.3c-0.5,0-0.9-0.2-1.2-0.5c-0.3-0.3-0.5-0.8-0.5-1.3V9.3C5.5,8.8,5.7,8.4,6,8
			c0.3-0.3,0.8-0.5,1.2-0.5h17.5c0.5,0,0.9,0.2,1.2,0.5C26.3,8.4,26.5,8.8,26.5,9.3z"/>
	</g>
</g>
</svg>
