<?xml version="1.0" encoding="utf-8"?>
<!-- Generator: Adobe Illustrator 17.0.0, SVG Export Plug-In . SVG Version: 6.00 Build 0)  -->
<!DOCTYPE svg PUBLIC "-//W3C//DTD SVG 1.1//EN" "http://www.w3.org/Graphics/SVG/1.1/DTD/svg11.dtd">
<svg version="1.1" id="Layer_1" xmlns="http://www.w3.org/2000/svg" xmlns:xlink="http://www.w3.org/1999/xlink" x="0px" y="0px"
	 width="24px" height="24px" viewBox="0 0 24 24" enable-background="new 0 0 24 24" xml:space="preserve">
<g>
	<path fill="#292929" stroke="#292929" stroke-width="0.2" d="M12,20.584c0.823,0,1.49-0.667,1.49-1.49s-0.667-1.49-1.49-1.49
		s-1.49,0.667-1.49,1.49S11.177,20.584,12,20.584z"/>
	<path fill="#292929" stroke="#292929" stroke-width="0.2" d="M7.49,15.604l0.652,0.654l0.085,0.086l0.086-0.085
		c0.966-0.962,2.247-1.491,3.61-1.491c1.394,0,2.696,0.55,3.668,1.55l0.084,0.087l0.087-0.084l0.588-0.571l0.087-0.084l-0.084-0.087
		c-1.173-1.207-2.747-1.872-4.43-1.872l0,0c-1.644,0-3.193,0.639-4.359,1.8L7.49,15.604z"/>
	<path fill="#292929" stroke="#292929" stroke-width="0.2" d="M12.015,3.416L12.015,3.416h-0.014c-4.412,0-8.552,1.727-11.657,4.862
		L0.259,8.364l0.086,0.085l0.583,0.577l0.086,0.085l0.085-0.086C4.003,6.093,7.874,4.478,12,4.478s7.997,1.614,10.901,4.546
		l0.085,0.086l0.086-0.085l0.582-0.577l0.086-0.085l-0.085-0.086C20.556,5.146,16.421,3.419,12.015,3.416z"/>
	<path fill="#292929" stroke="#292929" stroke-width="0.2" d="M4.249,12.051c2.083-2.096,4.856-3.25,7.813-3.25L4.249,12.051z
		 M4.249,12.051l-0.132,0.113l0.097,0.094l0.584,0.576l0.086,0.085l0.085-0.086c1.886-1.915,4.405-2.97,7.092-2.97
		c2.688,0,5.206,1.054,7.093,2.969l0.085,0.086l0.086-0.085l0.584-0.576l0.086-0.085l-0.085-0.086
		c-2.087-2.118-4.875-3.285-7.849-3.285L4.249,12.051z"/>
</g>
</svg>
